<svg width="1440" height="1155" viewBox="0 0 1440 1155" fill="none" xmlns="http://www.w3.org/2000/svg">
<g clip-path="url(#clip0_46_2700)">
<path d="M0 36C0 16.1177 16.1178 0 36 0H1404C1423.88 0 1440 16.1178 1440 36V1155H0V36Z" fill="black"/>
<g filter="url(#filter0_f_46_2700)">
<rect x="-839" y="-276" width="554" height="554" fill="#FFF9A4" fill-opacity="0.2"/>
</g>
<g filter="url(#filter1_f_46_2700)">
<rect x="-74" y="-269" width="554" height="554" fill="#A4FFF4" fill-opacity="0.15"/>
</g>
<g filter="url(#filter2_f_46_2700)">
<rect x="-512" y="-284" width="554" height="554" fill="#C5A4FF" fill-opacity="0.15"/>
</g>
<g filter="url(#filter3_f_46_2700)">
<rect x="1245" y="-361" width="554" height="554" fill="#C5A4FF" fill-opacity="0.2"/>
</g>
<g filter="url(#filter4_f_46_2700)">
<rect x="1572" y="-369" width="554" height="554" fill="#C5A4FF" fill-opacity="0.15"/>
</g>
<g filter="url(#filter5_f_46_2700)">
<rect x="932" y="-330" width="554" height="554" fill="#C5A4FF" fill-opacity="0.15"/>
</g>
<path d="M408.374 595.344V659.935C401.217 769.133 393.38 879.373 382.796 988.081C378.165 1035.62 369.96 1128.01 347.886 1159.89C318.208 1202.74 290.243 1144.87 273.011 1107.18C255.099 1068.01 238.476 1023.4 222.582 982.011C206.745 940.779 182.993 894.566 196.635 841.888C206.88 802.32 243.446 740.579 261.62 706.566C283.687 665.274 306.788 621.001 330.923 583.348C345.783 560.158 373.578 519.704 394.18 543.409C403.532 554.16 407.539 577.027 408.389 595.332L408.374 595.344Z" fill="url(#paint0_linear_46_2700)"/>
<path d="M407.878 595.11L407.874 595.112V595.344V659.918C400.717 769.11 392.881 879.338 382.298 988.033C382.125 989.809 381.947 991.647 381.764 993.542C379.491 1017.02 376.373 1049.24 371.389 1079.78C368.696 1096.28 365.459 1112.28 361.521 1126.15C357.58 1140.02 352.946 1151.71 347.475 1159.61C340.097 1170.26 332.916 1174.52 326.089 1174.53C319.235 1174.55 312.544 1170.28 306.147 1163.4C293.358 1149.65 282.091 1125.84 273.466 1106.97C257.887 1072.9 243.283 1034.72 229.28 998.101C227.19 992.637 225.113 987.207 223.049 981.832L222.582 982.011L223.049 981.832C221.006 976.512 218.833 971.113 216.628 965.633C201.707 928.56 185.278 887.738 197.119 842.014C202.226 822.289 213.905 797.005 226.599 772.373C234.695 756.661 243.188 741.245 250.639 727.72C254.87 720.04 258.765 712.97 262.061 706.802C264.455 702.322 266.861 697.807 269.279 693.27C289.154 655.979 309.839 617.168 331.344 583.618L330.923 583.348L331.344 583.618C338.778 572.017 349.407 556.164 360.729 546.168C366.392 541.167 372.173 537.684 377.765 536.883C383.311 536.088 388.749 537.922 393.802 543.737L393.802 543.737C398.399 549.022 401.716 557.332 403.987 566.656C406.234 575.883 407.444 586.042 407.878 595.11Z" stroke="white" stroke-opacity="0.05"/>
<path d="M252.522 1252.46C285.719 1303.45 267.482 1354.36 235.736 1387.7C208.812 1415.99 174.299 1437.66 144.671 1457.37C101.803 1485.89 52.3657 1520.49 8.36554 1541.44C-7.10356 1548.8 -32.3992 1559.3 -48.0099 1554.38C-52.8383 1552.86 -60.8454 1543.45 -63.6914 1536.64C-74.7357 1510.23 -65.8366 1469.58 -58.5586 1442.61C-46.9763 1399.69 -29.4045 1355.28 -14.1761 1315.52C2.97791 1270.75 21.2788 1222.46 39.6577 1179.36C58.9073 1134.21 75.1977 1105.7 109.824 1128.12C140.416 1147.93 174.398 1176 203.729 1201.59C219.135 1215.04 239.779 1232.88 252.522 1252.45V1252.46Z" fill="url(#paint1_linear_46_2700)"/>
<path d="M204.316 1202.77C219.593 1216.1 239.568 1233.53 252.022 1252.6V1252.61L252.103 1252.74C285.133 1303.47 267.018 1354.12 235.374 1387.36L235.735 1387.7L235.374 1387.36C211.132 1412.83 180.723 1432.93 153.238 1451.09C150.251 1453.07 147.299 1455.02 144.394 1456.95L144.671 1457.37L144.394 1456.95C138.242 1461.04 131.957 1465.26 125.573 1469.54C87.4474 1495.12 45.8041 1523.06 8.15058 1540.99C0.424774 1544.66 -9.73746 1549.12 -19.907 1552.03C-30.0972 1554.96 -40.2021 1556.32 -47.8596 1553.9L-48.0099 1554.38L-47.8597 1553.9C-48.9781 1553.55 -50.326 1552.72 -51.7808 1551.54C-53.2282 1550.36 -54.7505 1548.85 -56.2173 1547.16C-59.1552 1543.8 -61.8338 1539.79 -63.2301 1536.44L-63.6914 1536.64L-63.2301 1536.44C-68.7039 1523.35 -69.2495 1506.69 -67.4985 1489.88C-65.7487 1473.09 -61.7126 1456.22 -58.0759 1442.74C-47.5822 1403.85 -32.1678 1363.74 -18.029 1326.95C-16.5733 1323.17 -15.1311 1319.41 -13.7092 1315.7C-12.2225 1311.82 -10.7271 1307.91 -9.22393 1303.99C6.61822 1262.59 23.3357 1218.91 40.1176 1179.56L39.6577 1179.36L40.1176 1179.56C44.9288 1168.27 49.5482 1158.05 54.3108 1149.4C59.0751 1140.74 63.9675 1133.7 69.3137 1128.77C74.6517 1123.84 80.4264 1121.04 86.9765 1120.82C93.5372 1120.6 100.947 1122.97 109.553 1128.54C140.112 1148.33 174.073 1176.38 203.4 1201.97C203.704 1202.24 204.009 1202.5 204.316 1202.77Z" stroke="white" stroke-opacity="0.05"/>
<path d="M331.738 344.575C345.996 366.256 349.805 398.701 340.212 427.458C324.318 475.108 258.853 526.588 229.21 551.311C204.509 571.903 170.3 603.007 144.955 616.954C105.528 638.648 97.0253 591.537 84.3951 542.32C74.4978 503.769 64.9331 464.668 55.9985 425.483C44.9542 377.055 24.494 290.436 37.4852 241.41C58.1225 163.519 132.933 214.64 167.886 233.556C199.305 250.557 230.449 267.809 261.253 287.347C283.171 301.247 314.223 317.948 331.745 344.587L331.738 344.575Z" fill="url(#paint2_linear_46_2700)"/>
<path d="M331.327 344.861L331.328 344.861C345.486 366.4 349.286 398.676 339.738 427.3C331.83 451.006 311.565 475.719 289.514 497.627C270.637 516.384 250.5 533.038 235.791 545.204C233.328 547.241 231.017 549.153 228.89 550.927C223.937 555.056 218.61 559.6 213.052 564.342C204.73 571.442 195.888 578.984 187.008 586.237C172.202 598.329 157.343 609.566 144.714 616.516C134.925 621.902 127.15 622.967 120.79 620.891C114.421 618.811 109.349 613.541 105.061 605.982C100.774 598.425 97.3083 588.646 94.1218 577.657C91.8206 569.721 89.6714 561.176 87.4643 552.402C86.6152 549.027 85.7576 545.617 84.8795 542.195L84.3951 542.32L84.8794 542.195C74.983 503.648 65.4194 464.552 56.486 425.372C56.1874 424.062 55.882 422.725 55.5705 421.362C50.1206 397.505 42.8285 365.584 38.2235 333.6C33.3528 299.77 31.5008 265.946 37.9685 241.538L37.5348 241.423L37.9685 241.538C43.1057 222.149 51.5889 210.877 61.896 205.098C72.2114 199.315 84.4515 198.979 97.2142 201.67C109.976 204.36 123.203 210.067 135.44 216.295C143.306 220.299 150.733 224.502 157.364 228.254C161.06 230.345 164.509 232.297 167.648 233.996L167.886 233.556L167.648 233.996C199.066 250.995 230.196 268.241 260.985 287.77L261.242 287.364L260.985 287.77C263.934 289.64 267.044 291.558 270.26 293.543C291.015 306.346 316.222 321.897 331.327 344.861Z" stroke="white" stroke-opacity="0.05"/>
<path d="M1628.74 672.642C1643 694.324 1646.81 726.768 1637.21 755.526C1621.32 803.175 1555.85 854.656 1526.21 879.378C1501.51 899.97 1467.3 931.074 1441.95 945.022C1402.53 966.716 1394.03 919.605 1381.4 870.387C1371.5 831.837 1361.93 792.735 1353 753.55C1341.95 705.123 1321.49 618.504 1334.49 569.477C1355.12 491.586 1429.93 542.707 1464.89 561.624C1496.31 578.624 1527.45 595.876 1558.25 615.415C1580.17 629.314 1611.22 646.016 1628.74 672.654L1628.74 672.642Z" fill="url(#paint3_linear_46_2700)"/>
<path d="M1628.33 672.929L1628.33 672.928C1642.49 694.468 1646.29 726.743 1636.74 755.367C1628.83 779.074 1608.56 803.786 1586.51 825.695C1567.64 844.451 1547.5 861.106 1532.79 873.271C1530.33 875.309 1528.02 877.22 1525.89 878.994C1520.94 883.123 1515.61 887.667 1510.05 892.409C1501.73 899.509 1492.89 907.052 1484.01 914.304C1469.2 926.396 1454.34 937.634 1441.71 944.584C1431.93 949.97 1424.15 951.034 1417.79 948.958C1411.42 946.879 1406.35 941.609 1402.06 934.05C1397.77 926.493 1394.31 916.714 1391.12 905.724C1388.82 897.788 1386.67 889.244 1384.46 880.47C1383.62 877.094 1382.76 873.685 1381.88 870.263L1381.4 870.387L1381.88 870.263C1371.98 831.716 1362.42 792.619 1353.49 753.439C1353.19 752.13 1352.88 750.793 1352.57 749.429C1347.12 725.572 1339.83 693.652 1335.22 661.667C1330.35 627.838 1328.5 594.013 1334.97 569.605L1334.53 569.49L1334.97 569.605C1340.11 550.216 1348.59 538.944 1358.9 533.166C1369.21 527.383 1381.45 527.046 1394.21 529.737C1406.98 532.428 1420.2 538.134 1432.44 544.363C1440.31 548.366 1447.73 552.569 1454.36 556.321C1458.06 558.413 1461.51 560.364 1464.65 562.063L1464.89 561.624L1464.65 562.063C1496.07 579.063 1527.2 596.308 1557.98 615.837L1558.24 615.431L1557.98 615.837C1560.93 617.707 1564.04 619.626 1567.26 621.61C1588.01 634.414 1613.22 649.964 1628.33 672.929Z" stroke="white" stroke-opacity="0.05"/>
<path d="M1253.85 1042.56C1242.88 1075.39 1221.07 1088.8 1200.94 1099.58C1180.81 1110.37 1157.29 1121.27 1136.06 1131.02C1109 1143.46 1066.04 1164.96 1038.78 1162.64C987.75 1158.31 1007.11 1078.92 1023.56 1031.65C1045.99 967.195 1077.16 905.155 1104.18 845.964C1124.65 801.104 1144.66 754.724 1166.46 711.133C1180.52 682.998 1212.77 617.342 1234.7 613.631C1269.2 607.789 1269.88 680.616 1270.45 721.824C1271.48 796.938 1267.76 883.485 1264.03 958.706C1262.84 982.878 1260.9 1021.5 1253.85 1042.57L1253.85 1042.56Z" fill="url(#paint4_linear_46_2700)"/>
<path d="M1253.72 1041.37L1253.72 1041.36L1253.37 1042.4C1242.47 1075.04 1220.8 1088.37 1200.7 1099.14C1180.59 1109.92 1157.08 1120.81 1135.85 1130.57C1133.37 1131.71 1130.75 1132.93 1128.02 1134.2C1115.89 1139.84 1101.61 1146.49 1087.32 1151.9C1069.79 1158.54 1052.33 1163.29 1038.82 1162.14C1026.22 1161.07 1018.01 1155.38 1012.99 1146.74C1007.96 1138.07 1006.11 1126.37 1006.37 1113.26C1006.88 1087.04 1015.81 1055.44 1024.03 1031.82C1041.46 981.726 1064.17 933.102 1086.12 886.114C1092.4 872.664 1098.62 859.349 1104.63 846.172C1110.25 833.863 1115.83 821.442 1121.42 808.998C1136.22 776.074 1151.09 742.983 1166.9 711.356L1166.5 711.158L1166.9 711.356C1167.27 710.613 1167.66 709.844 1168.05 709.05C1175.16 694.818 1186.17 672.782 1198.05 653.485C1204.33 643.298 1210.84 633.892 1217.14 626.807C1220.28 623.265 1223.37 620.313 1226.34 618.135C1229.31 615.955 1232.14 614.57 1234.78 614.124L1234.7 613.631L1234.78 614.124C1239 613.409 1242.68 613.9 1245.91 615.367C1249.13 616.837 1251.93 619.3 1254.36 622.574C1259.21 629.135 1262.53 638.891 1264.81 650.182C1269.27 672.362 1269.65 700.224 1269.93 720.747L1269.95 721.831C1270.97 796.927 1267.26 883.46 1263.53 958.682C1262.94 970.769 1262.15 986.456 1260.64 1001.75C1259.17 1016.56 1257.03 1030.96 1253.72 1041.37Z" stroke="white" stroke-opacity="0.05"/>
</g>
<defs>
<filter id="filter0_f_46_2700" x="-1139" y="-576" width="1154" height="1154" filterUnits="userSpaceOnUse" color-interpolation-filters="sRGB">
<feFlood flood-opacity="0" result="BackgroundImageFix"/>
<feBlend mode="normal" in="SourceGraphic" in2="BackgroundImageFix" result="shape"/>
<feGaussianBlur stdDeviation="150" result="effect1_foregroundBlur_46_2700"/>
</filter>
<filter id="filter1_f_46_2700" x="-374" y="-569" width="1154" height="1154" filterUnits="userSpaceOnUse" color-interpolation-filters="sRGB">
<feFlood flood-opacity="0" result="BackgroundImageFix"/>
<feBlend mode="normal" in="SourceGraphic" in2="BackgroundImageFix" result="shape"/>
<feGaussianBlur stdDeviation="150" result="effect1_foregroundBlur_46_2700"/>
</filter>
<filter id="filter2_f_46_2700" x="-812" y="-584" width="1154" height="1154" filterUnits="userSpaceOnUse" color-interpolation-filters="sRGB">
<feFlood flood-opacity="0" result="BackgroundImageFix"/>
<feBlend mode="normal" in="SourceGraphic" in2="BackgroundImageFix" result="shape"/>
<feGaussianBlur stdDeviation="150" result="effect1_foregroundBlur_46_2700"/>
</filter>
<filter id="filter3_f_46_2700" x="945" y="-661" width="1154" height="1154" filterUnits="userSpaceOnUse" color-interpolation-filters="sRGB">
<feFlood flood-opacity="0" result="BackgroundImageFix"/>
<feBlend mode="normal" in="SourceGraphic" in2="BackgroundImageFix" result="shape"/>
<feGaussianBlur stdDeviation="150" result="effect1_foregroundBlur_46_2700"/>
</filter>
<filter id="filter4_f_46_2700" x="1272" y="-669" width="1154" height="1154" filterUnits="userSpaceOnUse" color-interpolation-filters="sRGB">
<feFlood flood-opacity="0" result="BackgroundImageFix"/>
<feBlend mode="normal" in="SourceGraphic" in2="BackgroundImageFix" result="shape"/>
<feGaussianBlur stdDeviation="150" result="effect1_foregroundBlur_46_2700"/>
</filter>
<filter id="filter5_f_46_2700" x="632" y="-630" width="1154" height="1154" filterUnits="userSpaceOnUse" color-interpolation-filters="sRGB">
<feFlood flood-opacity="0" result="BackgroundImageFix"/>
<feBlend mode="normal" in="SourceGraphic" in2="BackgroundImageFix" result="shape"/>
<feGaussianBlur stdDeviation="150" result="effect1_foregroundBlur_46_2700"/>
</filter>
<linearGradient id="paint0_linear_46_2700" x1="300.478" y1="536.207" x2="300.478" y2="1175.03" gradientUnits="userSpaceOnUse">
<stop stop-color="white" stop-opacity="0.05"/>
<stop offset="1" stop-color="white" stop-opacity="0"/>
</linearGradient>
<linearGradient id="paint1_linear_46_2700" x1="100.641" y1="1120.3" x2="100.641" y2="1555.65" gradientUnits="userSpaceOnUse">
<stop stop-color="white" stop-opacity="0.05"/>
<stop offset="1" stop-color="white" stop-opacity="0"/>
</linearGradient>
<linearGradient id="paint2_linear_46_2700" x1="189.407" y1="199.546" x2="189.407" y2="622.381" gradientUnits="userSpaceOnUse">
<stop stop-color="white" stop-opacity="0.05"/>
<stop offset="1" stop-color="white" stop-opacity="0"/>
</linearGradient>
<linearGradient id="paint3_linear_46_2700" x1="1486.41" y1="527.613" x2="1486.41" y2="950.449" gradientUnits="userSpaceOnUse">
<stop stop-color="white" stop-opacity="0.05"/>
<stop offset="1" stop-color="white" stop-opacity="0"/>
</linearGradient>
<linearGradient id="paint4_linear_46_2700" x1="1138.23" y1="613.3" x2="1138.23" y2="1162.81" gradientUnits="userSpaceOnUse">
<stop stop-color="white" stop-opacity="0.05"/>
<stop offset="1" stop-color="white" stop-opacity="0"/>
</linearGradient>
<clipPath id="clip0_46_2700">
<path d="M0 36C0 16.1177 16.1178 0 36 0H1404C1423.88 0 1440 16.1178 1440 36V1155H0V36Z" fill="white"/>
</clipPath>
</defs>
</svg>
