<svg width="1440" height="1024" viewBox="0 0 1440 1024" fill="none" xmlns="http://www.w3.org/2000/svg">
<path d="M0 0H1440V988C1440 1007.88 1423.88 1024 1404 1024H36C16.1177 1024 0 1007.88 0 988V0Z" fill="black"/>
<g clip-path="url(#clip0_22_4479)">
<path d="M408.374 352.052V390.247C401.217 454.821 393.38 520.011 382.796 584.294C378.165 612.408 369.96 667.041 347.886 685.895C318.208 711.233 290.243 677.01 273.011 654.723C255.099 631.558 238.476 605.179 222.582 580.705C206.745 556.322 182.993 528.995 196.635 497.844C206.88 474.446 243.446 437.936 261.62 417.823C283.687 393.405 306.788 367.224 330.923 344.959C345.783 331.245 373.578 307.323 394.18 321.341C403.532 327.698 407.539 341.221 408.389 352.045L408.374 352.052Z" fill="url(#paint0_linear_22_4479)"/>
<path d="M407.874 351.889V352.052V390.22C400.718 454.782 392.883 519.952 382.302 584.213C382.129 585.263 381.951 586.349 381.768 587.469C379.495 601.355 376.379 620.391 371.4 638.434C368.71 648.182 365.48 657.627 361.551 665.803C357.621 673.983 353.006 680.864 347.561 685.514C340.218 691.783 333.018 694.341 326.089 694.348C319.15 694.354 312.426 691.801 306.049 687.746C293.28 679.626 282.03 665.57 273.407 654.417C257.835 634.278 243.237 611.707 229.233 590.054C227.143 586.823 225.066 583.612 223.002 580.432L222.582 580.705L223.002 580.432C220.95 577.273 218.771 574.073 216.561 570.827C210.211 561.497 203.603 551.791 199.01 541.607C192.833 527.912 190.348 513.447 197.093 498.045L196.635 497.844L197.093 498.045C202.181 486.425 213.834 471.5 226.531 456.93C234.626 447.641 243.113 438.531 250.562 430.535C254.794 425.993 258.691 421.81 261.991 418.158C264.385 415.508 266.791 412.839 269.209 410.156C289.085 388.103 309.764 365.159 331.262 345.326L330.923 344.959L331.262 345.326C338.692 338.47 349.313 329.102 360.629 323.194C371.957 317.279 383.83 314.904 393.898 321.754L393.899 321.754C398.467 324.86 401.756 329.735 404.01 335.208C406.236 340.613 407.439 346.567 407.874 351.889Z" stroke="white" stroke-opacity="0.05"/>
<path d="M252.522 740.635C285.719 770.787 267.482 800.89 235.736 820.607C208.812 837.336 174.299 850.15 144.671 861.803C101.803 878.667 52.3657 899.127 8.36554 911.517C-7.10356 915.871 -32.3992 922.08 -48.0099 919.17C-52.8383 918.271 -60.8454 912.706 -63.6914 908.678C-74.7357 893.06 -65.8366 869.025 -58.5586 853.074C-46.9763 827.693 -29.4045 801.435 -14.1761 777.923C2.97791 751.445 21.2788 722.893 39.6577 697.406C58.9073 670.709 75.1977 653.845 109.824 667.105C140.416 678.822 174.398 695.417 203.729 710.553C219.135 718.504 239.779 729.052 252.522 740.628V740.635Z" fill="url(#paint1_linear_22_4479)"/>
<path d="M204.405 711.465C219.656 719.334 239.573 729.61 252.022 740.849V740.856L252.186 741.005C260.439 748.501 265.465 755.967 267.894 763.237C270.321 770.501 270.165 777.598 268.006 784.382C263.681 797.975 251.304 810.349 235.473 820.182L235.698 820.545L235.473 820.182C211.23 835.245 180.817 847.132 153.331 857.875C150.344 859.042 147.393 860.195 144.488 861.338L144.671 861.803L144.487 861.338C138.337 863.758 132.052 866.251 125.668 868.783C87.5442 883.907 45.8928 900.431 8.23002 911.035C0.502289 913.211 -9.6694 915.846 -19.8528 917.574C-30.0487 919.305 -40.2032 920.116 -47.9183 918.678L-48.0071 919.155L-47.9184 918.678C-50.2307 918.248 -53.3711 916.678 -56.3135 914.683C-59.2521 912.692 -61.9097 910.333 -63.283 908.389L-63.2832 908.389C-68.6941 900.738 -69.2471 890.984 -67.5034 881.087C-65.7608 871.197 -61.7382 861.247 -58.1038 853.282C-47.6194 830.307 -32.2163 806.607 -18.0753 784.848C-16.6201 782.609 -15.1782 780.39 -13.7565 778.195C-12.2699 775.9 -10.7747 773.59 -9.27161 771.268C6.57119 746.79 23.2852 720.966 40.0632 697.699L39.6917 697.431L40.0633 697.699C49.6921 684.344 58.5187 673.545 69.2141 667.71C79.8639 661.901 92.4352 660.981 109.646 667.572C140.21 679.279 174.173 695.863 203.5 710.997L204.405 711.465Z" stroke="white" stroke-opacity="0.05"/>
<path d="M331.738 203.762C345.996 216.583 349.805 235.769 340.212 252.774C324.318 280.951 258.852 311.394 229.21 326.013C204.509 338.19 170.3 356.583 144.955 364.831C105.528 377.66 97.0252 349.801 84.3951 320.697C74.4977 297.9 64.933 274.778 55.9985 251.606C44.9542 222.969 24.4939 171.747 37.4851 142.756C58.1224 96.6956 132.933 126.926 167.886 138.112C199.305 148.165 230.449 158.367 261.252 169.921C283.171 178.14 314.223 188.016 331.745 203.769L331.738 203.762Z" fill="url(#paint2_linear_22_4479)"/>
<path d="M331.411 204.14L331.411 204.14C345.499 216.814 349.246 235.742 339.777 252.528C335.85 259.49 328.837 266.628 320.02 273.658C311.209 280.683 300.632 287.573 289.613 294.047C270.736 305.138 250.599 314.987 235.89 322.181C233.427 323.385 231.116 324.516 228.989 325.565C224.035 328.007 218.703 330.697 213.14 333.503C190.928 344.708 165.033 357.772 144.8 364.356C134.996 367.546 127.161 368.191 120.73 366.949C114.307 365.709 109.243 362.579 104.987 358.143C100.723 353.698 97.2709 347.941 94.0904 341.455C91.7929 336.77 89.6483 331.728 87.4425 326.542C86.5927 324.545 85.7339 322.526 84.8538 320.498L84.3951 320.697L84.8537 320.497C74.9586 297.706 65.3967 274.59 56.465 251.426L55.9985 251.606L56.465 251.426C56.1668 250.653 55.8618 249.863 55.5508 249.058C50.0999 234.948 42.8144 216.089 38.2143 197.195C33.3455 177.198 31.5196 157.291 37.9414 142.96L37.9414 142.96C43.038 131.585 51.467 124.929 61.8087 121.5C72.1705 118.065 84.4647 117.868 97.2554 119.463C118.268 122.082 140.481 129.515 157.452 135.194C161.15 136.431 164.6 137.585 167.733 138.588L167.886 138.112L167.733 138.588C199.152 148.641 230.285 158.839 261.077 170.389L261.249 169.93L261.077 170.389C264.025 171.494 267.134 172.628 270.351 173.802C279.114 176.998 288.676 180.486 297.95 184.479C310.628 189.938 322.711 196.32 331.411 204.14Z" stroke="white" stroke-opacity="0.05"/>
<path d="M1549.52 934.635C1582.72 964.787 1564.48 994.89 1532.74 1014.61C1505.81 1031.34 1471.3 1044.15 1441.67 1055.8C1398.8 1072.67 1349.37 1093.13 1305.37 1105.52C1289.9 1109.87 1264.6 1116.08 1248.99 1113.17C1244.16 1112.27 1236.15 1106.71 1233.31 1102.68C1222.26 1087.06 1231.16 1063.02 1238.44 1047.07C1250.02 1021.69 1267.6 995.435 1282.82 971.923C1299.98 945.445 1318.28 916.893 1336.66 891.406C1355.91 864.709 1372.2 847.845 1406.82 861.105C1437.42 872.822 1471.4 889.417 1500.73 904.553C1516.13 912.504 1536.78 923.052 1549.52 934.628V934.635Z" fill="url(#paint3_linear_22_4479)"/>
<path d="M1501.41 905.465C1516.66 913.334 1536.57 923.61 1549.02 934.849V934.856L1549.19 935.005C1557.44 942.501 1562.47 949.967 1564.89 957.237C1567.32 964.501 1567.16 971.598 1565.01 978.382C1560.68 991.975 1548.3 1004.35 1532.47 1014.18L1532.7 1014.54L1532.47 1014.18C1508.23 1029.24 1477.82 1041.13 1450.33 1051.87C1447.34 1053.04 1444.39 1054.2 1441.49 1055.34L1441.67 1055.8L1441.49 1055.34C1435.34 1057.76 1429.05 1060.25 1422.67 1062.78C1384.54 1077.91 1342.89 1094.43 1305.23 1105.04C1297.5 1107.21 1287.33 1109.85 1277.15 1111.57C1266.95 1113.3 1256.8 1114.12 1249.08 1112.68L1248.99 1113.15L1249.08 1112.68C1246.77 1112.25 1243.63 1110.68 1240.69 1108.68C1237.75 1106.69 1235.09 1104.33 1233.72 1102.39L1233.72 1102.39C1228.31 1094.74 1227.75 1084.98 1229.5 1075.09C1231.24 1065.2 1235.26 1055.25 1238.9 1047.28C1249.38 1024.31 1264.78 1000.61 1278.92 978.848C1280.38 976.609 1281.82 974.39 1283.24 972.195C1284.73 969.9 1286.23 967.59 1287.73 965.268C1303.57 940.79 1320.29 914.966 1337.06 891.699L1336.69 891.431L1337.06 891.699C1346.69 878.344 1355.52 867.545 1366.21 861.71C1376.86 855.901 1389.44 854.981 1406.65 861.572C1437.21 873.279 1471.17 889.863 1500.5 904.997L1501.41 905.465Z" stroke="white" stroke-opacity="0.05"/>
<path d="M1628.74 397.762C1643 410.583 1646.81 429.769 1637.21 446.774C1621.32 474.951 1555.85 505.394 1526.21 520.013C1501.51 532.19 1467.3 550.583 1441.95 558.831C1402.53 571.66 1394.03 543.801 1381.4 514.697C1371.5 491.9 1361.93 468.778 1353 445.606C1341.95 416.969 1321.49 365.747 1334.49 336.756C1355.12 290.696 1429.93 320.926 1464.89 332.112C1496.31 342.165 1527.45 352.367 1558.25 363.921C1580.17 372.14 1611.22 382.016 1628.74 397.769L1628.74 397.762Z" fill="url(#paint4_linear_22_4479)"/>
<path d="M1628.41 398.14L1628.41 398.14C1642.5 410.814 1646.25 429.742 1636.78 446.528C1632.85 453.49 1625.84 460.628 1617.02 467.658C1608.21 474.683 1597.63 481.573 1586.61 488.047C1567.74 499.138 1547.6 508.987 1532.89 516.181C1530.43 517.386 1528.12 518.516 1525.99 519.565C1521.03 522.007 1515.7 524.697 1510.14 527.503C1487.93 538.708 1462.03 551.772 1441.8 558.356C1432 561.546 1424.16 562.191 1417.73 560.949C1411.31 559.709 1406.24 556.579 1401.99 552.143C1397.72 547.698 1394.27 541.941 1391.09 535.455C1388.79 530.77 1386.65 525.728 1384.44 520.542C1383.59 518.545 1382.73 516.526 1381.85 514.497L1381.4 514.697L1381.85 514.497C1371.96 491.706 1362.4 468.59 1353.47 445.426L1353.08 445.574L1353.47 445.426C1353.17 444.653 1352.86 443.863 1352.55 443.058C1347.1 428.948 1339.81 410.089 1335.21 391.195C1330.35 371.198 1328.52 351.291 1334.94 336.96L1334.94 336.96C1340.04 325.585 1348.47 318.929 1358.81 315.5C1369.17 312.065 1381.46 311.868 1394.26 313.463C1415.27 316.082 1437.48 323.515 1454.45 329.193C1458.15 330.431 1461.6 331.585 1464.73 332.588L1464.89 332.112L1464.73 332.588C1496.15 342.641 1527.29 352.839 1558.08 364.389L1558.22 364.011L1558.08 364.389C1561.02 365.494 1564.13 366.628 1567.35 367.802C1576.11 370.998 1585.68 374.486 1594.95 378.479C1607.63 383.938 1619.71 390.32 1628.41 398.14Z" stroke="white" stroke-opacity="0.05"/>
<path d="M1221.21 804.63C1233.05 821.091 1222.58 861.969 1218.58 881.523C1213.23 907.682 1207.3 934.188 1201.04 960.086C1194.14 988.624 1181.81 1044.11 1160.07 1063.48C1122.04 1097.36 1089.6 1031.67 1074.68 1005.3C1050.45 962.465 1026.93 917.049 1005.79 871.873C993.138 844.829 973.088 802.804 994.249 775.278C1015.71 747.356 1068.78 760.234 1098.36 765.791C1127.25 771.221 1165.73 777.82 1193.16 787.073C1203.48 790.556 1214.67 795.54 1221.21 804.623V804.63Z" fill="url(#paint5_linear_22_4479)"/>
<path d="M1193 787.546C1203.26 791.01 1214.26 795.922 1220.71 804.785V804.791L1220.8 804.922C1223.69 808.935 1225.24 814.475 1225.86 820.887C1226.47 827.292 1226.15 834.518 1225.34 841.861C1224.03 853.612 1221.46 865.606 1219.46 874.951C1218.96 877.289 1218.49 879.461 1218.09 881.423C1212.74 907.576 1206.81 934.076 1200.55 959.968C1200.18 961.499 1199.8 963.107 1199.4 964.782C1196.05 978.732 1191.59 997.355 1185.65 1015.06C1182.32 1024.98 1178.53 1034.6 1174.23 1042.94C1169.92 1051.29 1165.11 1058.33 1159.74 1063.11C1150.33 1071.49 1141.32 1073.67 1132.88 1071.9C1124.41 1070.13 1116.4 1064.35 1109.07 1056.64C1096.34 1043.25 1085.76 1024.21 1078.31 1010.77C1077.17 1008.72 1076.11 1006.8 1075.12 1005.06C1050.89 962.229 1027.38 916.825 1006.24 871.661C1006.1 871.365 1005.96 871.068 1005.82 870.768C999.557 857.375 991.676 840.533 987.827 823.645C983.892 806.377 984.198 789.172 994.646 775.583L994.249 775.278L994.646 775.583C1005.23 761.821 1023.64 758.056 1043.25 758.48C1059.96 758.84 1077.41 762.236 1091.37 764.955C1093.78 765.424 1096.09 765.873 1098.27 766.283C1101.6 766.909 1105.06 767.55 1108.61 768.209C1135.89 773.271 1168.77 779.372 1193 787.546Z" stroke="white" stroke-opacity="0.05"/>
<path d="M1253.85 616.509C1242.88 635.922 1221.07 643.851 1200.94 650.23C1180.81 656.609 1157.29 663.051 1136.06 668.821C1109 676.177 1066.04 688.892 1038.78 687.519C987.75 684.956 1007.11 638.01 1023.56 610.06C1045.99 571.943 1077.16 535.256 1104.18 500.254C1124.65 473.726 1144.66 446.3 1166.46 420.523C1180.52 403.885 1212.77 365.061 1234.7 362.866C1269.2 359.411 1269.88 402.477 1270.45 426.845C1271.48 471.263 1267.76 522.442 1264.03 566.923C1262.84 581.217 1260.9 604.056 1253.85 616.516L1253.85 616.509Z" fill="url(#paint6_linear_22_4479)"/>
<path d="M1260.64 592.325C1259.18 601.088 1257.03 609.579 1253.74 615.693L1253.73 615.691L1253.41 616.263C1242.55 635.482 1220.94 643.367 1200.79 649.753C1180.67 656.128 1157.16 662.568 1135.93 668.339C1133.45 669.014 1130.83 669.735 1128.1 670.485C1115.97 673.823 1101.68 677.752 1087.38 680.955C1069.86 684.88 1052.36 687.702 1038.81 687.019L1038.78 687.519L1038.81 687.019C1026.12 686.382 1017.9 682.99 1012.92 677.915C1007.94 672.845 1006.11 666.015 1006.37 658.326C1006.88 642.913 1015.77 624.284 1023.99 610.313C1041.41 580.709 1064.1 551.974 1086.05 524.19C1092.33 516.234 1098.55 508.357 1104.57 500.56C1110.19 493.278 1115.77 485.931 1121.37 478.571C1136.16 459.104 1151.03 439.543 1166.84 420.846C1167.21 420.406 1167.59 419.952 1167.99 419.483C1175.1 411.066 1186.1 398.043 1197.97 386.639C1204.24 380.62 1210.75 375.063 1217.04 370.877C1223.34 366.686 1229.38 363.9 1234.75 363.363C1243.26 362.511 1249.64 364.529 1254.45 368.369C1259.27 372.22 1262.56 377.943 1264.82 384.583C1269.27 397.652 1269.65 414.087 1269.93 426.236L1269.95 426.856C1270.97 471.245 1267.26 522.399 1263.54 566.882C1262.94 574.031 1262.15 583.294 1260.64 592.325Z" stroke="white" stroke-opacity="0.05"/>
<g filter="url(#filter0_f_22_4479)">
<rect x="-839" y="-276" width="554" height="554" fill="#FFF9A4" fill-opacity="0.2"/>
</g>
<g filter="url(#filter1_f_22_4479)">
<rect x="-74" y="-269" width="554" height="554" fill="#A4FFF4" fill-opacity="0.15"/>
</g>
<g filter="url(#filter2_f_22_4479)">
<rect x="-512" y="-284" width="554" height="554" fill="#C5A4FF" fill-opacity="0.15"/>
</g>
<g filter="url(#filter3_f_22_4479)">
<rect x="1245" y="-361" width="554" height="554" fill="#C5A4FF" fill-opacity="0.2"/>
</g>
<g filter="url(#filter4_f_22_4479)">
<rect x="1572" y="-369" width="554" height="554" fill="#C5A4FF" fill-opacity="0.15"/>
</g>
<g filter="url(#filter5_f_22_4479)">
<rect x="932" y="-330" width="554" height="554" fill="#C5A4FF" fill-opacity="0.15"/>
</g>
</g>
<defs>
<filter id="filter0_f_22_4479" x="-1139" y="-576" width="1154" height="1154" filterUnits="userSpaceOnUse" color-interpolation-filters="sRGB">
<feFlood flood-opacity="0" result="BackgroundImageFix"/>
<feBlend mode="normal" in="SourceGraphic" in2="BackgroundImageFix" result="shape"/>
<feGaussianBlur stdDeviation="150" result="effect1_foregroundBlur_22_4479"/>
</filter>
<filter id="filter1_f_22_4479" x="-374" y="-569" width="1154" height="1154" filterUnits="userSpaceOnUse" color-interpolation-filters="sRGB">
<feFlood flood-opacity="0" result="BackgroundImageFix"/>
<feBlend mode="normal" in="SourceGraphic" in2="BackgroundImageFix" result="shape"/>
<feGaussianBlur stdDeviation="150" result="effect1_foregroundBlur_22_4479"/>
</filter>
<filter id="filter2_f_22_4479" x="-812" y="-584" width="1154" height="1154" filterUnits="userSpaceOnUse" color-interpolation-filters="sRGB">
<feFlood flood-opacity="0" result="BackgroundImageFix"/>
<feBlend mode="normal" in="SourceGraphic" in2="BackgroundImageFix" result="shape"/>
<feGaussianBlur stdDeviation="150" result="effect1_foregroundBlur_22_4479"/>
</filter>
<filter id="filter3_f_22_4479" x="945" y="-661" width="1154" height="1154" filterUnits="userSpaceOnUse" color-interpolation-filters="sRGB">
<feFlood flood-opacity="0" result="BackgroundImageFix"/>
<feBlend mode="normal" in="SourceGraphic" in2="BackgroundImageFix" result="shape"/>
<feGaussianBlur stdDeviation="150" result="effect1_foregroundBlur_22_4479"/>
</filter>
<filter id="filter4_f_22_4479" x="1272" y="-669" width="1154" height="1154" filterUnits="userSpaceOnUse" color-interpolation-filters="sRGB">
<feFlood flood-opacity="0" result="BackgroundImageFix"/>
<feBlend mode="normal" in="SourceGraphic" in2="BackgroundImageFix" result="shape"/>
<feGaussianBlur stdDeviation="150" result="effect1_foregroundBlur_22_4479"/>
</filter>
<filter id="filter5_f_22_4479" x="632" y="-630" width="1154" height="1154" filterUnits="userSpaceOnUse" color-interpolation-filters="sRGB">
<feFlood flood-opacity="0" result="BackgroundImageFix"/>
<feBlend mode="normal" in="SourceGraphic" in2="BackgroundImageFix" result="shape"/>
<feGaussianBlur stdDeviation="150" result="effect1_foregroundBlur_22_4479"/>
</filter>
<linearGradient id="paint0_linear_22_4479" x1="300.478" y1="317.082" x2="300.478" y2="694.848" gradientUnits="userSpaceOnUse">
<stop stop-color="white" stop-opacity="0.05"/>
<stop offset="1" stop-color="white" stop-opacity="0"/>
</linearGradient>
<linearGradient id="paint1_linear_22_4479" x1="100.641" y1="662.483" x2="100.641" y2="919.919" gradientUnits="userSpaceOnUse">
<stop stop-color="white" stop-opacity="0.05"/>
<stop offset="1" stop-color="white" stop-opacity="0"/>
</linearGradient>
<linearGradient id="paint2_linear_22_4479" x1="189.407" y1="118" x2="189.407" y2="368.04" gradientUnits="userSpaceOnUse">
<stop stop-color="white" stop-opacity="0.05"/>
<stop offset="1" stop-color="white" stop-opacity="0"/>
</linearGradient>
<linearGradient id="paint3_linear_22_4479" x1="1397.64" y1="856.483" x2="1397.64" y2="1113.92" gradientUnits="userSpaceOnUse">
<stop stop-color="white" stop-opacity="0.05"/>
<stop offset="1" stop-color="white" stop-opacity="0"/>
</linearGradient>
<linearGradient id="paint4_linear_22_4479" x1="1486.41" y1="312" x2="1486.41" y2="562.04" gradientUnits="userSpaceOnUse">
<stop stop-color="white" stop-opacity="0.05"/>
<stop offset="1" stop-color="white" stop-opacity="0"/>
</linearGradient>
<linearGradient id="paint5_linear_22_4479" x1="1105.84" y1="757.948" x2="1105.84" y2="1072.97" gradientUnits="userSpaceOnUse">
<stop stop-color="white" stop-opacity="0.05"/>
<stop offset="1" stop-color="white" stop-opacity="0"/>
</linearGradient>
<linearGradient id="paint6_linear_22_4479" x1="1138.23" y1="362.67" x2="1138.23" y2="687.621" gradientUnits="userSpaceOnUse">
<stop stop-color="white" stop-opacity="0.05"/>
<stop offset="1" stop-color="white" stop-opacity="0"/>
</linearGradient>
<clipPath id="clip0_22_4479">
<rect width="1440" height="1024" fill="white"/>
</clipPath>
</defs>
</svg>
