<svg width="21" height="20" viewBox="0 0 21 20" fill="none" xmlns="http://www.w3.org/2000/svg">
<path d="M10.5001 18.3334C15.1025 18.3334 18.8334 14.6024 18.8334 10C18.8334 5.39765 15.1025 1.66669 10.5001 1.66669C5.89771 1.66669 2.16675 5.39765 2.16675 10C2.16675 14.6024 5.89771 18.3334 10.5001 18.3334Z" stroke="white" stroke-width="1.5" stroke-linecap="round" stroke-linejoin="round"/>
<path d="M8.41675 7.47113C8.41675 7.07339 8.41675 6.87452 8.49987 6.7635C8.5723 6.66675 8.68318 6.60622 8.80373 6.59761C8.94207 6.58773 9.10935 6.69527 9.44392 6.91035L13.3777 9.43923C13.6681 9.62587 13.8132 9.71919 13.8634 9.83785C13.9072 9.94152 13.9072 10.0585 13.8634 10.1622C13.8132 10.2809 13.6681 10.3742 13.3777 10.5608L9.44392 13.0897C9.10935 13.3048 8.94207 13.4123 8.80373 13.4024C8.68318 13.3938 8.5723 13.3333 8.49987 13.2365C8.41675 13.1255 8.41675 12.9266 8.41675 12.5289V7.47113Z" stroke="white" stroke-width="1.5" stroke-linecap="round" stroke-linejoin="round"/>
</svg>
