<svg width="22" height="24" viewBox="0 0 22 24" fill="none" xmlns="http://www.w3.org/2000/svg">
<path d="M11.3906 14.913C10.5995 14.913 9.82614 14.6784 9.16835 14.2389C8.51055 13.7994 7.99786 13.1747 7.69511 12.4438C7.39236 11.7129 7.31314 10.9086 7.46749 10.1327C7.62183 9.35681 8.00279 8.64408 8.5622 8.08467C9.12161 7.52526 9.83434 7.14429 10.6103 6.98995C11.3862 6.83561 12.1905 6.91482 12.9214 7.21758C13.6523 7.52033 14.277 8.03302 14.7165 8.69081C15.156 9.34861 15.3906 10.1219 15.3906 10.913C15.3906 11.9739 14.9692 12.9913 14.2191 13.7415C13.4689 14.4916 12.4515 14.913 11.3906 14.913ZM11.3906 8.51309C10.916 8.51309 10.4519 8.65385 10.0573 8.91757C9.66258 9.18128 9.35497 9.55611 9.17332 9.99465C8.99167 10.4331 8.94414 10.9157 9.03674 11.3813C9.12935 11.8468 9.35792 12.2745 9.69357 12.6101C10.0292 12.9457 10.4569 13.1743 10.9224 13.2669C11.388 13.3595 11.8705 13.312 12.3091 13.1304C12.7476 12.9487 13.1224 12.6411 13.3862 12.2464C13.6499 11.8517 13.7906 11.3877 13.7906 10.913C13.7906 10.2765 13.5378 9.66612 13.0877 9.21604C12.6376 8.76595 12.0271 8.51309 11.3906 8.51309Z" fill="#C2C2C2"/>
<path d="M17.6648 21.9131C17.4731 21.9098 17.2899 21.8082 17.1544 21.6299C17.0188 21.4516 16.9415 21.2107 16.939 20.9586C16.939 18.4768 15.9132 16.8222 10.8906 16.8222C5.86804 16.8222 4.84224 18.4768 4.84224 20.9586C4.84224 21.2118 4.76578 21.4546 4.62966 21.6336C4.49355 21.8126 4.30893 21.9131 4.11643 21.9131C3.92394 21.9131 3.73932 21.8126 3.60321 21.6336C3.46709 21.4546 3.39063 21.2118 3.39062 20.9586C3.39062 14.9131 8.64546 14.9131 10.8906 14.9131C13.1358 14.9131 18.3906 14.9131 18.3906 20.9586C18.3881 21.2107 18.3108 21.4516 18.1753 21.6299C18.0397 21.8082 17.8565 21.9098 17.6648 21.9131Z" fill="#C2C2C2"/>
<path d="M12.3246 3.34196C11.8242 2.71414 10.8701 2.71414 10.3697 3.34196L10.2515 3.49018C9.72975 4.14478 8.93823 4.52607 8.10112 4.52607H2.39064C1.70028 4.52607 1.14062 5.08571 1.14062 5.77607V21.4124C1.14062 22.1028 1.70028 22.6624 2.39062 22.6624H19.3906C20.081 22.6624 20.6406 22.1028 20.6406 21.4124V5.77607C20.6406 5.08571 20.081 4.52607 19.3906 4.52607H14.5932C13.7561 4.52607 12.9645 4.14478 12.4428 3.49018L12.3246 3.34196ZM12.3246 3.34196L12.9111 2.87447" stroke="#C2C2C2" stroke-width="1.5"/>
</svg>
