<svg width="24" height="24" viewBox="0 0 24 24" fill="none" xmlns="http://www.w3.org/2000/svg">
<path fill-rule="evenodd" clip-rule="evenodd" d="M17.8906 2.46308H5.89062C4.12331 2.46308 2.69062 3.89577 2.69062 5.66308V17.663C2.69062 19.4304 4.12331 20.863 5.89063 20.863H17.8906C19.6579 20.863 21.0906 19.4304 21.0906 17.663V5.66308C21.0906 3.89577 19.6579 2.46308 17.8906 2.46308ZM5.89062 0.663086C3.1292 0.663086 0.890625 2.90166 0.890625 5.66308V17.663C0.890625 20.4245 3.1292 22.663 5.89063 22.663H17.8906C20.652 22.663 22.8906 20.4245 22.8906 17.663V5.66308C22.8906 2.90166 20.652 0.663086 17.8906 0.663086H5.89062Z" fill="#C2C2C2"/>
<path d="M1.77051 6.80273H22.0105" stroke="#C2C2C2" stroke-width="1.8"/>
<path d="M9.35621 6.79387L5.5564 1.36719" stroke="#C2C2C2" stroke-width="1.8"/>
<path d="M16.3383 6.80438L12.4805 1.29492" stroke="#C2C2C2" stroke-width="1.8"/>
<path d="M15.0706 13.637C15.7372 14.0219 15.7372 14.9842 15.0706 15.3691L10.8106 17.8286C10.1439 18.2135 9.31055 17.7324 9.31055 16.9626V12.0435C9.31055 11.2737 10.1439 10.7926 10.8106 11.1775L15.0706 13.637Z" fill="#C2C2C2"/>
</svg>
