<svg width="350" height="259" viewBox="0 0 350 259" fill="none" xmlns="http://www.w3.org/2000/svg">
<g filter="url(#filter0_dddddd_1_172)">
<path d="M22 -10H327V195C327 203.837 319.837 211 311 211H38C29.1634 211 22 203.837 22 195V-10Z" fill="white"/>
<path d="M47.8651 14.0455L50.4964 21.7457H50.6026L53.234 14.0455H54.7759L51.3736 23.5H49.7255L46.3232 14.0455H47.8651ZM60.5223 20.5593V16.4091H61.9072V23.5H60.55V22.272H60.4761C60.313 22.6506 60.0514 22.966 59.6913 23.2184C59.3343 23.4677 58.8896 23.5923 58.3572 23.5923C57.9017 23.5923 57.4985 23.4923 57.1476 23.2923C56.7999 23.0891 56.526 22.7891 56.3259 22.392C56.1289 21.995 56.0305 21.5041 56.0305 20.9194V16.4091H57.4108V20.7532C57.4108 21.2364 57.5447 21.6211 57.8124 21.9073C58.0802 22.1935 58.4279 22.3366 58.8557 22.3366C59.1143 22.3366 59.3712 22.272 59.6267 22.1428C59.8852 22.0135 60.0991 21.8181 60.2684 21.5565C60.4407 21.2949 60.5254 20.9625 60.5223 20.5593ZM66.818 23.6431C66.1194 23.6431 65.5177 23.4938 65.013 23.1953C64.5113 22.8937 64.1235 22.4705 63.8496 21.9258C63.5788 21.378 63.4434 20.7363 63.4434 20.0007C63.4434 19.2744 63.5788 18.6342 63.8496 18.0803C64.1235 17.5263 64.5051 17.0939 64.9945 16.783C65.4869 16.4722 66.0624 16.3168 66.7211 16.3168C67.1212 16.3168 67.5089 16.3829 67.8844 16.5153C68.2599 16.6476 68.5969 16.8554 68.8954 17.1385C69.194 17.4216 69.4294 17.7894 69.6017 18.2418C69.7741 18.6912 69.8603 19.2375 69.8603 19.8807V20.37H64.2235V19.3359H68.5076C68.5076 18.9728 68.4338 18.6512 68.286 18.3711C68.1383 18.0879 67.9306 17.8648 67.6628 17.7017C67.3981 17.5386 67.0873 17.457 66.7303 17.457C66.3425 17.457 66.004 17.5524 65.7147 17.7433C65.4284 17.931 65.2069 18.1772 65.0499 18.4819C64.896 18.7835 64.8191 19.1113 64.8191 19.4652V20.2731C64.8191 20.747 64.9022 21.1502 65.0684 21.4826C65.2376 21.815 65.4731 22.0689 65.7747 22.2443C66.0763 22.4167 66.4287 22.5028 66.8319 22.5028C67.0935 22.5028 67.332 22.4659 67.5474 22.392C67.7628 22.3151 67.949 22.2012 68.106 22.0504C68.263 21.8996 68.383 21.7134 68.4661 21.4918L69.7725 21.7273C69.6679 22.112 69.4802 22.449 69.2093 22.7383C68.9416 23.0245 68.6046 23.2476 68.1983 23.4077C67.7952 23.5646 67.335 23.6431 66.818 23.6431ZM77.4867 23.6385C76.9142 23.6385 76.4033 23.4923 75.954 23.1999C75.5078 22.9045 75.1569 22.4844 74.9015 21.9396C74.6491 21.3918 74.5229 20.7347 74.5229 19.9684C74.5229 19.2021 74.6506 18.5465 74.9061 18.0018C75.1646 17.457 75.5185 17.04 75.9679 16.7507C76.4172 16.4614 76.9266 16.3168 77.4959 16.3168C77.936 16.3168 78.29 16.3906 78.5577 16.5384C78.8285 16.683 79.0378 16.8523 79.1855 17.0462C79.3364 17.2401 79.4533 17.4109 79.5364 17.5586H79.6195V14.0455H80.9998V23.5H79.6518V22.3967H79.5364C79.4533 22.5475 79.3333 22.7198 79.1763 22.9137C79.0224 23.1076 78.8101 23.2769 78.5392 23.4215C78.2684 23.5662 77.9176 23.6385 77.4867 23.6385ZM77.7914 22.4613C78.1884 22.4613 78.5239 22.3567 78.7978 22.1474C79.0748 21.935 79.284 21.6411 79.4256 21.2656C79.5703 20.8902 79.6426 20.4531 79.6426 19.9545C79.6426 19.4621 79.5718 19.0312 79.4302 18.6619C79.2886 18.2926 79.0809 18.0049 78.807 17.7987C78.5331 17.5924 78.1945 17.4893 77.7914 17.4893C77.3759 17.4893 77.0297 17.5971 76.7527 17.8125C76.4757 18.0279 76.2664 18.3219 76.1248 18.6942C75.9863 19.0666 75.9171 19.4867 75.9171 19.9545C75.9171 20.4285 75.9879 20.8548 76.1294 21.2333C76.271 21.6119 76.4803 21.9119 76.7573 22.1335C77.0373 22.352 77.382 22.4613 77.7914 22.4613ZM86.026 23.6431C85.3274 23.6431 84.7257 23.4938 84.221 23.1953C83.7193 22.8937 83.3315 22.4705 83.0576 21.9258C82.7868 21.378 82.6514 20.7363 82.6514 20.0007C82.6514 19.2744 82.7868 18.6342 83.0576 18.0803C83.3315 17.5263 83.7132 17.0939 84.2025 16.783C84.6949 16.4722 85.2704 16.3168 85.9291 16.3168C86.3292 16.3168 86.7169 16.3829 87.0924 16.5153C87.4679 16.6476 87.8049 16.8554 88.1034 17.1385C88.402 17.4216 88.6374 17.7894 88.8097 18.2418C88.9821 18.6912 89.0683 19.2375 89.0683 19.8807V20.37H83.4316V19.3359H87.7156C87.7156 18.9728 87.6418 18.6512 87.4941 18.3711C87.3463 18.0879 87.1386 17.8648 86.8708 17.7017C86.6061 17.5386 86.2953 17.457 85.9383 17.457C85.5505 17.457 85.212 17.5524 84.9227 17.7433C84.6365 17.931 84.4149 18.1772 84.2579 18.4819C84.104 18.7835 84.0271 19.1113 84.0271 19.4652V20.2731C84.0271 20.747 84.1102 21.1502 84.2764 21.4826C84.4456 21.815 84.6811 22.0689 84.9827 22.2443C85.2843 22.4167 85.6367 22.5028 86.0399 22.5028C86.3015 22.5028 86.54 22.4659 86.7554 22.392C86.9709 22.3151 87.157 22.2012 87.314 22.0504C87.471 21.8996 87.591 21.7134 87.6741 21.4918L88.9806 21.7273C88.8759 22.112 88.6882 22.449 88.4173 22.7383C88.1496 23.0245 87.8126 23.2476 87.4063 23.4077C87.0032 23.5646 86.5431 23.6431 86.026 23.6431ZM99.3076 16.5291C99.2584 16.0921 99.0552 15.7536 98.6982 15.5135C98.3412 15.2704 97.8919 15.1488 97.3502 15.1488C96.9624 15.1488 96.627 15.2103 96.3438 15.3335C96.0607 15.4535 95.8406 15.6197 95.6837 15.832C95.5298 16.0413 95.4529 16.2798 95.4529 16.5476C95.4529 16.7723 95.5052 16.9661 95.6098 17.1293C95.7175 17.2924 95.8576 17.4293 96.0299 17.5401C96.2053 17.6478 96.3931 17.7386 96.5931 17.8125C96.7932 17.8833 96.9855 17.9418 97.1702 17.9879L98.0935 18.228C98.3951 18.3018 98.7044 18.4019 99.0214 18.5281C99.3384 18.6542 99.6323 18.8204 99.9031 19.0266C100.174 19.2328 100.392 19.4883 100.559 19.793C100.728 20.0977 100.813 20.4624 100.813 20.8871C100.813 21.4226 100.674 21.8981 100.397 22.3136C100.123 22.729 99.7246 23.0568 99.2014 23.2969C98.6813 23.5369 98.0519 23.657 97.3133 23.657C96.6054 23.657 95.993 23.5446 95.4759 23.32C94.9589 23.0953 94.5542 22.7768 94.2618 22.3643C93.9694 21.9489 93.8079 21.4564 93.7771 20.8871H95.2082C95.2359 21.2287 95.3467 21.5134 95.5406 21.7411C95.7375 21.9658 95.9884 22.1335 96.2931 22.2443C96.6008 22.352 96.9378 22.4059 97.3041 22.4059C97.7072 22.4059 98.0658 22.3428 98.3797 22.2166C98.6967 22.0874 98.946 21.9089 99.1276 21.6811C99.3092 21.4503 99.3999 21.181 99.3999 20.8732C99.3999 20.5932 99.3199 20.3639 99.1599 20.1854C99.0029 20.0069 98.789 19.8591 98.5182 19.7422C98.2504 19.6252 97.9473 19.5221 97.6088 19.4329L96.4916 19.1282C95.7345 18.922 95.1343 18.6188 94.6911 18.2188C94.251 17.8187 94.031 17.2893 94.031 16.6307C94.031 16.0859 94.1787 15.6104 94.4742 15.2042C94.7696 14.7979 95.1697 14.4825 95.6744 14.2578C96.1792 14.0301 96.7486 13.9162 97.3825 13.9162C98.0227 13.9162 98.5874 14.0285 99.0768 14.2532C99.5692 14.4779 99.957 14.7872 100.24 15.1811C100.523 15.572 100.671 16.0213 100.683 16.5291H99.3076ZM105.716 16.4091V17.517H101.843V16.4091H105.716ZM102.882 14.7102H104.262V21.418C104.262 21.6857 104.302 21.8873 104.382 22.0227C104.462 22.1551 104.565 22.2459 104.692 22.2951C104.821 22.3413 104.961 22.3643 105.112 22.3643C105.222 22.3643 105.319 22.3567 105.403 22.3413C105.486 22.3259 105.55 22.3136 105.596 22.3043L105.846 23.4446C105.766 23.4754 105.652 23.5062 105.504 23.5369C105.356 23.5708 105.172 23.5893 104.95 23.5923C104.587 23.5985 104.248 23.5339 103.934 23.3984C103.621 23.263 103.367 23.0537 103.173 22.7706C102.979 22.4875 102.882 22.132 102.882 21.7042V14.7102ZM110.154 23.6431C109.489 23.6431 108.909 23.4908 108.414 23.1861C107.918 22.8814 107.533 22.4551 107.259 21.9073C106.986 21.3595 106.849 20.7193 106.849 19.9869C106.849 19.2513 106.986 18.6081 107.259 18.0572C107.533 17.5063 107.918 17.0785 108.414 16.7738C108.909 16.4691 109.489 16.3168 110.154 16.3168C110.819 16.3168 111.399 16.4691 111.894 16.7738C112.39 17.0785 112.775 17.5063 113.049 18.0572C113.322 18.6081 113.459 19.2513 113.459 19.9869C113.459 20.7193 113.322 21.3595 113.049 21.9073C112.775 22.4551 112.39 22.8814 111.894 23.1861C111.399 23.4908 110.819 23.6431 110.154 23.6431ZM110.159 22.4844C110.59 22.4844 110.947 22.3705 111.23 22.1428C111.513 21.915 111.722 21.6119 111.858 21.2333C111.996 20.8548 112.065 20.4377 112.065 19.9822C112.065 19.5298 111.996 19.1143 111.858 18.7358C111.722 18.3542 111.513 18.0479 111.23 17.8171C110.947 17.5863 110.59 17.4709 110.159 17.4709C109.725 17.4709 109.365 17.5863 109.078 17.8171C108.795 18.0479 108.584 18.3542 108.446 18.7358C108.311 19.1143 108.243 19.5298 108.243 19.9822C108.243 20.4377 108.311 20.8548 108.446 21.2333C108.584 21.6119 108.795 21.915 109.078 22.1428C109.365 22.3705 109.725 22.4844 110.159 22.4844ZM115 23.5V16.4091H116.334V17.5355H116.408C116.537 17.1539 116.765 16.8538 117.091 16.6353C117.421 16.4137 117.793 16.3029 118.209 16.3029C118.295 16.3029 118.396 16.306 118.513 16.3121C118.633 16.3183 118.727 16.326 118.795 16.3352V17.6555C118.74 17.6402 118.641 17.6232 118.499 17.6048C118.358 17.5832 118.216 17.5724 118.075 17.5724C117.749 17.5724 117.458 17.6417 117.202 17.7802C116.95 17.9156 116.75 18.1049 116.602 18.348C116.454 18.5881 116.381 18.862 116.381 19.1697V23.5H115ZM119.989 23.5V16.4091H121.37V23.5H119.989ZM120.687 15.315C120.446 15.315 120.24 15.235 120.068 15.0749C119.899 14.9118 119.814 14.7179 119.814 14.4933C119.814 14.2655 119.899 14.0716 120.068 13.9116C120.24 13.7485 120.446 13.6669 120.687 13.6669C120.927 13.6669 121.131 13.7485 121.301 13.9116C121.473 14.0716 121.559 14.2655 121.559 14.4933C121.559 14.7179 121.473 14.9118 121.301 15.0749C121.131 15.235 120.927 15.315 120.687 15.315ZM126.283 23.6431C125.584 23.6431 124.983 23.4938 124.478 23.1953C123.976 22.8937 123.588 22.4705 123.314 21.9258C123.044 21.378 122.908 20.7363 122.908 20.0007C122.908 19.2744 123.044 18.6342 123.314 18.0803C123.588 17.5263 123.97 17.0939 124.459 16.783C124.952 16.4722 125.527 16.3168 126.186 16.3168C126.586 16.3168 126.974 16.3829 127.349 16.5153C127.725 16.6476 128.062 16.8554 128.36 17.1385C128.659 17.4216 128.894 17.7894 129.067 18.2418C129.239 18.6912 129.325 19.2375 129.325 19.8807V20.37H123.688V19.3359H127.972C127.972 18.9728 127.899 18.6512 127.751 18.3711C127.603 18.0879 127.395 17.8648 127.128 17.7017C126.863 17.5386 126.552 17.457 126.195 17.457C125.807 17.457 125.469 17.5524 125.18 17.7433C124.893 17.931 124.672 18.1772 124.515 18.4819C124.361 18.7835 124.284 19.1113 124.284 19.4652V20.2731C124.284 20.747 124.367 21.1502 124.533 21.4826C124.702 21.815 124.938 22.0689 125.24 22.2443C125.541 22.4167 125.894 22.5028 126.297 22.5028C126.558 22.5028 126.797 22.4659 127.012 22.392C127.228 22.3151 127.414 22.2012 127.571 22.0504C127.728 21.8996 127.848 21.7134 127.931 21.4918L129.237 21.7273C129.133 22.112 128.945 22.449 128.674 22.7383C128.406 23.0245 128.069 23.2476 127.663 23.4077C127.26 23.5646 126.8 23.6431 126.283 23.6431ZM136.17 18.1403L134.919 18.3619C134.867 18.2018 134.784 18.0495 134.67 17.9048C134.559 17.7602 134.408 17.6417 134.217 17.5494C134.027 17.457 133.788 17.4109 133.502 17.4109C133.111 17.4109 132.785 17.4986 132.523 17.674C132.262 17.8464 132.131 18.0695 132.131 18.3434C132.131 18.5804 132.218 18.7712 132.394 18.9158C132.569 19.0605 132.852 19.179 133.243 19.2713L134.37 19.5298C135.022 19.6806 135.508 19.913 135.829 20.2269C136.149 20.5408 136.309 20.9486 136.309 21.4503C136.309 21.875 136.186 22.2536 135.939 22.5859C135.696 22.9152 135.356 23.1738 134.919 23.3615C134.485 23.5492 133.982 23.6431 133.41 23.6431C132.616 23.6431 131.968 23.4738 131.466 23.1353C130.964 22.7937 130.657 22.3089 130.543 21.6811L131.877 21.478C131.96 21.8258 132.131 22.0889 132.389 22.2674C132.648 22.4428 132.985 22.5305 133.4 22.5305C133.853 22.5305 134.214 22.4367 134.485 22.2489C134.756 22.0581 134.891 21.8258 134.891 21.5518C134.891 21.3303 134.808 21.1441 134.642 20.9933C134.479 20.8424 134.228 20.7286 133.89 20.6516L132.689 20.3885C132.028 20.2377 131.538 19.9976 131.221 19.6683C130.907 19.339 130.75 18.922 130.75 18.4173C130.75 17.9987 130.867 17.6325 131.101 17.3185C131.335 17.0046 131.658 16.7599 132.071 16.5845C132.483 16.406 132.956 16.3168 133.488 16.3168C134.254 16.3168 134.858 16.483 135.298 16.8153C135.738 17.1446 136.029 17.5863 136.17 18.1403Z" fill="#696969"/>
<mask id="path-3-inside-1_1_172" fill="white">
<path d="M272 19C272 14.5817 275.582 11 280 11H295C299.418 11 303 14.5817 303 19C303 23.4183 299.418 27 295 27H280C275.582 27 272 23.4183 272 19Z"/>
</mask>
<path d="M272 19C272 14.5817 275.582 11 280 11H295C299.418 11 303 14.5817 303 19C303 23.4183 299.418 27 295 27H280C275.582 27 272 23.4183 272 19Z" fill="url(#paint0_linear_1_172)"/>
<path d="M280 12H295V10H280V12ZM295 26H280V28H295V26ZM280 26C276.134 26 273 22.866 273 19H271C271 23.9706 275.029 28 280 28V26ZM302 19C302 22.866 298.866 26 295 26V28C299.971 28 304 23.9706 304 19H302ZM295 12C298.866 12 302 15.134 302 19H304C304 14.0294 299.971 10 295 10V12ZM280 10C275.029 10 271 14.0294 271 19H273C273 15.134 276.134 12 280 12V10Z" fill="url(#paint1_linear_1_172)" mask="url(#path-3-inside-1_1_172)"/>
<circle cx="295" cy="19" r="6" fill="white"/>
<path d="M47.0387 55.5V46.0455H48.4652V54.272H52.7493V55.5H47.0387ZM54.2658 55.5V48.4091H55.6461V55.5H54.2658ZM54.9629 47.315C54.7228 47.315 54.5166 47.235 54.3443 47.0749C54.175 46.9118 54.0904 46.7179 54.0904 46.4933C54.0904 46.2655 54.175 46.0716 54.3443 45.9116C54.5166 45.7485 54.7228 45.6669 54.9629 45.6669C55.2029 45.6669 55.4076 45.7485 55.5769 45.9116C55.7492 46.0716 55.8354 46.2655 55.8354 46.4933C55.8354 46.7179 55.7492 46.9118 55.5769 47.0749C55.4076 47.235 55.2029 47.315 54.9629 47.315ZM58.7726 53.0948L58.7634 51.4098H59.0035L61.8287 48.4091H63.4814L60.2591 51.8253H60.0422L58.7726 53.0948ZM57.5031 55.5V46.0455H58.8834V55.5H57.5031ZM61.9811 55.5L59.442 52.13L60.393 51.1651L63.6753 55.5H61.9811ZM67.5036 55.6431C66.8049 55.6431 66.2032 55.4938 65.6985 55.1953C65.1969 54.8937 64.8091 54.4705 64.5352 53.9258C64.2643 53.378 64.1289 52.7363 64.1289 52.0007C64.1289 51.2744 64.2643 50.6342 64.5352 50.0803C64.8091 49.5263 65.1907 49.0939 65.68 48.783C66.1725 48.4722 66.748 48.3168 67.4066 48.3168C67.8067 48.3168 68.1945 48.3829 68.57 48.5153C68.9454 48.6476 69.2824 48.8554 69.581 49.1385C69.8795 49.4216 70.1149 49.7894 70.2873 50.2418C70.4596 50.6912 70.5458 51.2375 70.5458 51.8807V52.37H64.9091V51.3359H69.1932C69.1932 50.9728 69.1193 50.6512 68.9716 50.3711C68.8239 50.0879 68.6161 49.8648 68.3484 49.7017C68.0837 49.5386 67.7728 49.457 67.4158 49.457C67.0281 49.457 66.6895 49.5524 66.4002 49.7433C66.114 49.931 65.8924 50.1772 65.7354 50.4819C65.5816 50.7835 65.5046 51.1113 65.5046 51.4652V52.2731C65.5046 52.747 65.5877 53.1502 65.7539 53.4826C65.9232 53.815 66.1586 54.0689 66.4602 54.2443C66.7618 54.4167 67.1142 54.5028 67.5174 54.5028C67.779 54.5028 68.0175 54.4659 68.233 54.392C68.4484 54.3151 68.6346 54.2012 68.7915 54.0504C68.9485 53.8996 69.0685 53.7134 69.1516 53.4918L70.4581 53.7273C70.3535 54.112 70.1657 54.449 69.8949 54.7383C69.6271 55.0245 69.2901 55.2476 68.8839 55.4077C68.4807 55.5646 68.0206 55.6431 67.5036 55.6431ZM78.1722 55.6385C77.5998 55.6385 77.0889 55.4923 76.6396 55.1999C76.1933 54.9045 75.8424 54.4844 75.587 53.9396C75.3346 53.3918 75.2085 52.7347 75.2085 51.9684C75.2085 51.2021 75.3362 50.5465 75.5916 50.0018C75.8501 49.457 76.2041 49.04 76.6534 48.7507C77.1027 48.4614 77.6121 48.3168 78.1815 48.3168C78.6216 48.3168 78.9755 48.3906 79.2433 48.5384C79.5141 48.683 79.7234 48.8523 79.8711 49.0462C80.0219 49.2401 80.1388 49.4109 80.2219 49.5586H80.305V46.0455H81.6854V55.5H80.3374V54.3967H80.2219C80.1388 54.5475 80.0188 54.7198 79.8619 54.9137C79.708 55.1076 79.4956 55.2769 79.2248 55.4215C78.954 55.5662 78.6031 55.6385 78.1722 55.6385ZM78.4769 54.4613C78.8739 54.4613 79.2094 54.3567 79.4833 54.1474C79.7603 53.935 79.9696 53.6411 80.1112 53.2656C80.2558 52.8902 80.3281 52.4531 80.3281 51.9545C80.3281 51.4621 80.2573 51.0312 80.1158 50.6619C79.9742 50.2926 79.7665 50.0049 79.4925 49.7987C79.2186 49.5924 78.8801 49.4893 78.4769 49.4893C78.0614 49.4893 77.7152 49.5971 77.4382 49.8125C77.1612 50.0279 76.9519 50.3219 76.8104 50.6942C76.6719 51.0666 76.6026 51.4867 76.6026 51.9545C76.6026 52.4285 76.6734 52.8548 76.815 53.2333C76.9566 53.6119 77.1658 53.9119 77.4428 54.1335C77.7229 54.352 78.0676 54.4613 78.4769 54.4613ZM86.7116 55.6431C86.0129 55.6431 85.4113 55.4938 84.9065 55.1953C84.4049 54.8937 84.0171 54.4705 83.7432 53.9258C83.4723 53.378 83.3369 52.7363 83.3369 52.0007C83.3369 51.2744 83.4723 50.6342 83.7432 50.0803C84.0171 49.5263 84.3987 49.0939 84.8881 48.783C85.3805 48.4722 85.956 48.3168 86.6146 48.3168C87.0147 48.3168 87.4025 48.3829 87.778 48.5153C88.1534 48.6476 88.4904 48.8554 88.789 49.1385C89.0875 49.4216 89.3229 49.7894 89.4953 50.2418C89.6676 50.6912 89.7538 51.2375 89.7538 51.8807V52.37H84.1171V51.3359H88.4012C88.4012 50.9728 88.3273 50.6512 88.1796 50.3711C88.0319 50.0879 87.8241 49.8648 87.5564 49.7017C87.2917 49.5386 86.9809 49.457 86.6238 49.457C86.2361 49.457 85.8975 49.5524 85.6082 49.7433C85.322 49.931 85.1004 50.1772 84.9434 50.4819C84.7896 50.7835 84.7126 51.1113 84.7126 51.4652V52.2731C84.7126 52.747 84.7957 53.1502 84.9619 53.4826C85.1312 53.815 85.3666 54.0689 85.6682 54.2443C85.9698 54.4167 86.3222 54.5028 86.7254 54.5028C86.987 54.5028 87.2255 54.4659 87.441 54.392C87.6564 54.3151 87.8426 54.2012 87.9996 54.0504C88.1565 53.8996 88.2765 53.7134 88.3596 53.4918L89.6661 53.7273C89.5615 54.112 89.3737 54.449 89.1029 54.7383C88.8351 55.0245 88.4981 55.2476 88.0919 55.4077C87.6887 55.5646 87.2286 55.6431 86.7116 55.6431ZM100.039 50.1403L98.7883 50.3619C98.7359 50.2018 98.6528 50.0495 98.539 49.9048C98.4282 49.7602 98.2774 49.6417 98.0866 49.5494C97.8957 49.457 97.6572 49.4109 97.371 49.4109C96.9801 49.4109 96.6539 49.4986 96.3923 49.674C96.1307 49.8464 95.9999 50.0695 95.9999 50.3434C95.9999 50.5804 96.0876 50.7712 96.2631 50.9158C96.4385 51.0605 96.7216 51.179 97.1125 51.2713L98.2389 51.5298C98.8914 51.6806 99.3776 51.913 99.6977 52.2269C100.018 52.5408 100.178 52.9486 100.178 53.4503C100.178 53.875 100.055 54.2536 99.8085 54.5859C99.5654 54.9152 99.2253 55.1738 98.7883 55.3615C98.3543 55.5492 97.8511 55.6431 97.2787 55.6431C96.4846 55.6431 95.8368 55.4738 95.3351 55.1353C94.8335 54.7937 94.5257 54.3089 94.4118 53.6811L95.746 53.478C95.8291 53.8258 95.9999 54.0889 96.2584 54.2674C96.517 54.4428 96.854 54.5305 97.2694 54.5305C97.7219 54.5305 98.0835 54.4367 98.3543 54.2489C98.6251 54.0581 98.7606 53.8258 98.7606 53.5518C98.7606 53.3303 98.6775 53.1441 98.5113 52.9933C98.3482 52.8424 98.0973 52.7286 97.7588 52.6516L96.5585 52.3885C95.8968 52.2377 95.4075 51.9976 95.0905 51.6683C94.7765 51.339 94.6196 50.922 94.6196 50.4173C94.6196 49.9987 94.7365 49.6325 94.9704 49.3185C95.2043 49.0046 95.5275 48.7599 95.9399 48.5845C96.3523 48.406 96.8247 48.3168 97.3572 48.3168C98.1235 48.3168 98.7267 48.483 99.1668 48.8153C99.6069 49.1446 99.8978 49.5863 100.039 50.1403ZM105.006 48.4091V49.517H101.132V48.4091H105.006ZM102.171 46.7102H103.551V53.418C103.551 53.6857 103.591 53.8873 103.671 54.0227C103.751 54.1551 103.854 54.2459 103.981 54.2951C104.11 54.3413 104.25 54.3643 104.401 54.3643C104.512 54.3643 104.608 54.3567 104.692 54.3413C104.775 54.3259 104.839 54.3136 104.885 54.3043L105.135 55.4446C105.055 55.4754 104.941 55.5062 104.793 55.5369C104.645 55.5708 104.461 55.5893 104.239 55.5923C103.876 55.5985 103.537 55.5339 103.224 55.3984C102.91 55.263 102.656 55.0537 102.462 54.7706C102.268 54.4875 102.171 54.132 102.171 53.7042V46.7102ZM109.443 55.6431C108.778 55.6431 108.198 55.4908 107.703 55.1861C107.207 54.8814 106.822 54.4551 106.549 53.9073C106.275 53.3595 106.138 52.7193 106.138 51.9869C106.138 51.2513 106.275 50.6081 106.549 50.0572C106.822 49.5063 107.207 49.0785 107.703 48.7738C108.198 48.4691 108.778 48.3168 109.443 48.3168C110.108 48.3168 110.688 48.4691 111.184 48.7738C111.679 49.0785 112.064 49.5063 112.338 50.0572C112.612 50.6081 112.748 51.2513 112.748 51.9869C112.748 52.7193 112.612 53.3595 112.338 53.9073C112.064 54.4551 111.679 54.8814 111.184 55.1861C110.688 55.4908 110.108 55.6431 109.443 55.6431ZM109.448 54.4844C109.879 54.4844 110.236 54.3705 110.519 54.1428C110.802 53.915 111.011 53.6119 111.147 53.2333C111.285 52.8548 111.354 52.4377 111.354 51.9822C111.354 51.5298 111.285 51.1143 111.147 50.7358C111.011 50.3542 110.802 50.0479 110.519 49.8171C110.236 49.5863 109.879 49.4709 109.448 49.4709C109.014 49.4709 108.654 49.5863 108.367 49.8171C108.084 50.0479 107.873 50.3542 107.735 50.7358C107.6 51.1143 107.532 51.5298 107.532 51.9822C107.532 52.4377 107.6 52.8548 107.735 53.2333C107.873 53.6119 108.084 53.915 108.367 54.1428C108.654 54.3705 109.014 54.4844 109.448 54.4844ZM114.289 55.5V48.4091H115.623V49.5355H115.697C115.827 49.1539 116.054 48.8538 116.381 48.6353C116.71 48.4137 117.082 48.3029 117.498 48.3029C117.584 48.3029 117.685 48.306 117.802 48.3121C117.922 48.3183 118.016 48.326 118.084 48.3352V49.6555C118.029 49.6402 117.93 49.6232 117.789 49.6048C117.647 49.5832 117.505 49.5724 117.364 49.5724C117.038 49.5724 116.747 49.6417 116.491 49.7802C116.239 49.9156 116.039 50.1049 115.891 50.348C115.743 50.5881 115.67 50.862 115.67 51.1697V55.5H114.289ZM119.278 55.5V48.4091H120.659V55.5H119.278ZM119.976 47.315C119.736 47.315 119.529 47.235 119.357 47.0749C119.188 46.9118 119.103 46.7179 119.103 46.4933C119.103 46.2655 119.188 46.0716 119.357 45.9116C119.529 45.7485 119.736 45.6669 119.976 45.6669C120.216 45.6669 120.42 45.7485 120.59 45.9116C120.762 46.0716 120.848 46.2655 120.848 46.4933C120.848 46.7179 120.762 46.9118 120.59 47.0749C120.42 47.235 120.216 47.315 119.976 47.315ZM125.572 55.6431C124.873 55.6431 124.272 55.4938 123.767 55.1953C123.265 54.8937 122.877 54.4705 122.604 53.9258C122.333 53.378 122.197 52.7363 122.197 52.0007C122.197 51.2744 122.333 50.6342 122.604 50.0803C122.877 49.5263 123.259 49.0939 123.748 48.783C124.241 48.4722 124.816 48.3168 125.475 48.3168C125.875 48.3168 126.263 48.3829 126.638 48.5153C127.014 48.6476 127.351 48.8554 127.649 49.1385C127.948 49.4216 128.183 49.7894 128.356 50.2418C128.528 50.6912 128.614 51.2375 128.614 51.8807V52.37H122.977V51.3359H127.262C127.262 50.9728 127.188 50.6512 127.04 50.3711C126.892 50.0879 126.684 49.8648 126.417 49.7017C126.152 49.5386 125.841 49.457 125.484 49.457C125.096 49.457 124.758 49.5524 124.469 49.7433C124.182 49.931 123.961 50.1772 123.804 50.4819C123.65 50.7835 123.573 51.1113 123.573 51.4652V52.2731C123.573 52.747 123.656 53.1502 123.822 53.4826C123.992 53.815 124.227 54.0689 124.529 54.2443C124.83 54.4167 125.183 54.5028 125.586 54.5028C125.847 54.5028 126.086 54.4659 126.301 54.392C126.517 54.3151 126.703 54.2012 126.86 54.0504C127.017 53.8996 127.137 53.7134 127.22 53.4918L128.526 53.7273C128.422 54.112 128.234 54.449 127.963 54.7383C127.695 55.0245 127.358 55.2476 126.952 55.4077C126.549 55.5646 126.089 55.6431 125.572 55.6431ZM135.459 50.1403L134.208 50.3619C134.156 50.2018 134.073 50.0495 133.959 49.9048C133.848 49.7602 133.697 49.6417 133.506 49.5494C133.316 49.457 133.077 49.4109 132.791 49.4109C132.4 49.4109 132.074 49.4986 131.812 49.674C131.551 49.8464 131.42 50.0695 131.42 50.3434C131.42 50.5804 131.508 50.7712 131.683 50.9158C131.858 51.0605 132.142 51.179 132.532 51.2713L133.659 51.5298C134.311 51.6806 134.798 51.913 135.118 52.2269C135.438 52.5408 135.598 52.9486 135.598 53.4503C135.598 53.875 135.475 54.2536 135.228 54.5859C134.985 54.9152 134.645 55.1738 134.208 55.3615C133.774 55.5492 133.271 55.6431 132.699 55.6431C131.905 55.6431 131.257 55.4738 130.755 55.1353C130.253 54.7937 129.946 54.3089 129.832 53.6811L131.166 53.478C131.249 53.8258 131.42 54.0889 131.678 54.2674C131.937 54.4428 132.274 54.5305 132.689 54.5305C133.142 54.5305 133.503 54.4367 133.774 54.2489C134.045 54.0581 134.18 53.8258 134.18 53.5518C134.18 53.3303 134.097 53.1441 133.931 52.9933C133.768 52.8424 133.517 52.7286 133.179 52.6516L131.978 52.3885C131.317 52.2377 130.827 51.9976 130.51 51.6683C130.196 51.339 130.04 50.922 130.04 50.4173C130.04 49.9987 130.156 49.6325 130.39 49.3185C130.624 49.0046 130.947 48.7599 131.36 48.5845C131.772 48.406 132.245 48.3168 132.777 48.3168C133.543 48.3168 134.147 48.483 134.587 48.8153C135.027 49.1446 135.318 49.5863 135.459 50.1403Z" fill="#696969"/>
<mask id="path-7-inside-2_1_172" fill="white">
<path d="M272 51C272 46.5817 275.582 43 280 43H295C299.418 43 303 46.5817 303 51C303 55.4183 299.418 59 295 59H280C275.582 59 272 55.4183 272 51Z"/>
</mask>
<path d="M272 51C272 46.5817 275.582 43 280 43H295C299.418 43 303 46.5817 303 51C303 55.4183 299.418 59 295 59H280C275.582 59 272 55.4183 272 51Z" fill="url(#paint2_linear_1_172)"/>
<path d="M280 44H295V42H280V44ZM295 58H280V60H295V58ZM280 58C276.134 58 273 54.866 273 51H271C271 55.9706 275.029 60 280 60V58ZM302 51C302 54.866 298.866 58 295 58V60C299.971 60 304 55.9706 304 51H302ZM295 44C298.866 44 302 47.134 302 51H304C304 46.0294 299.971 42 295 42V44ZM280 42C275.029 42 271 46.0294 271 51H273C273 47.134 276.134 44 280 44V42Z" fill="url(#paint3_linear_1_172)" mask="url(#path-7-inside-2_1_172)"/>
<circle cx="295" cy="51" r="6" fill="white"/>
<path d="M47.8651 78.0455L50.4964 85.7457H50.6026L53.234 78.0455H54.7759L51.3736 87.5H49.7255L46.3232 78.0455H47.8651ZM58.3064 87.6431C57.6416 87.6431 57.0615 87.4908 56.566 87.1861C56.0705 86.8814 55.6858 86.4551 55.4118 85.9073C55.1379 85.3595 55.001 84.7193 55.001 83.9869C55.001 83.2513 55.1379 82.6081 55.4118 82.0572C55.6858 81.5063 56.0705 81.0785 56.566 80.7738C57.0615 80.4691 57.6416 80.3168 58.3064 80.3168C58.9711 80.3168 59.5513 80.4691 60.0468 80.7738C60.5423 81.0785 60.927 81.5063 61.2009 82.0572C61.4748 82.6081 61.6118 83.2513 61.6118 83.9869C61.6118 84.7193 61.4748 85.3595 61.2009 85.9073C60.927 86.4551 60.5423 86.8814 60.0468 87.1861C59.5513 87.4908 58.9711 87.6431 58.3064 87.6431ZM58.311 86.4844C58.7419 86.4844 59.0989 86.3705 59.382 86.1428C59.6652 85.915 59.8744 85.6119 60.0099 85.2333C60.1483 84.8548 60.2176 84.4377 60.2176 83.9822C60.2176 83.5298 60.1483 83.1143 60.0099 82.7358C59.8744 82.3542 59.6652 82.0479 59.382 81.8171C59.0989 81.5863 58.7419 81.4709 58.311 81.4709C57.877 81.4709 57.517 81.5863 57.2307 81.8171C56.9476 82.0479 56.7368 82.3542 56.5983 82.7358C56.4629 83.1143 56.3952 83.5298 56.3952 83.9822C56.3952 84.4377 56.4629 84.8548 56.5983 85.2333C56.7368 85.6119 56.9476 85.915 57.2307 86.1428C57.517 86.3705 57.877 86.4844 58.311 86.4844ZM66.4625 80.4091V81.517H62.5893V80.4091H66.4625ZM63.628 78.7102H65.0083V85.418C65.0083 85.6857 65.0484 85.8873 65.1284 86.0227C65.2084 86.1551 65.3115 86.2459 65.4377 86.2951C65.5669 86.3413 65.707 86.3643 65.8578 86.3643C65.9686 86.3643 66.0655 86.3567 66.1486 86.3413C66.2317 86.3259 66.2963 86.3136 66.3425 86.3043L66.5918 87.4446C66.5118 87.4754 66.3979 87.5062 66.2502 87.5369C66.1025 87.5708 65.9178 87.5893 65.6962 87.5923C65.333 87.5985 64.9945 87.5339 64.6806 87.3984C64.3667 87.263 64.1127 87.0537 63.9189 86.7706C63.725 86.4875 63.628 86.132 63.628 85.7042V78.7102ZM70.9694 87.6431C70.2707 87.6431 69.6691 87.4938 69.1643 87.1953C68.6627 86.8937 68.2749 86.4705 68.001 85.9258C67.7301 85.378 67.5947 84.7363 67.5947 84.0007C67.5947 83.2744 67.7301 82.6342 68.001 82.0803C68.2749 81.5263 68.6565 81.0939 69.1459 80.783C69.6383 80.4722 70.2138 80.3168 70.8724 80.3168C71.2725 80.3168 71.6603 80.3829 72.0358 80.5153C72.4113 80.6476 72.7483 80.8554 73.0468 81.1385C73.3453 81.4216 73.5808 81.7894 73.7531 82.2418C73.9255 82.6912 74.0116 83.2375 74.0116 83.8807V84.37H68.3749V83.3359H72.659C72.659 82.9728 72.5851 82.6512 72.4374 82.3711C72.2897 82.0879 72.0819 81.8648 71.8142 81.7017C71.5495 81.5386 71.2387 81.457 70.8817 81.457C70.4939 81.457 70.1553 81.5524 69.866 81.7433C69.5798 81.931 69.3582 82.1772 69.2013 82.4819C69.0474 82.7835 68.9704 83.1113 68.9704 83.4652V84.2731C68.9704 84.747 69.0535 85.1502 69.2197 85.4826C69.389 85.815 69.6244 86.0689 69.926 86.2443C70.2277 86.4167 70.58 86.5028 70.9832 86.5028C71.2448 86.5028 71.4833 86.4659 71.6988 86.392C71.9142 86.3151 72.1004 86.2012 72.2574 86.0504C72.4143 85.8996 72.5344 85.7134 72.6175 85.4918L73.9239 85.7273C73.8193 86.112 73.6315 86.449 73.3607 86.7383C73.093 87.0245 72.7559 87.2476 72.3497 87.4077C71.9465 87.5646 71.4864 87.6431 70.9694 87.6431ZM80.8567 82.1403L79.6056 82.3619C79.5533 82.2018 79.4702 82.0495 79.3564 81.9048C79.2456 81.7602 79.0948 81.6417 78.9039 81.5494C78.7131 81.457 78.4746 81.4109 78.1884 81.4109C77.7975 81.4109 77.4713 81.4986 77.2097 81.674C76.9481 81.8464 76.8173 82.0695 76.8173 82.3434C76.8173 82.5804 76.905 82.7712 77.0804 82.9158C77.2559 83.0605 77.539 83.179 77.9299 83.2713L79.0563 83.5298C79.7087 83.6806 80.195 83.913 80.5151 84.2269C80.8352 84.5408 80.9952 84.9486 80.9952 85.4503C80.9952 85.875 80.8721 86.2536 80.6259 86.5859C80.3828 86.9152 80.0427 87.1738 79.6056 87.3615C79.1717 87.5492 78.6685 87.6431 78.0961 87.6431C77.302 87.6431 76.6542 87.4738 76.1525 87.1353C75.6509 86.7937 75.3431 86.3089 75.2292 85.6811L76.5634 85.478C76.6465 85.8258 76.8173 86.0889 77.0758 86.2674C77.3343 86.4428 77.6713 86.5305 78.0868 86.5305C78.5392 86.5305 78.9009 86.4367 79.1717 86.2489C79.4425 86.0581 79.5779 85.8258 79.5779 85.5518C79.5779 85.3303 79.4949 85.1441 79.3287 84.9933C79.1655 84.8424 78.9147 84.7286 78.5762 84.6516L77.3759 84.3885C76.7142 84.2377 76.2248 83.9976 75.9078 83.6683C75.5939 83.339 75.437 82.922 75.437 82.4173C75.437 81.9987 75.5539 81.6325 75.7878 81.3185C76.0217 81.0046 76.3449 80.7599 76.7573 80.5845C77.1697 80.406 77.6421 80.3168 78.1745 80.3168C78.9409 80.3168 79.5441 80.483 79.9842 80.8153C80.4243 81.1446 80.7151 81.5863 80.8567 82.1403ZM88.6078 87.6385C88.0353 87.6385 87.5244 87.4923 87.0751 87.1999C86.6288 86.9045 86.278 86.4844 86.0225 85.9396C85.7702 85.3918 85.644 84.7347 85.644 83.9684C85.644 83.2021 85.7717 82.5465 86.0272 82.0018C86.2857 81.457 86.6396 81.04 87.089 80.7507C87.5383 80.4614 88.0476 80.3168 88.617 80.3168C89.0571 80.3168 89.411 80.3906 89.6788 80.5384C89.9496 80.683 90.1589 80.8523 90.3066 81.0462C90.4574 81.2401 90.5744 81.4109 90.6575 81.5586H90.7406V78.0455H92.1209V87.5H90.7729V86.3967H90.6575C90.5744 86.5475 90.4544 86.7198 90.2974 86.9137C90.1435 87.1076 89.9312 87.2769 89.6603 87.4215C89.3895 87.5662 89.0386 87.6385 88.6078 87.6385ZM88.9125 86.4613C89.3095 86.4613 89.6449 86.3567 89.9189 86.1474C90.1958 85.935 90.4051 85.6411 90.5467 85.2656C90.6913 84.8902 90.7637 84.4531 90.7637 83.9545C90.7637 83.4621 90.6929 83.0312 90.5513 82.6619C90.4097 82.2926 90.202 82.0049 89.9281 81.7987C89.6542 81.5924 89.3156 81.4893 88.9125 81.4893C88.497 81.4893 88.1507 81.5971 87.8738 81.8125C87.5968 82.0279 87.3875 82.3219 87.2459 82.6942C87.1074 83.0666 87.0382 83.4867 87.0382 83.9545C87.0382 84.4285 87.109 84.8548 87.2505 85.2333C87.3921 85.6119 87.6014 85.9119 87.8784 86.1335C88.1584 86.352 88.5031 86.4613 88.9125 86.4613ZM97.1471 87.6431C96.4485 87.6431 95.8468 87.4938 95.3421 87.1953C94.8404 86.8937 94.4526 86.4705 94.1787 85.9258C93.9079 85.378 93.7725 84.7363 93.7725 84.0007C93.7725 83.2744 93.9079 82.6342 94.1787 82.0803C94.4526 81.5263 94.8343 81.0939 95.3236 80.783C95.816 80.4722 96.3915 80.3168 97.0502 80.3168C97.4503 80.3168 97.838 80.3829 98.2135 80.5153C98.589 80.6476 98.926 80.8554 99.2245 81.1385C99.5231 81.4216 99.7585 81.7894 99.9308 82.2418C100.103 82.6912 100.189 83.2375 100.189 83.8807V84.37H94.5526V83.3359H98.8367C98.8367 82.9728 98.7629 82.6512 98.6151 82.3711C98.4674 82.0879 98.2597 81.8648 97.9919 81.7017C97.7272 81.5386 97.4164 81.457 97.0594 81.457C96.6716 81.457 96.3331 81.5524 96.0438 81.7433C95.7575 81.931 95.536 82.1772 95.379 82.4819C95.2251 82.7835 95.1482 83.1113 95.1482 83.4652V84.2731C95.1482 84.747 95.2313 85.1502 95.3975 85.4826C95.5667 85.815 95.8022 86.0689 96.1038 86.2443C96.4054 86.4167 96.7578 86.5028 97.161 86.5028C97.4226 86.5028 97.6611 86.4659 97.8765 86.392C98.0919 86.3151 98.2781 86.2012 98.4351 86.0504C98.5921 85.8996 98.7121 85.7134 98.7952 85.4918L100.102 85.7273C99.997 86.112 99.8093 86.449 99.5384 86.7383C99.2707 87.0245 98.9337 87.2476 98.5274 87.4077C98.1243 87.5646 97.6642 87.6431 97.1471 87.6431ZM110.475 82.1403L109.224 82.3619C109.171 82.2018 109.088 82.0495 108.975 81.9048C108.864 81.7602 108.713 81.6417 108.522 81.5494C108.331 81.457 108.093 81.4109 107.807 81.4109C107.416 81.4109 107.089 81.4986 106.828 81.674C106.566 81.8464 106.435 82.0695 106.435 82.3434C106.435 82.5804 106.523 82.7712 106.699 82.9158C106.874 83.0605 107.157 83.179 107.548 83.2713L108.674 83.5298C109.327 83.6806 109.813 83.913 110.133 84.2269C110.453 84.5408 110.613 84.9486 110.613 85.4503C110.613 85.875 110.49 86.2536 110.244 86.5859C110.001 86.9152 109.661 87.1738 109.224 87.3615C108.79 87.5492 108.287 87.6431 107.714 87.6431C106.92 87.6431 106.272 87.4738 105.771 87.1353C105.269 86.7937 104.961 86.3089 104.847 85.6811L106.182 85.478C106.265 85.8258 106.435 86.0889 106.694 86.2674C106.953 86.4428 107.29 86.5305 107.705 86.5305C108.157 86.5305 108.519 86.4367 108.79 86.2489C109.061 86.0581 109.196 85.8258 109.196 85.5518C109.196 85.3303 109.113 85.1441 108.947 84.9933C108.784 84.8424 108.533 84.7286 108.194 84.6516L106.994 84.3885C106.332 84.2377 105.843 83.9976 105.526 83.6683C105.212 83.339 105.055 82.922 105.055 82.4173C105.055 81.9987 105.172 81.6325 105.406 81.3185C105.64 81.0046 105.963 80.7599 106.375 80.5845C106.788 80.406 107.26 80.3168 107.793 80.3168C108.559 80.3168 109.162 80.483 109.602 80.8153C110.042 81.1446 110.333 81.5863 110.475 82.1403ZM115.118 87.6431C114.453 87.6431 113.873 87.4908 113.377 87.1861C112.882 86.8814 112.497 86.4551 112.223 85.9073C111.949 85.3595 111.812 84.7193 111.812 83.9869C111.812 83.2513 111.949 82.6081 112.223 82.0572C112.497 81.5063 112.882 81.0785 113.377 80.7738C113.873 80.4691 114.453 80.3168 115.118 80.3168C115.783 80.3168 116.363 80.4691 116.858 80.7738C117.354 81.0785 117.739 81.5063 118.012 82.0572C118.286 82.6081 118.423 83.2513 118.423 83.9869C118.423 84.7193 118.286 85.3595 118.012 85.9073C117.739 86.4551 117.354 86.8814 116.858 87.1861C116.363 87.4908 115.783 87.6431 115.118 87.6431ZM115.123 86.4844C115.553 86.4844 115.91 86.3705 116.194 86.1428C116.477 85.915 116.686 85.6119 116.821 85.2333C116.96 84.8548 117.029 84.4377 117.029 83.9822C117.029 83.5298 116.96 83.1143 116.821 82.7358C116.686 82.3542 116.477 82.0479 116.194 81.8171C115.91 81.5863 115.553 81.4709 115.123 81.4709C114.689 81.4709 114.328 81.5863 114.042 81.8171C113.759 82.0479 113.548 82.3542 113.41 82.7358C113.274 83.1143 113.207 83.5298 113.207 83.9822C113.207 84.4377 113.274 84.8548 113.41 85.2333C113.548 85.6119 113.759 85.915 114.042 86.1428C114.328 86.3705 114.689 86.4844 115.123 86.4844ZM121.344 83.2898V87.5H119.964V80.4091H121.289V81.5632H121.377C121.54 81.1877 121.795 80.8861 122.143 80.6584C122.494 80.4306 122.936 80.3168 123.468 80.3168C123.951 80.3168 124.374 80.4183 124.737 80.6214C125.101 80.8215 125.382 81.12 125.582 81.517C125.782 81.9141 125.882 82.4049 125.882 82.9897V87.5H124.502V83.1559C124.502 82.6419 124.368 82.2403 124.1 81.951C123.833 81.6586 123.465 81.5124 122.997 81.5124C122.677 81.5124 122.392 81.5817 122.143 81.7202C121.897 81.8587 121.701 82.0618 121.557 82.3295C121.415 82.5942 121.344 82.9143 121.344 83.2898ZM130.388 87.6385C129.816 87.6385 129.305 87.4923 128.855 87.1999C128.409 86.9045 128.058 86.4844 127.803 85.9396C127.55 85.3918 127.424 84.7347 127.424 83.9684C127.424 83.2021 127.552 82.5465 127.807 82.0018C128.066 81.457 128.42 81.04 128.869 80.7507C129.319 80.4614 129.828 80.3168 130.397 80.3168C130.837 80.3168 131.191 80.3906 131.459 80.5384C131.73 80.683 131.939 80.8523 132.087 81.0462C132.238 81.2401 132.355 81.4109 132.438 81.5586H132.521V78.0455H133.901V87.5H132.553V86.3967H132.438C132.355 86.5475 132.235 86.7198 132.078 86.9137C131.924 87.1076 131.711 87.2769 131.441 87.4215C131.17 87.5662 130.819 87.6385 130.388 87.6385ZM130.693 86.4613C131.09 86.4613 131.425 86.3567 131.699 86.1474C131.976 85.935 132.185 85.6411 132.327 85.2656C132.472 84.8902 132.544 84.4531 132.544 83.9545C132.544 83.4621 132.473 83.0312 132.332 82.6619C132.19 82.2926 131.982 82.0049 131.708 81.7987C131.434 81.5924 131.096 81.4893 130.693 81.4893C130.277 81.4893 129.931 81.5971 129.654 81.8125C129.377 82.0279 129.168 82.3219 129.026 82.6942C128.888 83.0666 128.818 83.4867 128.818 83.9545C128.818 84.4285 128.889 84.8548 129.031 85.2333C129.172 85.6119 129.382 85.9119 129.659 86.1335C129.939 86.352 130.283 86.4613 130.693 86.4613ZM137.935 87.657C137.485 87.657 137.079 87.5739 136.716 87.4077C136.353 87.2384 136.065 86.9937 135.853 86.6737C135.644 86.3536 135.539 85.9612 135.539 85.4964C135.539 85.0964 135.616 84.767 135.77 84.5085C135.924 84.25 136.131 84.0453 136.393 83.8945C136.655 83.7437 136.947 83.6299 137.27 83.5529C137.593 83.476 137.923 83.4175 138.258 83.3775C138.683 83.3282 139.027 83.2882 139.292 83.2575C139.557 83.2236 139.749 83.1697 139.869 83.0959C139.989 83.022 140.049 82.902 140.049 82.7358V82.7035C140.049 82.3003 139.935 81.9879 139.708 81.7663C139.483 81.5447 139.147 81.4339 138.701 81.4339C138.236 81.4339 137.87 81.537 137.602 81.7433C137.338 81.9464 137.155 82.1726 137.053 82.4219L135.756 82.1264C135.91 81.6955 136.134 81.3478 136.43 81.0831C136.728 80.8153 137.072 80.6214 137.459 80.5014C137.847 80.3783 138.255 80.3168 138.683 80.3168C138.966 80.3168 139.266 80.3506 139.583 80.4183C139.903 80.483 140.202 80.603 140.479 80.7784C140.759 80.9538 140.988 81.2047 141.166 81.5309C141.345 81.854 141.434 82.2741 141.434 82.7912V87.5H140.086V86.5305H140.031C139.941 86.709 139.808 86.8845 139.629 87.0568C139.451 87.2292 139.221 87.3723 138.941 87.4862C138.661 87.6 138.326 87.657 137.935 87.657ZM138.235 86.549C138.617 86.549 138.943 86.4736 139.214 86.3228C139.488 86.172 139.695 85.975 139.837 85.7319C139.981 85.4857 140.054 85.2225 140.054 84.9425V84.0284C140.005 84.0777 139.909 84.1238 139.768 84.1669C139.629 84.2069 139.471 84.2423 139.292 84.2731C139.114 84.3008 138.94 84.3269 138.77 84.3516C138.601 84.3731 138.46 84.3916 138.346 84.407C138.078 84.4408 137.833 84.4978 137.612 84.5778C137.393 84.6578 137.218 84.7732 137.085 84.924C136.956 85.0717 136.892 85.2687 136.892 85.5149C136.892 85.8565 137.018 86.1151 137.27 86.2905C137.522 86.4628 137.844 86.549 138.235 86.549ZM146.246 90.3068C145.682 90.3068 145.198 90.233 144.791 90.0852C144.388 89.9375 144.059 89.7421 143.804 89.4989C143.548 89.2558 143.357 88.9896 143.231 88.7003L144.418 88.2109C144.501 88.3464 144.611 88.4895 144.75 88.6403C144.891 88.7942 145.082 88.925 145.322 89.0327C145.565 89.1404 145.878 89.1942 146.259 89.1942C146.783 89.1942 147.215 89.0665 147.557 88.8111C147.898 88.5587 148.069 88.1555 148.069 87.6016V86.2074H147.981C147.898 86.3582 147.778 86.5259 147.621 86.7106C147.467 86.8952 147.255 87.0553 146.984 87.1907C146.713 87.3261 146.361 87.3938 145.927 87.3938C145.367 87.3938 144.862 87.263 144.413 87.0014C143.967 86.7367 143.613 86.3474 143.351 85.8335C143.093 85.3164 142.963 84.6809 142.963 83.9268C142.963 83.1728 143.091 82.5265 143.347 81.9879C143.605 81.4493 143.959 81.0369 144.408 80.7507C144.858 80.4614 145.367 80.3168 145.936 80.3168C146.376 80.3168 146.732 80.3906 147.003 80.5384C147.274 80.683 147.484 80.8523 147.635 81.0462C147.789 81.2401 147.908 81.4109 147.991 81.5586H148.092V80.4091H149.445V87.657C149.445 88.2663 149.303 88.7665 149.02 89.1573C148.737 89.5482 148.354 89.8375 147.871 90.0252C147.391 90.2129 146.849 90.3068 146.246 90.3068ZM146.232 86.2489C146.629 86.2489 146.964 86.1566 147.238 85.9719C147.515 85.7842 147.724 85.5165 147.866 85.1687C148.011 84.8178 148.083 84.3977 148.083 83.9084C148.083 83.4313 148.012 83.0112 147.871 82.6481C147.729 82.2849 147.521 82.0018 147.247 81.7987C146.974 81.5924 146.635 81.4893 146.232 81.4893C145.816 81.4893 145.47 81.5971 145.193 81.8125C144.916 82.0249 144.707 82.3142 144.565 82.6804C144.427 83.0466 144.358 83.456 144.358 83.9084C144.358 84.3731 144.428 84.7809 144.57 85.1317C144.711 85.4826 144.921 85.7565 145.198 85.9535C145.478 86.1504 145.822 86.2489 146.232 86.2489ZM154.352 87.6431C153.654 87.6431 153.052 87.4938 152.547 87.1953C152.045 86.8937 151.658 86.4705 151.384 85.9258C151.113 85.378 150.978 84.7363 150.978 84.0007C150.978 83.2744 151.113 82.6342 151.384 82.0803C151.658 81.5263 152.039 81.0939 152.529 80.783C153.021 80.4722 153.597 80.3168 154.255 80.3168C154.655 80.3168 155.043 80.3829 155.419 80.5153C155.794 80.6476 156.131 80.8554 156.43 81.1385C156.728 81.4216 156.964 81.7894 157.136 82.2418C157.308 82.6912 157.394 83.2375 157.394 83.8807V84.37H151.758V83.3359H156.042C156.042 82.9728 155.968 82.6512 155.82 82.3711C155.672 82.0879 155.465 81.8648 155.197 81.7017C154.932 81.5386 154.621 81.457 154.264 81.457C153.877 81.457 153.538 81.5524 153.249 81.7433C152.963 81.931 152.741 82.1772 152.584 82.4819C152.43 82.7835 152.353 83.1113 152.353 83.4652V84.2731C152.353 84.747 152.436 85.1502 152.603 85.4826C152.772 85.815 153.007 86.0689 153.309 86.2443C153.61 86.4167 153.963 86.5028 154.366 86.5028C154.628 86.5028 154.866 86.4659 155.082 86.392C155.297 86.3151 155.483 86.2012 155.64 86.0504C155.797 85.8996 155.917 85.7134 156 85.4918L157.307 85.7273C157.202 86.112 157.014 86.449 156.744 86.7383C156.476 87.0245 156.139 87.2476 155.733 87.4077C155.329 87.5646 154.869 87.6431 154.352 87.6431ZM164.24 82.1403L162.988 82.3619C162.936 82.2018 162.853 82.0495 162.739 81.9048C162.628 81.7602 162.478 81.6417 162.287 81.5494C162.096 81.457 161.857 81.4109 161.571 81.4109C161.18 81.4109 160.854 81.4986 160.593 81.674C160.331 81.8464 160.2 82.0695 160.2 82.3434C160.2 82.5804 160.288 82.7712 160.463 82.9158C160.639 83.0605 160.922 83.179 161.313 83.2713L162.439 83.5298C163.092 83.6806 163.578 83.913 163.898 84.2269C164.218 84.5408 164.378 84.9486 164.378 85.4503C164.378 85.875 164.255 86.2536 164.009 86.5859C163.766 86.9152 163.425 87.1738 162.988 87.3615C162.555 87.5492 162.051 87.6431 161.479 87.6431C160.685 87.6431 160.037 87.4738 159.535 87.1353C159.034 86.7937 158.726 86.3089 158.612 85.6811L159.946 85.478C160.029 85.8258 160.2 86.0889 160.459 86.2674C160.717 86.4428 161.054 86.5305 161.47 86.5305C161.922 86.5305 162.284 86.4367 162.555 86.2489C162.825 86.0581 162.961 85.8258 162.961 85.5518C162.961 85.3303 162.878 85.1441 162.711 84.9933C162.548 84.8424 162.298 84.7286 161.959 84.6516L160.759 84.3885C160.097 84.2377 159.608 83.9976 159.291 83.6683C158.977 83.339 158.82 82.922 158.82 82.4173C158.82 81.9987 158.937 81.6325 159.171 81.3185C159.405 81.0046 159.728 80.7599 160.14 80.5845C160.552 80.406 161.025 80.3168 161.557 80.3168C162.324 80.3168 162.927 80.483 163.367 80.8153C163.807 81.1446 164.098 81.5863 164.24 82.1403ZM169.738 83.576C169.738 82.4188 169.89 81.3539 170.195 80.3814C170.499 79.4089 170.944 78.5117 171.529 77.69H172.794C172.566 77.9947 172.354 78.3686 172.157 78.8118C171.96 79.255 171.787 79.7412 171.64 80.2706C171.492 80.7969 171.377 81.3432 171.294 81.9094C171.21 82.4727 171.169 83.0282 171.169 83.576C171.169 84.3085 171.241 85.0502 171.386 85.8011C171.53 86.5521 171.726 87.2492 171.972 87.8924C172.218 88.5356 172.492 89.0604 172.794 89.4666H171.529C170.944 88.6449 170.499 87.7478 170.195 86.7752C169.89 85.8027 169.738 84.7363 169.738 83.576ZM176.777 87.6385C176.204 87.6385 175.693 87.4923 175.244 87.1999C174.798 86.9045 174.447 86.4844 174.191 85.9396C173.939 85.3918 173.813 84.7347 173.813 83.9684C173.813 83.2021 173.941 82.5465 174.196 82.0018C174.455 81.457 174.809 81.04 175.258 80.7507C175.707 80.4614 176.217 80.3168 176.786 80.3168C177.226 80.3168 177.58 80.3906 177.848 80.5384C178.119 80.683 178.328 80.8523 178.476 81.0462C178.626 81.2401 178.743 81.4109 178.826 81.5586H178.91V78.0455H180.29V87.5H178.942V86.3967H178.826C178.743 86.5475 178.623 86.7198 178.466 86.9137C178.312 87.1076 178.1 87.2769 177.829 87.4215C177.558 87.5662 177.208 87.6385 176.777 87.6385ZM177.081 86.4613C177.478 86.4613 177.814 86.3567 178.088 86.1474C178.365 85.935 178.574 85.6411 178.716 85.2656C178.86 84.8902 178.933 84.4531 178.933 83.9545C178.933 83.4621 178.862 83.0312 178.72 82.6619C178.579 82.2926 178.371 82.0049 178.097 81.7987C177.823 81.5924 177.485 81.4893 177.081 81.4893C176.666 81.4893 176.32 81.5971 176.043 81.8125C175.766 82.0279 175.556 82.3219 175.415 82.6942C175.276 83.0666 175.207 83.4867 175.207 83.9545C175.207 84.4285 175.278 84.8548 175.419 85.2333C175.561 85.6119 175.77 85.9119 176.047 86.1335C176.327 86.352 176.672 86.4613 177.081 86.4613ZM185.316 87.6431C184.617 87.6431 184.016 87.4938 183.511 87.1953C183.009 86.8937 182.622 86.4705 182.348 85.9258C182.077 85.378 181.941 84.7363 181.941 84.0007C181.941 83.2744 182.077 82.6342 182.348 82.0803C182.622 81.5263 183.003 81.0939 183.493 80.783C183.985 80.4722 184.56 80.3168 185.219 80.3168C185.619 80.3168 186.007 80.3829 186.382 80.5153C186.758 80.6476 187.095 80.8554 187.393 81.1385C187.692 81.4216 187.927 81.7894 188.1 82.2418C188.272 82.6912 188.358 83.2375 188.358 83.8807V84.37H182.722V83.3359H187.006C187.006 82.9728 186.932 82.6512 186.784 82.3711C186.636 82.0879 186.429 81.8648 186.161 81.7017C185.896 81.5386 185.585 81.457 185.228 81.457C184.841 81.457 184.502 81.5524 184.213 81.7433C183.926 81.931 183.705 82.1772 183.548 82.4819C183.394 82.7835 183.317 83.1113 183.317 83.4652V84.2731C183.317 84.747 183.4 85.1502 183.566 85.4826C183.736 85.815 183.971 86.0689 184.273 86.2443C184.574 86.4167 184.927 86.5028 185.33 86.5028C185.592 86.5028 185.83 86.4659 186.045 86.392C186.261 86.3151 186.447 86.2012 186.604 86.0504C186.761 85.8996 186.881 85.7134 186.964 85.4918L188.271 85.7273C188.166 86.112 187.978 86.449 187.707 86.7383C187.44 87.0245 187.103 87.2476 186.696 87.4077C186.293 87.5646 185.833 87.6431 185.316 87.6431ZM194.382 84.5593V80.4091H195.767V87.5H194.409V86.272H194.335C194.172 86.6506 193.911 86.966 193.551 87.2184C193.194 87.4677 192.749 87.5923 192.217 87.5923C191.761 87.5923 191.358 87.4923 191.007 87.2923C190.659 87.0891 190.385 86.7891 190.185 86.392C189.988 85.995 189.89 85.5041 189.89 84.9194V80.4091H191.27V84.7532C191.27 85.2364 191.404 85.6211 191.672 85.9073C191.94 86.1935 192.287 86.3366 192.715 86.3366C192.974 86.3366 193.231 86.272 193.486 86.1428C193.745 86.0135 193.958 85.8181 194.128 85.5565C194.3 85.2949 194.385 84.9625 194.382 84.5593ZM198.711 80.4091L200.276 83.1697L201.855 80.4091H203.364L201.153 83.9545L203.383 87.5H201.873L200.276 84.8501L198.683 87.5H197.169L199.376 83.9545L197.197 80.4091H198.711ZM211.209 87.6431C210.544 87.6431 209.964 87.4908 209.468 87.1861C208.973 86.8814 208.588 86.4551 208.314 85.9073C208.04 85.3595 207.903 84.7193 207.903 83.9869C207.903 83.2513 208.04 82.6081 208.314 82.0572C208.588 81.5063 208.973 81.0785 209.468 80.7738C209.964 80.4691 210.544 80.3168 211.209 80.3168C211.873 80.3168 212.454 80.4691 212.949 80.7738C213.445 81.0785 213.829 81.5063 214.103 82.0572C214.377 82.6081 214.514 83.2513 214.514 83.9869C214.514 84.7193 214.377 85.3595 214.103 85.9073C213.829 86.4551 213.445 86.8814 212.949 87.1861C212.454 87.4908 211.873 87.6431 211.209 87.6431ZM211.213 86.4844C211.644 86.4844 212.001 86.3705 212.284 86.1428C212.568 85.915 212.777 85.6119 212.912 85.2333C213.051 84.8548 213.12 84.4377 213.12 83.9822C213.12 83.5298 213.051 83.1143 212.912 82.7358C212.777 82.3542 212.568 82.0479 212.284 81.8171C212.001 81.5863 211.644 81.4709 211.213 81.4709C210.779 81.4709 210.419 81.5863 210.133 81.8171C209.85 82.0479 209.639 82.3542 209.501 82.7358C209.365 83.1143 209.297 83.5298 209.297 83.9822C209.297 84.4377 209.365 84.8548 209.501 85.2333C209.639 85.6119 209.85 85.915 210.133 86.1428C210.419 86.3705 210.779 86.4844 211.213 86.4844ZM216.055 90.1591V80.4091H217.403V81.5586H217.518C217.598 81.4109 217.714 81.2401 217.865 81.0462C218.015 80.8523 218.225 80.683 218.492 80.5384C218.76 80.3906 219.114 80.3168 219.554 80.3168C220.127 80.3168 220.637 80.4614 221.087 80.7507C221.536 81.04 221.889 81.457 222.144 82.0018C222.403 82.5465 222.532 83.2021 222.532 83.9684C222.532 84.7347 222.404 85.3918 222.149 85.9396C221.893 86.4844 221.542 86.9045 221.096 87.1999C220.65 87.4923 220.14 87.6385 219.568 87.6385C219.137 87.6385 218.785 87.5662 218.511 87.4215C218.24 87.2769 218.028 87.1076 217.874 86.9137C217.72 86.7198 217.601 86.5475 217.518 86.3967H217.435V90.1591H216.055ZM217.407 83.9545C217.407 84.4531 217.48 84.8902 217.624 85.2656C217.769 85.6411 217.978 85.935 218.252 86.1474C218.526 86.3567 218.862 86.4613 219.259 86.4613C219.671 86.4613 220.016 86.352 220.293 86.1335C220.57 85.9119 220.779 85.6119 220.921 85.2333C221.065 84.8548 221.138 84.4285 221.138 83.9545C221.138 83.4867 221.067 83.0666 220.925 82.6942C220.787 82.3219 220.577 82.0279 220.297 81.8125C220.02 81.5971 219.674 81.4893 219.259 81.4893C218.859 81.4893 218.52 81.5924 218.243 81.7987C217.969 82.0049 217.761 82.2926 217.62 82.6619C217.478 83.0312 217.407 83.4621 217.407 83.9545ZM227.388 80.4091V81.517H223.515V80.4091H227.388ZM224.554 78.7102H225.934V85.418C225.934 85.6857 225.974 85.8873 226.054 86.0227C226.134 86.1551 226.237 86.2459 226.363 86.2951C226.493 86.3413 226.633 86.3643 226.784 86.3643C226.894 86.3643 226.991 86.3567 227.074 86.3413C227.157 86.3259 227.222 86.3136 227.268 86.3043L227.518 87.4446C227.438 87.4754 227.324 87.5062 227.176 87.5369C227.028 87.5708 226.844 87.5893 226.622 87.5923C226.259 87.5985 225.92 87.5339 225.606 87.3984C225.292 87.263 225.039 87.0537 224.845 86.7706C224.651 86.4875 224.554 86.132 224.554 85.7042V78.7102ZM228.915 87.5V80.4091H230.296V87.5H228.915ZM229.612 79.315C229.372 79.315 229.166 79.235 228.994 79.0749C228.824 78.9118 228.74 78.7179 228.74 78.4933C228.74 78.2655 228.824 78.0716 228.994 77.9116C229.166 77.7485 229.372 77.6669 229.612 77.6669C229.852 77.6669 230.057 77.7485 230.226 77.9116C230.399 78.0716 230.485 78.2655 230.485 78.4933C230.485 78.7179 230.399 78.9118 230.226 79.0749C230.057 79.235 229.852 79.315 229.612 79.315ZM235.139 87.6431C234.475 87.6431 233.894 87.4908 233.399 87.1861C232.903 86.8814 232.519 86.4551 232.245 85.9073C231.971 85.3595 231.834 84.7193 231.834 83.9869C231.834 83.2513 231.971 82.6081 232.245 82.0572C232.519 81.5063 232.903 81.0785 233.399 80.7738C233.894 80.4691 234.475 80.3168 235.139 80.3168C235.804 80.3168 236.384 80.4691 236.88 80.7738C237.375 81.0785 237.76 81.5063 238.034 82.0572C238.308 82.6081 238.445 83.2513 238.445 83.9869C238.445 84.7193 238.308 85.3595 238.034 85.9073C237.76 86.4551 237.375 86.8814 236.88 87.1861C236.384 87.4908 235.804 87.6431 235.139 87.6431ZM235.144 86.4844C235.575 86.4844 235.932 86.3705 236.215 86.1428C236.498 85.915 236.707 85.6119 236.843 85.2333C236.981 84.8548 237.051 84.4377 237.051 83.9822C237.051 83.5298 236.981 83.1143 236.843 82.7358C236.707 82.3542 236.498 82.0479 236.215 81.8171C235.932 81.5863 235.575 81.4709 235.144 81.4709C234.71 81.4709 234.35 81.5863 234.064 81.8171C233.781 82.0479 233.57 82.3542 233.431 82.7358C233.296 83.1143 233.228 83.5298 233.228 83.9822C233.228 84.4377 233.296 84.8548 233.431 85.2333C233.57 85.6119 233.781 85.915 234.064 86.1428C234.35 86.3705 234.71 86.4844 235.144 86.4844ZM241.366 83.2898V87.5H239.986V80.4091H241.31V81.5632H241.398C241.561 81.1877 241.817 80.8861 242.165 80.6584C242.515 80.4306 242.957 80.3168 243.489 80.3168C243.973 80.3168 244.396 80.4183 244.759 80.6214C245.122 80.8215 245.404 81.12 245.604 81.517C245.804 81.9141 245.904 82.4049 245.904 82.9897V87.5H244.524V83.1559C244.524 82.6419 244.39 82.2403 244.122 81.951C243.854 81.6586 243.486 81.5124 243.019 81.5124C242.698 81.5124 242.414 81.5817 242.165 81.7202C241.918 81.8587 241.723 82.0618 241.578 82.3295C241.437 82.5942 241.366 82.9143 241.366 83.2898ZM253.069 82.1403L251.818 82.3619C251.765 82.2018 251.682 82.0495 251.568 81.9048C251.457 81.7602 251.307 81.6417 251.116 81.5494C250.925 81.457 250.687 81.4109 250.4 81.4109C250.009 81.4109 249.683 81.4986 249.422 81.674C249.16 81.8464 249.029 82.0695 249.029 82.3434C249.029 82.5804 249.117 82.7712 249.292 82.9158C249.468 83.0605 249.751 83.179 250.142 83.2713L251.268 83.5298C251.921 83.6806 252.407 83.913 252.727 84.2269C253.047 84.5408 253.207 84.9486 253.207 85.4503C253.207 85.875 253.084 86.2536 252.838 86.5859C252.595 86.9152 252.255 87.1738 251.818 87.3615C251.384 87.5492 250.88 87.6431 250.308 87.6431C249.514 87.6431 248.866 87.4738 248.364 87.1353C247.863 86.7937 247.555 86.3089 247.441 85.6811L248.775 85.478C248.858 85.8258 249.029 86.0889 249.288 86.2674C249.546 86.4428 249.883 86.5305 250.299 86.5305C250.751 86.5305 251.113 86.4367 251.384 86.2489C251.654 86.0581 251.79 85.8258 251.79 85.5518C251.79 85.3303 251.707 85.1441 251.541 84.9933C251.377 84.8424 251.127 84.7286 250.788 84.6516L249.588 84.3885C248.926 84.2377 248.437 83.9976 248.12 83.6683C247.806 83.339 247.649 82.922 247.649 82.4173C247.649 81.9987 247.766 81.6325 248 81.3185C248.234 81.0046 248.557 80.7599 248.969 80.5845C249.382 80.406 249.854 80.3168 250.386 80.3168C251.153 80.3168 251.756 80.483 252.196 80.8153C252.636 81.1446 252.927 81.5863 253.069 82.1403ZM257.379 83.576C257.379 84.7363 257.227 85.8027 256.922 86.7752C256.618 87.7478 256.173 88.6449 255.588 89.4666H254.323C254.551 89.1619 254.763 88.788 254.96 88.3448C255.157 87.9016 255.33 87.4169 255.477 86.8906C255.625 86.3613 255.74 85.8134 255.824 85.2472C255.907 84.6809 255.948 84.1238 255.948 83.576C255.948 82.8466 255.876 82.1064 255.731 81.3555C255.587 80.6045 255.391 79.9074 255.145 79.2642C254.899 78.621 254.625 78.0962 254.323 77.69H255.588C256.173 78.5117 256.618 79.4089 256.922 80.3814C257.227 81.3539 257.379 82.4188 257.379 83.576Z" fill="#696969"/>
<mask id="path-11-inside-3_1_172" fill="white">
<path d="M272 83C272 78.5817 275.582 75 280 75H295C299.418 75 303 78.5817 303 83C303 87.4183 299.418 91 295 91H280C275.582 91 272 87.4183 272 83Z"/>
</mask>
<path d="M272 83C272 78.5817 275.582 75 280 75H295C299.418 75 303 78.5817 303 83C303 87.4183 299.418 91 295 91H280C275.582 91 272 87.4183 272 83Z" fill="url(#paint4_linear_1_172)"/>
<path d="M280 76H295V74H280V76ZM295 90H280V92H295V90ZM280 90C276.134 90 273 86.866 273 83H271C271 87.9706 275.029 92 280 92V90ZM302 83C302 86.866 298.866 90 295 90V92C299.971 92 304 87.9706 304 83H302ZM295 76C298.866 76 302 79.134 302 83H304C304 78.0294 299.971 74 295 74V76ZM280 74C275.029 74 271 78.0294 271 83H273C273 79.134 276.134 76 280 76V74Z" fill="url(#paint5_linear_1_172)" mask="url(#path-11-inside-3_1_172)"/>
<circle cx="295" cy="83" r="6" fill="white"/>
<path d="M54.8913 113.12H53.451C53.3956 112.812 53.2925 112.541 53.1417 112.308C52.9909 112.074 52.8062 111.875 52.5877 111.712C52.3692 111.549 52.1245 111.426 51.8537 111.343C51.5859 111.26 51.3013 111.218 50.9996 111.218C50.4549 111.218 49.9671 111.355 49.5362 111.629C49.1084 111.903 48.7699 112.304 48.5206 112.834C48.2744 113.363 48.1513 114.009 48.1513 114.773C48.1513 115.542 48.2744 116.192 48.5206 116.721C48.7699 117.25 49.11 117.65 49.5408 117.921C49.9717 118.192 50.4564 118.327 50.995 118.327C51.2936 118.327 51.5767 118.287 51.8445 118.207C52.1153 118.124 52.36 118.003 52.5785 117.843C52.797 117.683 52.9817 117.487 53.1325 117.256C53.2863 117.022 53.3925 116.755 53.451 116.453L54.8913 116.458C54.8144 116.922 54.6651 117.35 54.4435 117.741C54.225 118.129 53.9434 118.464 53.5987 118.748C53.2571 119.028 52.8662 119.245 52.4261 119.398C51.986 119.552 51.5059 119.629 50.9858 119.629C50.1671 119.629 49.4377 119.435 48.7976 119.048C48.1574 118.657 47.6527 118.098 47.2834 117.372C46.9171 116.645 46.734 115.779 46.734 114.773C46.734 113.763 46.9187 112.897 47.288 112.174C47.6573 111.447 48.1621 110.89 48.8022 110.502C49.4424 110.112 50.1702 109.916 50.9858 109.916C51.4875 109.916 51.9553 109.989 52.3892 110.133C52.8262 110.275 53.2186 110.484 53.5664 110.761C53.9142 111.035 54.2019 111.37 54.4297 111.767C54.6574 112.161 54.8113 112.612 54.8913 113.12ZM60.9793 116.559V112.409H62.3643V119.5H61.007V118.272H60.9331C60.77 118.651 60.5084 118.966 60.1483 119.218C59.7913 119.468 59.3466 119.592 58.8142 119.592C58.3587 119.592 57.9555 119.492 57.6047 119.292C57.2569 119.089 56.983 118.789 56.7829 118.392C56.586 117.995 56.4875 117.504 56.4875 116.919V112.409H57.8678V116.753C57.8678 117.236 58.0017 117.621 58.2694 117.907C58.5372 118.194 58.885 118.337 59.3128 118.337C59.5713 118.337 59.8283 118.272 60.0837 118.143C60.3422 118.013 60.5561 117.818 60.7254 117.556C60.8978 117.295 60.9824 116.962 60.9793 116.559ZM64.2189 119.5V112.409H65.5531V113.536H65.627C65.7562 113.154 65.984 112.854 66.3102 112.635C66.6395 112.414 67.0119 112.303 67.4274 112.303C67.5136 112.303 67.6151 112.306 67.7321 112.312C67.8521 112.318 67.946 112.326 68.0137 112.335V113.656C67.9583 113.64 67.8598 113.623 67.7182 113.605C67.5766 113.583 67.4351 113.572 67.2935 113.572C66.9673 113.572 66.6764 113.642 66.421 113.78C66.1686 113.916 65.9686 114.105 65.8208 114.348C65.6731 114.588 65.5993 114.862 65.5993 115.17V119.5H64.2189ZM74.5218 114.14L73.2707 114.362C73.2184 114.202 73.1353 114.049 73.0214 113.905C72.9106 113.76 72.7598 113.642 72.569 113.549C72.3782 113.457 72.1396 113.411 71.8534 113.411C71.4626 113.411 71.1363 113.499 70.8747 113.674C70.6131 113.846 70.4823 114.069 70.4823 114.343C70.4823 114.58 70.57 114.771 70.7455 114.916C70.9209 115.06 71.204 115.179 71.5949 115.271L72.7213 115.53C73.3738 115.681 73.8601 115.913 74.1801 116.227C74.5002 116.541 74.6602 116.949 74.6602 117.45C74.6602 117.875 74.5371 118.254 74.2909 118.586C74.0478 118.915 73.7077 119.174 73.2707 119.362C72.8367 119.549 72.3335 119.643 71.7611 119.643C70.9671 119.643 70.3192 119.474 69.8176 119.135C69.3159 118.794 69.0081 118.309 68.8943 117.681L70.2284 117.478C70.3115 117.826 70.4823 118.089 70.7409 118.267C70.9994 118.443 71.3364 118.531 71.7519 118.531C72.2043 118.531 72.5659 118.437 72.8367 118.249C73.1076 118.058 73.243 117.826 73.243 117.552C73.243 117.33 73.1599 117.144 72.9937 116.993C72.8306 116.842 72.5798 116.729 72.2412 116.652L71.0409 116.388C70.3792 116.238 69.8899 115.998 69.5729 115.668C69.259 115.339 69.102 114.922 69.102 114.417C69.102 113.999 69.219 113.632 69.4529 113.319C69.6868 113.005 70.0099 112.76 70.4223 112.585C70.8347 112.406 71.3071 112.317 71.8396 112.317C72.6059 112.317 73.2091 112.483 73.6492 112.815C74.0893 113.145 74.3802 113.586 74.5218 114.14ZM79.234 119.643C78.5354 119.643 77.9337 119.494 77.429 119.195C76.9273 118.894 76.5395 118.471 76.2656 117.926C75.9948 117.378 75.8594 116.736 75.8594 116.001C75.8594 115.274 75.9948 114.634 76.2656 114.08C76.5395 113.526 76.9212 113.094 77.4105 112.783C77.9029 112.472 78.4785 112.317 79.1371 112.317C79.5372 112.317 79.925 112.383 80.3004 112.515C80.6759 112.648 81.0129 112.855 81.3114 113.138C81.61 113.422 81.8454 113.789 82.0178 114.242C82.1901 114.691 82.2763 115.237 82.2763 115.881V116.37H76.6396V115.336H80.9237C80.9237 114.973 80.8498 114.651 80.7021 114.371C80.5543 114.088 80.3466 113.865 80.0788 113.702C79.8142 113.539 79.5033 113.457 79.1463 113.457C78.7585 113.457 78.42 113.552 78.1307 113.743C77.8445 113.931 77.6229 114.177 77.4659 114.482C77.312 114.783 77.2351 115.111 77.2351 115.465V116.273C77.2351 116.747 77.3182 117.15 77.4844 117.483C77.6536 117.815 77.8891 118.069 78.1907 118.244C78.4923 118.417 78.8447 118.503 79.2479 118.503C79.5095 118.503 79.748 118.466 79.9634 118.392C80.1789 118.315 80.3651 118.201 80.522 118.05C80.679 117.9 80.799 117.713 80.8821 117.492L82.1886 117.727C82.0839 118.112 81.8962 118.449 81.6254 118.738C81.3576 119.025 81.0206 119.248 80.6143 119.408C80.2112 119.565 79.7511 119.643 79.234 119.643ZM88.2996 116.559V112.409H89.6846V119.5H88.3273V118.272H88.2535C88.0903 118.651 87.8287 118.966 87.4687 119.218C87.1117 119.468 86.6669 119.592 86.1345 119.592C85.679 119.592 85.2758 119.492 84.925 119.292C84.5772 119.089 84.3033 118.789 84.1032 118.392C83.9063 117.995 83.8078 117.504 83.8078 116.919V112.409H85.1881V116.753C85.1881 117.236 85.322 117.621 85.5898 117.907C85.8575 118.194 86.2053 118.337 86.6331 118.337C86.8916 118.337 87.1486 118.272 87.404 118.143C87.6626 118.013 87.8765 117.818 88.0457 117.556C88.2181 117.295 88.3027 116.962 88.2996 116.559ZM91.5392 119.5V112.409H92.8734V113.536H92.9473C93.0765 113.154 93.3043 112.854 93.6305 112.635C93.9598 112.414 94.3322 112.303 94.7477 112.303C94.8339 112.303 94.9354 112.306 95.0524 112.312C95.1724 112.318 95.2663 112.326 95.334 112.335V113.656C95.2786 113.64 95.1801 113.623 95.0385 113.605C94.897 113.583 94.7554 113.572 94.6138 113.572C94.2876 113.572 93.9967 113.642 93.7413 113.78C93.4889 113.916 93.2889 114.105 93.1412 114.348C92.9934 114.588 92.9196 114.862 92.9196 115.17V119.5H91.5392ZM101.842 114.14L100.591 114.362C100.539 114.202 100.456 114.049 100.342 113.905C100.231 113.76 100.08 113.642 99.8893 113.549C99.6985 113.457 99.46 113.411 99.1737 113.411C98.7829 113.411 98.4566 113.499 98.195 113.674C97.9334 113.846 97.8026 114.069 97.8026 114.343C97.8026 114.58 97.8904 114.771 98.0658 114.916C98.2412 115.06 98.5244 115.179 98.9152 115.271L100.042 115.53C100.694 115.681 101.18 115.913 101.5 116.227C101.821 116.541 101.981 116.949 101.981 117.45C101.981 117.875 101.857 118.254 101.611 118.586C101.368 118.915 101.028 119.174 100.591 119.362C100.157 119.549 99.6539 119.643 99.0814 119.643C98.2874 119.643 97.6395 119.474 97.1379 119.135C96.6362 118.794 96.3285 118.309 96.2146 117.681L97.5487 117.478C97.6318 117.826 97.8026 118.089 98.0612 118.267C98.3197 118.443 98.6567 118.531 99.0722 118.531C99.5246 118.531 99.8862 118.437 100.157 118.249C100.428 118.058 100.563 117.826 100.563 117.552C100.563 117.33 100.48 117.144 100.314 116.993C100.151 116.842 99.9001 116.729 99.5615 116.652L98.3612 116.388C97.6995 116.238 97.2102 115.998 96.8932 115.668C96.5793 115.339 96.4223 114.922 96.4223 114.417C96.4223 113.999 96.5393 113.632 96.7732 113.319C97.0071 113.005 97.3302 112.76 97.7426 112.585C98.155 112.406 98.6275 112.317 99.1599 112.317C99.9262 112.317 100.529 112.483 100.97 112.815C101.41 113.145 101.7 113.586 101.842 114.14ZM110.54 109.602L107.493 120.922H106.26L109.307 109.602H110.54ZM120.42 112.529C120.371 112.092 120.168 111.754 119.811 111.513C119.454 111.27 119.004 111.149 118.463 111.149C118.075 111.149 117.739 111.21 117.456 111.333C117.173 111.453 116.953 111.62 116.796 111.832C116.642 112.041 116.565 112.28 116.565 112.548C116.565 112.772 116.617 112.966 116.722 113.129C116.83 113.292 116.97 113.429 117.142 113.54C117.318 113.648 117.505 113.739 117.705 113.812C117.905 113.883 118.098 113.942 118.282 113.988L119.206 114.228C119.507 114.302 119.817 114.402 120.134 114.528C120.451 114.654 120.745 114.82 121.015 115.027C121.286 115.233 121.505 115.488 121.671 115.793C121.84 116.098 121.925 116.462 121.925 116.887C121.925 117.423 121.786 117.898 121.509 118.314C121.235 118.729 120.837 119.057 120.314 119.297C119.794 119.537 119.164 119.657 118.426 119.657C117.718 119.657 117.105 119.545 116.588 119.32C116.071 119.095 115.666 118.777 115.374 118.364C115.082 117.949 114.92 117.456 114.889 116.887H116.32C116.348 117.229 116.459 117.513 116.653 117.741C116.85 117.966 117.101 118.134 117.405 118.244C117.713 118.352 118.05 118.406 118.416 118.406C118.82 118.406 119.178 118.343 119.492 118.217C119.809 118.087 120.058 117.909 120.24 117.681C120.421 117.45 120.512 117.181 120.512 116.873C120.512 116.593 120.432 116.364 120.272 116.185C120.115 116.007 119.901 115.859 119.631 115.742C119.363 115.625 119.06 115.522 118.721 115.433L117.604 115.128C116.847 114.922 116.247 114.619 115.803 114.219C115.363 113.819 115.143 113.289 115.143 112.631C115.143 112.086 115.291 111.61 115.586 111.204C115.882 110.798 116.282 110.482 116.787 110.258C117.291 110.03 117.861 109.916 118.495 109.916C119.135 109.916 119.7 110.029 120.189 110.253C120.682 110.478 121.069 110.787 121.352 111.181C121.636 111.572 121.783 112.021 121.796 112.529H120.42ZM124.899 110.045V119.5H123.519V110.045H124.899ZM126.756 119.5V112.409H128.136V119.5H126.756ZM127.453 111.315C127.213 111.315 127.007 111.235 126.835 111.075C126.665 110.912 126.581 110.718 126.581 110.493C126.581 110.266 126.665 110.072 126.835 109.912C127.007 109.748 127.213 109.667 127.453 109.667C127.693 109.667 127.898 109.748 128.067 109.912C128.239 110.072 128.326 110.266 128.326 110.493C128.326 110.718 128.239 110.912 128.067 111.075C127.898 111.235 127.693 111.315 127.453 111.315ZM132.648 119.638C132.075 119.638 131.564 119.492 131.115 119.2C130.669 118.904 130.318 118.484 130.063 117.94C129.81 117.392 129.684 116.735 129.684 115.968C129.684 115.202 129.812 114.547 130.067 114.002C130.326 113.457 130.68 113.04 131.129 112.751C131.578 112.461 132.088 112.317 132.657 112.317C133.097 112.317 133.451 112.391 133.719 112.538C133.99 112.683 134.199 112.852 134.347 113.046C134.497 113.24 134.614 113.411 134.698 113.559H134.781V110.045H136.161V119.5H134.813V118.397H134.698C134.614 118.547 134.494 118.72 134.337 118.914C134.184 119.108 133.971 119.277 133.7 119.422C133.43 119.566 133.079 119.638 132.648 119.638ZM132.953 118.461C133.35 118.461 133.685 118.357 133.959 118.147C134.236 117.935 134.445 117.641 134.587 117.266C134.731 116.89 134.804 116.453 134.804 115.955C134.804 115.462 134.733 115.031 134.591 114.662C134.45 114.293 134.242 114.005 133.968 113.799C133.694 113.592 133.356 113.489 132.953 113.489C132.537 113.489 132.191 113.597 131.914 113.812C131.637 114.028 131.428 114.322 131.286 114.694C131.147 115.067 131.078 115.487 131.078 115.955C131.078 116.429 131.149 116.855 131.291 117.233C131.432 117.612 131.641 117.912 131.918 118.134C132.198 118.352 132.543 118.461 132.953 118.461ZM141.187 119.643C140.489 119.643 139.887 119.494 139.382 119.195C138.88 118.894 138.493 118.471 138.219 117.926C137.948 117.378 137.812 116.736 137.812 116.001C137.812 115.274 137.948 114.634 138.219 114.08C138.493 113.526 138.874 113.094 139.364 112.783C139.856 112.472 140.432 112.317 141.09 112.317C141.49 112.317 141.878 112.383 142.254 112.515C142.629 112.648 142.966 112.855 143.265 113.138C143.563 113.422 143.799 113.789 143.971 114.242C144.143 114.691 144.229 115.237 144.229 115.881V116.37H138.593V115.336H142.877C142.877 114.973 142.803 114.651 142.655 114.371C142.507 114.088 142.3 113.865 142.032 113.702C141.767 113.539 141.456 113.457 141.099 113.457C140.712 113.457 140.373 113.552 140.084 113.743C139.798 113.931 139.576 114.177 139.419 114.482C139.265 114.783 139.188 115.111 139.188 115.465V116.273C139.188 116.747 139.271 117.15 139.438 117.483C139.607 117.815 139.842 118.069 140.144 118.244C140.445 118.417 140.798 118.503 141.201 118.503C141.463 118.503 141.701 118.466 141.917 118.392C142.132 118.315 142.318 118.201 142.475 118.05C142.632 117.9 142.752 117.713 142.835 117.492L144.142 117.727C144.037 118.112 143.849 118.449 143.578 118.738C143.311 119.025 142.974 119.248 142.567 119.408C142.164 119.565 141.704 119.643 141.187 119.643ZM145.761 119.5V112.409H147.095V113.536H147.169C147.298 113.154 147.526 112.854 147.852 112.635C148.181 112.414 148.554 112.303 148.969 112.303C149.056 112.303 149.157 112.306 149.274 112.312C149.394 112.318 149.488 112.326 149.556 112.335V113.656C149.5 113.64 149.402 113.623 149.26 113.605C149.119 113.583 148.977 113.572 148.835 113.572C148.509 113.572 148.218 113.642 147.963 113.78C147.711 113.916 147.511 114.105 147.363 114.348C147.215 114.588 147.141 114.862 147.141 115.17V119.5H145.761ZM156.064 114.14L154.813 114.362C154.76 114.202 154.677 114.049 154.563 113.905C154.453 113.76 154.302 113.642 154.111 113.549C153.92 113.457 153.682 113.411 153.395 113.411C153.005 113.411 152.678 113.499 152.417 113.674C152.155 113.846 152.024 114.069 152.024 114.343C152.024 114.58 152.112 114.771 152.287 114.916C152.463 115.06 152.746 115.179 153.137 115.271L154.263 115.53C154.916 115.681 155.402 115.913 155.722 116.227C156.042 116.541 156.202 116.949 156.202 117.45C156.202 117.875 156.079 118.254 155.833 118.586C155.59 118.915 155.25 119.174 154.813 119.362C154.379 119.549 153.876 119.643 153.303 119.643C152.509 119.643 151.861 119.474 151.36 119.135C150.858 118.794 150.55 118.309 150.436 117.681L151.77 117.478C151.854 117.826 152.024 118.089 152.283 118.267C152.541 118.443 152.878 118.531 153.294 118.531C153.746 118.531 154.108 118.437 154.379 118.249C154.65 118.058 154.785 117.826 154.785 117.552C154.785 117.33 154.702 117.144 154.536 116.993C154.373 116.842 154.122 116.729 153.783 116.652L152.583 116.388C151.921 116.238 151.432 115.998 151.115 115.668C150.801 115.339 150.644 114.922 150.644 114.417C150.644 113.999 150.761 113.632 150.995 113.319C151.229 113.005 151.552 112.76 151.964 112.585C152.377 112.406 152.849 112.317 153.382 112.317C154.148 112.317 154.751 112.483 155.191 112.815C155.631 113.145 155.922 113.586 156.064 114.14Z" fill="#696969"/>
<mask id="path-15-inside-4_1_172" fill="white">
<path d="M272 115C272 110.582 275.582 107 280 107H295C299.418 107 303 110.582 303 115C303 119.418 299.418 123 295 123H280C275.582 123 272 119.418 272 115Z"/>
</mask>
<path d="M272 115C272 110.582 275.582 107 280 107H295C299.418 107 303 110.582 303 115C303 119.418 299.418 123 295 123H280C275.582 123 272 119.418 272 115Z" fill="url(#paint6_linear_1_172)"/>
<path d="M280 108H295V106H280V108ZM295 122H280V124H295V122ZM280 122C276.134 122 273 118.866 273 115H271C271 119.971 275.029 124 280 124V122ZM302 115C302 118.866 298.866 122 295 122V124C299.971 124 304 119.971 304 115H302ZM295 108C298.866 108 302 111.134 302 115H304C304 110.029 299.971 106 295 106V108ZM280 106C275.029 106 271 110.029 271 115H273C273 111.134 276.134 108 280 108V106Z" fill="url(#paint7_linear_1_172)" mask="url(#path-15-inside-4_1_172)"/>
<circle cx="295" cy="115" r="6" fill="white"/>
<path d="M47.0387 151.5V142.045H48.4652V150.272H52.7493V151.5H47.0387ZM54.2658 151.5V144.409H55.6461V151.5H54.2658ZM54.9629 143.315C54.7228 143.315 54.5166 143.235 54.3443 143.075C54.175 142.912 54.0904 142.718 54.0904 142.493C54.0904 142.266 54.175 142.072 54.3443 141.912C54.5166 141.748 54.7228 141.667 54.9629 141.667C55.2029 141.667 55.4076 141.748 55.5769 141.912C55.7492 142.072 55.8354 142.266 55.8354 142.493C55.8354 142.718 55.7492 142.912 55.5769 143.075C55.4076 143.235 55.2029 143.315 54.9629 143.315ZM58.7726 149.095L58.7634 147.41H59.0035L61.8287 144.409H63.4814L60.2591 147.825H60.0422L58.7726 149.095ZM57.5031 151.5V142.045H58.8834V151.5H57.5031ZM61.9811 151.5L59.442 148.13L60.393 147.165L63.6753 151.5H61.9811ZM67.5036 151.643C66.8049 151.643 66.2032 151.494 65.6985 151.195C65.1969 150.894 64.8091 150.471 64.5352 149.926C64.2643 149.378 64.1289 148.736 64.1289 148.001C64.1289 147.274 64.2643 146.634 64.5352 146.08C64.8091 145.526 65.1907 145.094 65.68 144.783C66.1725 144.472 66.748 144.317 67.4066 144.317C67.8067 144.317 68.1945 144.383 68.57 144.515C68.9454 144.648 69.2824 144.855 69.581 145.138C69.8795 145.422 70.1149 145.789 70.2873 146.242C70.4596 146.691 70.5458 147.237 70.5458 147.881V148.37H64.9091V147.336H69.1932C69.1932 146.973 69.1193 146.651 68.9716 146.371C68.8239 146.088 68.6161 145.865 68.3484 145.702C68.0837 145.539 67.7728 145.457 67.4158 145.457C67.0281 145.457 66.6895 145.552 66.4002 145.743C66.114 145.931 65.8924 146.177 65.7354 146.482C65.5816 146.783 65.5046 147.111 65.5046 147.465V148.273C65.5046 148.747 65.5877 149.15 65.7539 149.483C65.9232 149.815 66.1586 150.069 66.4602 150.244C66.7618 150.417 67.1142 150.503 67.5174 150.503C67.779 150.503 68.0175 150.466 68.233 150.392C68.4484 150.315 68.6346 150.201 68.7915 150.05C68.9485 149.9 69.0685 149.713 69.1516 149.492L70.4581 149.727C70.3535 150.112 70.1657 150.449 69.8949 150.738C69.6271 151.025 69.2901 151.248 68.8839 151.408C68.4807 151.565 68.0206 151.643 67.5036 151.643ZM77.3909 146.14L76.1398 146.362C76.0875 146.202 76.0044 146.049 75.8905 145.905C75.7797 145.76 75.6289 145.642 75.4381 145.549C75.2473 145.457 75.0088 145.411 74.7226 145.411C74.3317 145.411 74.0055 145.499 73.7439 145.674C73.4823 145.846 73.3515 146.069 73.3515 146.343C73.3515 146.58 73.4392 146.771 73.6146 146.916C73.79 147.06 74.0732 147.179 74.464 147.271L75.5905 147.53C76.2429 147.681 76.7292 147.913 77.0493 148.227C77.3693 148.541 77.5294 148.949 77.5294 149.45C77.5294 149.875 77.4063 150.254 77.1601 150.586C76.9169 150.915 76.5769 151.174 76.1398 151.362C75.7059 151.549 75.2027 151.643 74.6302 151.643C73.8362 151.643 73.1884 151.474 72.6867 151.135C72.185 150.794 71.8773 150.309 71.7634 149.681L73.0976 149.478C73.1807 149.826 73.3515 150.089 73.61 150.267C73.8685 150.443 74.2055 150.531 74.621 150.531C75.0734 150.531 75.435 150.437 75.7059 150.249C75.9767 150.058 76.1121 149.826 76.1121 149.552C76.1121 149.33 76.029 149.144 75.8628 148.993C75.6997 148.842 75.4489 148.729 75.1104 148.652L73.9101 148.388C73.2484 148.238 72.759 147.998 72.442 147.668C72.1281 147.339 71.9711 146.922 71.9711 146.417C71.9711 145.999 72.0881 145.632 72.322 145.319C72.5559 145.005 72.8791 144.76 73.2915 144.585C73.7039 144.406 74.1763 144.317 74.7087 144.317C75.4751 144.317 76.0783 144.483 76.5184 144.815C76.9585 145.145 77.2493 145.586 77.3909 146.14ZM85.142 151.638C84.5695 151.638 84.0586 151.492 83.6093 151.2C83.163 150.904 82.8122 150.484 82.5567 149.94C82.3044 149.392 82.1782 148.735 82.1782 147.968C82.1782 147.202 82.3059 146.547 82.5613 146.002C82.8199 145.457 83.1738 145.04 83.6231 144.751C84.0725 144.461 84.5818 144.317 85.1512 144.317C85.5913 144.317 85.9452 144.391 86.213 144.538C86.4838 144.683 86.6931 144.852 86.8408 145.046C86.9916 145.24 87.1086 145.411 87.1917 145.559H87.2748V142.045H88.6551V151.5H87.3071V150.397H87.1917C87.1086 150.547 86.9885 150.72 86.8316 150.914C86.6777 151.108 86.4653 151.277 86.1945 151.422C85.9237 151.566 85.5728 151.638 85.142 151.638ZM85.4466 150.461C85.8437 150.461 86.1791 150.357 86.453 150.147C86.73 149.935 86.9393 149.641 87.0809 149.266C87.2255 148.89 87.2979 148.453 87.2979 147.955C87.2979 147.462 87.2271 147.031 87.0855 146.662C86.9439 146.293 86.7362 146.005 86.4623 145.799C86.1884 145.592 85.8498 145.489 85.4466 145.489C85.0312 145.489 84.6849 145.597 84.4079 145.812C84.1309 146.028 83.9217 146.322 83.7801 146.694C83.6416 147.067 83.5724 147.487 83.5724 147.955C83.5724 148.429 83.6431 148.855 83.7847 149.233C83.9263 149.612 84.1356 149.912 84.4126 150.134C84.6926 150.352 85.0373 150.461 85.4466 150.461ZM93.6813 151.643C92.9827 151.643 92.381 151.494 91.8762 151.195C91.3746 150.894 90.9868 150.471 90.7129 149.926C90.4421 149.378 90.3066 148.736 90.3066 148.001C90.3066 147.274 90.4421 146.634 90.7129 146.08C90.9868 145.526 91.3684 145.094 91.8578 144.783C92.3502 144.472 92.9257 144.317 93.5843 144.317C93.9844 144.317 94.3722 144.383 94.7477 144.515C95.1232 144.648 95.4602 144.855 95.7587 145.138C96.0572 145.422 96.2927 145.789 96.465 146.242C96.6374 146.691 96.7235 147.237 96.7235 147.881V148.37H91.0868V147.336H95.3709C95.3709 146.973 95.2971 146.651 95.1493 146.371C95.0016 146.088 94.7939 145.865 94.5261 145.702C94.2614 145.539 93.9506 145.457 93.5936 145.457C93.2058 145.457 92.8672 145.552 92.5779 145.743C92.2917 145.931 92.0701 146.177 91.9132 146.482C91.7593 146.783 91.6824 147.111 91.6824 147.465V148.273C91.6824 148.747 91.7654 149.15 91.9316 149.483C92.1009 149.815 92.3364 150.069 92.638 150.244C92.9396 150.417 93.292 150.503 93.6951 150.503C93.9567 150.503 94.1953 150.466 94.4107 150.392C94.6261 150.315 94.8123 150.201 94.9693 150.05C95.1262 149.9 95.2463 149.713 95.3294 149.492L96.6358 149.727C96.5312 150.112 96.3435 150.449 96.0726 150.738C95.8049 151.025 95.4679 151.248 95.0616 151.408C94.6584 151.565 94.1983 151.643 93.6813 151.643ZM101.695 154.159V144.409H103.044V145.559H103.159C103.239 145.411 103.354 145.24 103.505 145.046C103.656 144.852 103.865 144.683 104.133 144.538C104.401 144.391 104.755 144.317 105.195 144.317C105.767 144.317 106.278 144.461 106.727 144.751C107.177 145.04 107.529 145.457 107.785 146.002C108.043 146.547 108.172 147.202 108.172 147.968C108.172 148.735 108.045 149.392 107.789 149.94C107.534 150.484 107.183 150.904 106.737 151.2C106.29 151.492 105.781 151.638 105.209 151.638C104.778 151.638 104.425 151.566 104.151 151.422C103.881 151.277 103.668 151.108 103.514 150.914C103.36 150.72 103.242 150.547 103.159 150.397H103.076V154.159H101.695ZM103.048 147.955C103.048 148.453 103.12 148.89 103.265 149.266C103.41 149.641 103.619 149.935 103.893 150.147C104.167 150.357 104.502 150.461 104.899 150.461C105.312 150.461 105.656 150.352 105.933 150.134C106.21 149.912 106.42 149.612 106.561 149.233C106.706 148.855 106.778 148.429 106.778 147.955C106.778 147.487 106.707 147.067 106.566 146.694C106.427 146.322 106.218 146.028 105.938 145.812C105.661 145.597 105.315 145.489 104.899 145.489C104.499 145.489 104.161 145.592 103.884 145.799C103.61 146.005 103.402 146.293 103.26 146.662C103.119 147.031 103.048 147.462 103.048 147.955ZM114.211 148.559V144.409H115.596V151.5H114.238V150.272H114.165C114.001 150.651 113.74 150.966 113.38 151.218C113.023 151.468 112.578 151.592 112.046 151.592C111.59 151.592 111.187 151.492 110.836 151.292C110.488 151.089 110.214 150.789 110.014 150.392C109.817 149.995 109.719 149.504 109.719 148.919V144.409H111.099V148.753C111.099 149.236 111.233 149.621 111.501 149.907C111.769 150.194 112.116 150.337 112.544 150.337C112.803 150.337 113.06 150.272 113.315 150.143C113.574 150.013 113.788 149.818 113.957 149.556C114.129 149.295 114.214 148.962 114.211 148.559ZM117.561 151.5V142.045H118.941V145.559H119.025C119.105 145.411 119.22 145.24 119.371 145.046C119.522 144.852 119.731 144.683 119.999 144.538C120.266 144.391 120.62 144.317 121.06 144.317C121.633 144.317 122.144 144.461 122.593 144.751C123.042 145.04 123.395 145.457 123.65 146.002C123.909 146.547 124.038 147.202 124.038 147.968C124.038 148.735 123.91 149.392 123.655 149.94C123.399 150.484 123.049 150.904 122.602 151.2C122.156 151.492 121.647 151.638 121.074 151.638C120.643 151.638 120.291 151.566 120.017 151.422C119.746 151.277 119.534 151.108 119.38 150.914C119.226 150.72 119.108 150.547 119.025 150.397H118.909V151.5H117.561ZM118.914 147.955C118.914 148.453 118.986 148.89 119.131 149.266C119.275 149.641 119.485 149.935 119.759 150.147C120.033 150.357 120.368 150.461 120.765 150.461C121.177 150.461 121.522 150.352 121.799 150.134C122.076 149.912 122.285 149.612 122.427 149.233C122.572 148.855 122.644 148.429 122.644 147.955C122.644 147.487 122.573 147.067 122.432 146.694C122.293 146.322 122.084 146.028 121.804 145.812C121.527 145.597 121.18 145.489 120.765 145.489C120.365 145.489 120.026 145.592 119.749 145.799C119.475 146.005 119.268 146.293 119.126 146.662C118.985 147.031 118.914 147.462 118.914 147.955ZM126.968 142.045V151.5H125.588V142.045H126.968ZM128.825 151.5V144.409H130.206V151.5H128.825ZM129.522 143.315C129.282 143.315 129.076 143.235 128.904 143.075C128.735 142.912 128.65 142.718 128.65 142.493C128.65 142.266 128.735 142.072 128.904 141.912C129.076 141.748 129.282 141.667 129.522 141.667C129.763 141.667 129.967 141.748 130.136 141.912C130.309 142.072 130.395 142.266 130.395 142.493C130.395 142.718 130.309 142.912 130.136 143.075C129.967 143.235 129.763 143.315 129.522 143.315ZM135.05 151.643C134.363 151.643 133.772 151.488 133.277 151.177C132.784 150.863 132.406 150.431 132.141 149.88C131.876 149.329 131.744 148.698 131.744 147.987C131.744 147.267 131.88 146.631 132.15 146.08C132.421 145.526 132.803 145.094 133.295 144.783C133.788 144.472 134.368 144.317 135.036 144.317C135.574 144.317 136.054 144.417 136.476 144.617C136.898 144.814 137.238 145.091 137.496 145.448C137.758 145.805 137.913 146.222 137.963 146.699H136.619C136.545 146.366 136.376 146.08 136.111 145.84C135.85 145.6 135.499 145.48 135.059 145.48C134.674 145.48 134.337 145.582 134.048 145.785C133.762 145.985 133.538 146.271 133.378 146.643C133.218 147.013 133.138 147.45 133.138 147.955C133.138 148.472 133.217 148.918 133.374 149.293C133.531 149.669 133.752 149.96 134.039 150.166C134.328 150.372 134.668 150.475 135.059 150.475C135.32 150.475 135.557 150.427 135.77 150.332C135.985 150.234 136.165 150.094 136.31 149.912C136.458 149.73 136.561 149.512 136.619 149.256H137.963C137.913 149.715 137.764 150.124 137.515 150.484C137.265 150.844 136.932 151.128 136.513 151.334C136.097 151.54 135.61 151.643 135.05 151.643ZM141.502 151.657C141.053 151.657 140.647 151.574 140.283 151.408C139.92 151.238 139.633 150.994 139.42 150.674C139.211 150.354 139.106 149.961 139.106 149.496C139.106 149.096 139.183 148.767 139.337 148.509C139.491 148.25 139.699 148.045 139.96 147.895C140.222 147.744 140.514 147.63 140.837 147.553C141.161 147.476 141.49 147.417 141.825 147.377C142.25 147.328 142.595 147.288 142.859 147.257C143.124 147.224 143.316 147.17 143.437 147.096C143.557 147.022 143.617 146.902 143.617 146.736V146.703C143.617 146.3 143.503 145.988 143.275 145.766C143.05 145.545 142.715 145.434 142.269 145.434C141.804 145.434 141.438 145.537 141.17 145.743C140.905 145.946 140.722 146.173 140.62 146.422L139.323 146.126C139.477 145.696 139.702 145.348 139.997 145.083C140.296 144.815 140.639 144.621 141.027 144.501C141.415 144.378 141.822 144.317 142.25 144.317C142.533 144.317 142.833 144.351 143.15 144.418C143.47 144.483 143.769 144.603 144.046 144.778C144.326 144.954 144.555 145.205 144.734 145.531C144.912 145.854 145.002 146.274 145.002 146.791V151.5H143.653V150.531H143.598C143.509 150.709 143.375 150.884 143.196 151.057C143.018 151.229 142.789 151.372 142.509 151.486C142.229 151.6 141.893 151.657 141.502 151.657ZM141.802 150.549C142.184 150.549 142.51 150.474 142.781 150.323C143.055 150.172 143.263 149.975 143.404 149.732C143.549 149.486 143.621 149.223 143.621 148.942V148.028C143.572 148.078 143.477 148.124 143.335 148.167C143.196 148.207 143.038 148.242 142.859 148.273C142.681 148.301 142.507 148.327 142.338 148.352C142.169 148.373 142.027 148.392 141.913 148.407C141.645 148.441 141.401 148.498 141.179 148.578C140.961 148.658 140.785 148.773 140.653 148.924C140.524 149.072 140.459 149.269 140.459 149.515C140.459 149.857 140.585 150.115 140.837 150.29C141.09 150.463 141.411 150.549 141.802 150.549ZM150.15 144.409V145.517H146.277V144.409H150.15ZM147.316 142.71H148.696V149.418C148.696 149.686 148.736 149.887 148.816 150.023C148.896 150.155 148.999 150.246 149.125 150.295C149.254 150.341 149.394 150.364 149.545 150.364C149.656 150.364 149.753 150.357 149.836 150.341C149.919 150.326 149.984 150.314 150.03 150.304L150.279 151.445C150.199 151.475 150.085 151.506 149.938 151.537C149.79 151.571 149.605 151.589 149.384 151.592C149.021 151.598 148.682 151.534 148.368 151.398C148.054 151.263 147.8 151.054 147.606 150.771C147.412 150.487 147.316 150.132 147.316 149.704V142.71ZM151.677 151.5V144.409H153.057V151.5H151.677ZM152.374 143.315C152.134 143.315 151.928 143.235 151.755 143.075C151.586 142.912 151.502 142.718 151.502 142.493C151.502 142.266 151.586 142.072 151.755 141.912C151.928 141.748 152.134 141.667 152.374 141.667C152.614 141.667 152.819 141.748 152.988 141.912C153.16 142.072 153.247 142.266 153.247 142.493C153.247 142.718 153.16 142.912 152.988 143.075C152.819 143.235 152.614 143.315 152.374 143.315ZM157.901 151.643C157.236 151.643 156.656 151.491 156.161 151.186C155.665 150.881 155.28 150.455 155.007 149.907C154.733 149.359 154.596 148.719 154.596 147.987C154.596 147.251 154.733 146.608 155.007 146.057C155.28 145.506 155.665 145.078 156.161 144.774C156.656 144.469 157.236 144.317 157.901 144.317C158.566 144.317 159.146 144.469 159.642 144.774C160.137 145.078 160.522 145.506 160.796 146.057C161.07 146.608 161.206 147.251 161.206 147.987C161.206 148.719 161.07 149.359 160.796 149.907C160.522 150.455 160.137 150.881 159.642 151.186C159.146 151.491 158.566 151.643 157.901 151.643ZM157.906 150.484C158.337 150.484 158.694 150.371 158.977 150.143C159.26 149.915 159.469 149.612 159.605 149.233C159.743 148.855 159.812 148.438 159.812 147.982C159.812 147.53 159.743 147.114 159.605 146.736C159.469 146.354 159.26 146.048 158.977 145.817C158.694 145.586 158.337 145.471 157.906 145.471C157.472 145.471 157.112 145.586 156.825 145.817C156.542 146.048 156.331 146.354 156.193 146.736C156.058 147.114 155.99 147.53 155.99 147.982C155.99 148.438 156.058 148.855 156.193 149.233C156.331 149.612 156.542 149.915 156.825 150.143C157.112 150.371 157.472 150.484 157.906 150.484ZM164.128 147.29V151.5H162.747V144.409H164.072V145.563H164.16C164.323 145.188 164.578 144.886 164.926 144.658C165.277 144.431 165.719 144.317 166.251 144.317C166.734 144.317 167.158 144.418 167.521 144.621C167.884 144.821 168.165 145.12 168.366 145.517C168.566 145.914 168.666 146.405 168.666 146.99V151.5H167.285V147.156C167.285 146.642 167.151 146.24 166.884 145.951C166.616 145.659 166.248 145.512 165.78 145.512C165.46 145.512 165.176 145.582 164.926 145.72C164.68 145.859 164.485 146.062 164.34 146.33C164.198 146.594 164.128 146.914 164.128 147.29Z" fill="#696969"/>
<mask id="path-19-inside-5_1_172" fill="white">
<path d="M272 147C272 142.582 275.582 139 280 139H295C299.418 139 303 142.582 303 147C303 151.418 299.418 155 295 155H280C275.582 155 272 151.418 272 147Z"/>
</mask>
<path d="M272 147C272 142.582 275.582 139 280 139H295C299.418 139 303 142.582 303 147C303 151.418 299.418 155 295 155H280C275.582 155 272 151.418 272 147Z" fill="url(#paint8_linear_1_172)"/>
<path d="M280 140H295V138H280V140ZM295 154H280V156H295V154ZM280 154C276.134 154 273 150.866 273 147H271C271 151.971 275.029 156 280 156V154ZM302 147C302 150.866 298.866 154 295 154V156C299.971 156 304 151.971 304 147H302ZM295 140C298.866 140 302 143.134 302 147H304C304 142.029 299.971 138 295 138V140ZM280 138C275.029 138 271 142.029 271 147H273C273 143.134 276.134 140 280 140V138Z" fill="url(#paint9_linear_1_172)" mask="url(#path-19-inside-5_1_172)"/>
<circle cx="295" cy="147" r="6" fill="white"/>
<path d="M47.0387 183.5V174.045H52.9016V175.273H48.4652V178.154H52.4815V179.377H48.4652V183.5H47.0387ZM57.0115 183.643C56.3467 183.643 55.7665 183.491 55.271 183.186C54.7755 182.881 54.3908 182.455 54.1169 181.907C53.843 181.359 53.7061 180.719 53.7061 179.987C53.7061 179.251 53.843 178.608 54.1169 178.057C54.3908 177.506 54.7755 177.078 55.271 176.774C55.7665 176.469 56.3467 176.317 57.0115 176.317C57.6762 176.317 58.2564 176.469 58.7519 176.774C59.2474 177.078 59.6321 177.506 59.906 178.057C60.1799 178.608 60.3169 179.251 60.3169 179.987C60.3169 180.719 60.1799 181.359 59.906 181.907C59.6321 182.455 59.2474 182.881 58.7519 183.186C58.2564 183.491 57.6762 183.643 57.0115 183.643ZM57.0161 182.484C57.4469 182.484 57.8039 182.371 58.0871 182.143C58.3702 181.915 58.5795 181.612 58.7149 181.233C58.8534 180.855 58.9227 180.438 58.9227 179.982C58.9227 179.53 58.8534 179.114 58.7149 178.736C58.5795 178.354 58.3702 178.048 58.0871 177.817C57.8039 177.586 57.4469 177.471 57.0161 177.471C56.5821 177.471 56.222 177.586 55.9358 177.817C55.6527 178.048 55.4419 178.354 55.3034 178.736C55.1679 179.114 55.1002 179.53 55.1002 179.982C55.1002 180.438 55.1679 180.855 55.3034 181.233C55.4419 181.612 55.6527 181.915 55.9358 182.143C56.222 182.371 56.5821 182.484 57.0161 182.484ZM63.2379 174.045V183.5H61.8576V174.045H63.2379ZM66.4752 174.045V183.5H65.0949V174.045H66.4752ZM71.3191 183.643C70.6543 183.643 70.0742 183.491 69.5787 183.186C69.0832 182.881 68.6984 182.455 68.4245 181.907C68.1506 181.359 68.0137 180.719 68.0137 179.987C68.0137 179.251 68.1506 178.608 68.4245 178.057C68.6984 177.506 69.0832 177.078 69.5787 176.774C70.0742 176.469 70.6543 176.317 71.3191 176.317C71.9838 176.317 72.564 176.469 73.0595 176.774C73.555 177.078 73.9397 177.506 74.2136 178.057C74.4875 178.608 74.6245 179.251 74.6245 179.987C74.6245 180.719 74.4875 181.359 74.2136 181.907C73.9397 182.455 73.555 182.881 73.0595 183.186C72.564 183.491 71.9838 183.643 71.3191 183.643ZM71.3237 182.484C71.7546 182.484 72.1116 182.371 72.3947 182.143C72.6779 181.915 72.8871 181.612 73.0225 181.233C73.161 180.855 73.2303 180.438 73.2303 179.982C73.2303 179.53 73.161 179.114 73.0225 178.736C72.8871 178.354 72.6779 178.048 72.3947 177.817C72.1116 177.586 71.7546 177.471 71.3237 177.471C70.8897 177.471 70.5297 177.586 70.2434 177.817C69.9603 178.048 69.7495 178.354 69.611 178.736C69.4756 179.114 69.4078 179.53 69.4078 179.982C69.4078 180.438 69.4756 180.855 69.611 181.233C69.7495 181.612 69.9603 181.915 70.2434 182.143C70.5297 182.371 70.8897 182.484 71.3237 182.484ZM77.4867 183.5L75.4 176.409H76.8265L78.2161 181.616H78.2853L79.6795 176.409H81.106L82.4909 181.593H82.5602L83.9405 176.409H85.367L83.285 183.5H81.877L80.4366 178.38H80.3304L78.8901 183.5H77.4867ZM93.7182 173.602L90.6713 184.922H89.4387L92.4856 173.602H93.7182ZM104.522 174.045H105.953V180.264C105.953 180.926 105.798 181.512 105.487 182.023C105.176 182.531 104.739 182.931 104.176 183.223C103.612 183.512 102.952 183.657 102.195 183.657C101.441 183.657 100.783 183.512 100.219 183.223C99.6562 182.931 99.2191 182.531 98.9083 182.023C98.5974 181.512 98.442 180.926 98.442 180.264V174.045H99.8685V180.148C99.8685 180.576 99.9624 180.956 100.15 181.289C100.341 181.621 100.61 181.883 100.958 182.074C101.306 182.261 101.718 182.355 102.195 182.355C102.675 182.355 103.089 182.261 103.437 182.074C103.788 181.883 104.056 181.621 104.24 181.289C104.428 180.956 104.522 180.576 104.522 180.148V174.045ZM109.297 179.29V183.5H107.916V176.409H109.241V177.563H109.329C109.492 177.188 109.747 176.886 110.095 176.658C110.446 176.431 110.888 176.317 111.42 176.317C111.903 176.317 112.326 176.418 112.69 176.621C113.053 176.821 113.334 177.12 113.534 177.517C113.734 177.914 113.835 178.405 113.835 178.99V183.5H112.454V179.156C112.454 178.642 112.32 178.24 112.053 177.951C111.785 177.659 111.417 177.512 110.949 177.512C110.629 177.512 110.344 177.582 110.095 177.72C109.849 177.859 109.654 178.062 109.509 178.33C109.367 178.594 109.297 178.914 109.297 179.29ZM119.06 176.409V177.517H115.053V176.409H119.06ZM116.152 183.5V175.587C116.152 175.144 116.249 174.776 116.443 174.484C116.637 174.189 116.894 173.969 117.214 173.824C117.534 173.676 117.882 173.602 118.257 173.602C118.534 173.602 118.771 173.625 118.968 173.672C119.165 173.715 119.311 173.755 119.407 173.792L119.083 174.909C119.019 174.89 118.936 174.869 118.834 174.844C118.733 174.816 118.609 174.803 118.465 174.803C118.129 174.803 117.889 174.886 117.745 175.052C117.603 175.218 117.532 175.458 117.532 175.772V183.5H116.152ZM123.192 183.643C122.527 183.643 121.947 183.491 121.452 183.186C120.956 182.881 120.571 182.455 120.298 181.907C120.024 181.359 119.887 180.719 119.887 179.987C119.887 179.251 120.024 178.608 120.298 178.057C120.571 177.506 120.956 177.078 121.452 176.774C121.947 176.469 122.527 176.317 123.192 176.317C123.857 176.317 124.437 176.469 124.933 176.774C125.428 177.078 125.813 177.506 126.087 178.057C126.361 178.608 126.498 179.251 126.498 179.987C126.498 180.719 126.361 181.359 126.087 181.907C125.813 182.455 125.428 182.881 124.933 183.186C124.437 183.491 123.857 183.643 123.192 183.643ZM123.197 182.484C123.628 182.484 123.985 182.371 124.268 182.143C124.551 181.915 124.76 181.612 124.896 181.233C125.034 180.855 125.103 180.438 125.103 179.982C125.103 179.53 125.034 179.114 124.896 178.736C124.76 178.354 124.551 178.048 124.268 177.817C123.985 177.586 123.628 177.471 123.197 177.471C122.763 177.471 122.403 177.586 122.116 177.817C121.833 178.048 121.623 178.354 121.484 178.736C121.349 179.114 121.281 179.53 121.281 179.982C121.281 180.438 121.349 180.855 121.484 181.233C121.623 181.612 121.833 181.915 122.116 182.143C122.403 182.371 122.763 182.484 123.197 182.484ZM129.419 174.045V183.5H128.038V174.045H129.419ZM132.656 174.045V183.5H131.276V174.045H132.656ZM137.5 183.643C136.835 183.643 136.255 183.491 135.759 183.186C135.264 182.881 134.879 182.455 134.605 181.907C134.331 181.359 134.194 180.719 134.194 179.987C134.194 179.251 134.331 178.608 134.605 178.057C134.879 177.506 135.264 177.078 135.759 176.774C136.255 176.469 136.835 176.317 137.5 176.317C138.165 176.317 138.745 176.469 139.24 176.774C139.736 177.078 140.12 177.506 140.394 178.057C140.668 178.608 140.805 179.251 140.805 179.987C140.805 180.719 140.668 181.359 140.394 181.907C140.12 182.455 139.736 182.881 139.24 183.186C138.745 183.491 138.165 183.643 137.5 183.643ZM137.504 182.484C137.935 182.484 138.292 182.371 138.575 182.143C138.859 181.915 139.068 181.612 139.203 181.233C139.342 180.855 139.411 180.438 139.411 179.982C139.411 179.53 139.342 179.114 139.203 178.736C139.068 178.354 138.859 178.048 138.575 177.817C138.292 177.586 137.935 177.471 137.504 177.471C137.07 177.471 136.71 177.586 136.424 177.817C136.141 178.048 135.93 178.354 135.792 178.736C135.656 179.114 135.589 179.53 135.589 179.982C135.589 180.438 135.656 180.855 135.792 181.233C135.93 181.612 136.141 181.915 136.424 182.143C136.71 182.371 137.07 182.484 137.504 182.484ZM143.667 183.5L141.581 176.409H143.007L144.397 181.616H144.466L145.86 176.409H147.287L148.672 181.593H148.741L150.121 176.409H151.548L149.466 183.5H148.058L146.617 178.38H146.511L145.071 183.5H143.667Z" fill="#696969"/>
<mask id="path-23-inside-6_1_172" fill="white">
<path d="M272 179C272 174.582 275.582 171 280 171H295C299.418 171 303 174.582 303 179C303 183.418 299.418 187 295 187H280C275.582 187 272 183.418 272 179Z"/>
</mask>
<path d="M272 179C272 174.582 275.582 171 280 171H295C299.418 171 303 174.582 303 179C303 183.418 299.418 187 295 187H280C275.582 187 272 183.418 272 179Z" fill="url(#paint10_linear_1_172)"/>
<path d="M280 172H295V170H280V172ZM295 186H280V188H295V186ZM280 186C276.134 186 273 182.866 273 179H271C271 183.971 275.029 188 280 188V186ZM302 179C302 182.866 298.866 186 295 186V188C299.971 188 304 183.971 304 179H302ZM295 172C298.866 172 302 175.134 302 179H304C304 174.029 299.971 170 295 170V172ZM280 170C275.029 170 271 174.029 271 179H273C273 175.134 276.134 172 280 172V170Z" fill="url(#paint11_linear_1_172)" mask="url(#path-23-inside-6_1_172)"/>
<circle cx="295" cy="179" r="6" fill="white"/>
</g>
<defs>
<filter id="filter0_dddddd_1_172" x="6" y="-11" width="337" height="270" filterUnits="userSpaceOnUse" color-interpolation-filters="sRGB">
<feFlood flood-opacity="0" result="BackgroundImageFix"/>
<feColorMatrix in="SourceAlpha" type="matrix" values="0 0 0 0 0 0 0 0 0 0 0 0 0 0 0 0 0 0 127 0" result="hardAlpha"/>
<feMorphology radius="16" operator="erode" in="SourceAlpha" result="effect1_dropShadow_1_172"/>
<feOffset dy="32"/>
<feGaussianBlur stdDeviation="16"/>
<feComposite in2="hardAlpha" operator="out"/>
<feColorMatrix type="matrix" values="0 0 0 0 0.121569 0 0 0 0 0.0352941 0 0 0 0 0.305882 0 0 0 0.04 0"/>
<feBlend mode="normal" in2="BackgroundImageFix" result="effect1_dropShadow_1_172"/>
<feColorMatrix in="SourceAlpha" type="matrix" values="0 0 0 0 0 0 0 0 0 0 0 0 0 0 0 0 0 0 127 0" result="hardAlpha"/>
<feMorphology radius="12" operator="erode" in="SourceAlpha" result="effect2_dropShadow_1_172"/>
<feOffset dy="24"/>
<feGaussianBlur stdDeviation="12"/>
<feComposite in2="hardAlpha" operator="out"/>
<feColorMatrix type="matrix" values="0 0 0 0 0.121569 0 0 0 0 0.0352941 0 0 0 0 0.305882 0 0 0 0.04 0"/>
<feBlend mode="normal" in2="effect1_dropShadow_1_172" result="effect2_dropShadow_1_172"/>
<feColorMatrix in="SourceAlpha" type="matrix" values="0 0 0 0 0 0 0 0 0 0 0 0 0 0 0 0 0 0 127 0" result="hardAlpha"/>
<feMorphology radius="6" operator="erode" in="SourceAlpha" result="effect3_dropShadow_1_172"/>
<feOffset dy="12"/>
<feGaussianBlur stdDeviation="6"/>
<feComposite in2="hardAlpha" operator="out"/>
<feColorMatrix type="matrix" values="0 0 0 0 0.121569 0 0 0 0 0.0352941 0 0 0 0 0.305882 0 0 0 0.04 0"/>
<feBlend mode="normal" in2="effect2_dropShadow_1_172" result="effect3_dropShadow_1_172"/>
<feColorMatrix in="SourceAlpha" type="matrix" values="0 0 0 0 0 0 0 0 0 0 0 0 0 0 0 0 0 0 127 0" result="hardAlpha"/>
<feMorphology radius="3" operator="erode" in="SourceAlpha" result="effect4_dropShadow_1_172"/>
<feOffset dy="6"/>
<feGaussianBlur stdDeviation="3"/>
<feComposite in2="hardAlpha" operator="out"/>
<feColorMatrix type="matrix" values="0 0 0 0 0.121569 0 0 0 0 0.0352941 0 0 0 0 0.305882 0 0 0 0.04 0"/>
<feBlend mode="normal" in2="effect3_dropShadow_1_172" result="effect4_dropShadow_1_172"/>
<feColorMatrix in="SourceAlpha" type="matrix" values="0 0 0 0 0 0 0 0 0 0 0 0 0 0 0 0 0 0 127 0" result="hardAlpha"/>
<feMorphology radius="1.5" operator="erode" in="SourceAlpha" result="effect5_dropShadow_1_172"/>
<feOffset dy="3"/>
<feGaussianBlur stdDeviation="1.5"/>
<feComposite in2="hardAlpha" operator="out"/>
<feColorMatrix type="matrix" values="0 0 0 0 0.121569 0 0 0 0 0.0352941 0 0 0 0 0.305882 0 0 0 0.04 0"/>
<feBlend mode="normal" in2="effect4_dropShadow_1_172" result="effect5_dropShadow_1_172"/>
<feColorMatrix in="SourceAlpha" type="matrix" values="0 0 0 0 0 0 0 0 0 0 0 0 0 0 0 0 0 0 127 0" result="hardAlpha"/>
<feMorphology radius="1" operator="dilate" in="SourceAlpha" result="effect6_dropShadow_1_172"/>
<feOffset/>
<feComposite in2="hardAlpha" operator="out"/>
<feColorMatrix type="matrix" values="0 0 0 0 0.121569 0 0 0 0 0.0352941 0 0 0 0 0.305882 0 0 0 0.04 0"/>
<feBlend mode="normal" in2="effect5_dropShadow_1_172" result="effect6_dropShadow_1_172"/>
<feBlend mode="normal" in="SourceGraphic" in2="effect6_dropShadow_1_172" result="shape"/>
</filter>
<linearGradient id="paint0_linear_1_172" x1="272" y1="19" x2="303" y2="19" gradientUnits="userSpaceOnUse">
<stop offset="1"/>
</linearGradient>
<linearGradient id="paint1_linear_1_172" x1="272" y1="19" x2="303" y2="19" gradientUnits="userSpaceOnUse">
<stop offset="1"/>
</linearGradient>
<linearGradient id="paint2_linear_1_172" x1="272" y1="51" x2="303" y2="51" gradientUnits="userSpaceOnUse">
<stop offset="1"/>
</linearGradient>
<linearGradient id="paint3_linear_1_172" x1="272" y1="51" x2="303" y2="51" gradientUnits="userSpaceOnUse">
<stop offset="1"/>
</linearGradient>
<linearGradient id="paint4_linear_1_172" x1="272" y1="83" x2="303" y2="83" gradientUnits="userSpaceOnUse">
<stop offset="1"/>
</linearGradient>
<linearGradient id="paint5_linear_1_172" x1="272" y1="83" x2="303" y2="83" gradientUnits="userSpaceOnUse">
<stop offset="1"/>
</linearGradient>
<linearGradient id="paint6_linear_1_172" x1="272" y1="115" x2="303" y2="115" gradientUnits="userSpaceOnUse">
<stop offset="1"/>
</linearGradient>
<linearGradient id="paint7_linear_1_172" x1="272" y1="115" x2="303" y2="115" gradientUnits="userSpaceOnUse">
<stop offset="1"/>
</linearGradient>
<linearGradient id="paint8_linear_1_172" x1="272" y1="147" x2="303" y2="147" gradientUnits="userSpaceOnUse">
<stop offset="1"/>
</linearGradient>
<linearGradient id="paint9_linear_1_172" x1="272" y1="147" x2="303" y2="147" gradientUnits="userSpaceOnUse">
<stop offset="1"/>
</linearGradient>
<linearGradient id="paint10_linear_1_172" x1="272" y1="179" x2="303" y2="179" gradientUnits="userSpaceOnUse">
<stop offset="1"/>
</linearGradient>
<linearGradient id="paint11_linear_1_172" x1="272" y1="179" x2="303" y2="179" gradientUnits="userSpaceOnUse">
<stop offset="1"/>
</linearGradient>
</defs>
</svg>
