<svg width="612" height="259" viewBox="0 0 612 259" fill="none" xmlns="http://www.w3.org/2000/svg">
<g filter="url(#filter0_dddddd_1_205)">
<g clip-path="url(#clip0_1_205)">
<path d="M24 40C24 31.1634 31.1634 24 40 24H612V211H40C31.1634 211 24 203.837 24 195V40Z" fill="white"/>
<path d="M42.1138 59.8927V58.786L46.9961 51.0611H47.799V52.7753H47.2565L43.5676 58.6125V58.6993H50.1425V59.8927H42.1138ZM47.3433 62.1711V59.5564V59.041V51.0611H48.6236V62.1711H47.3433ZM52.6081 62.2579C52.3405 62.2579 52.1108 62.1621 51.9191 61.9704C51.7275 61.7787 51.6316 61.5491 51.6316 61.2815C51.6316 61.0138 51.7275 60.7842 51.9191 60.5925C52.1108 60.4008 52.3405 60.305 52.6081 60.305C52.8757 60.305 53.1054 60.4008 53.2971 60.5925C53.4887 60.7842 53.5846 61.0138 53.5846 61.2815C53.5846 61.4587 53.5394 61.6214 53.4489 61.7697C53.3622 61.918 53.2446 62.0373 53.0963 62.1277C52.9517 62.2145 52.7889 62.2579 52.6081 62.2579ZM55.8603 62.1711V61.1947L59.5275 57.1803C59.9578 56.7101 60.3123 56.3015 60.5907 55.9543C60.8692 55.6035 61.0754 55.2744 61.2092 54.967C61.3466 54.6559 61.4153 54.3305 61.4153 53.9905C61.4153 53.5999 61.3213 53.2618 61.1332 52.9761C60.9488 52.6904 60.6956 52.4697 60.3737 52.3142C60.0519 52.1587 59.6902 52.081 59.2888 52.081C58.862 52.081 58.4895 52.1696 58.1713 52.3468C57.8566 52.5204 57.6125 52.7645 57.4389 53.0791C57.2689 53.3938 57.1839 53.7627 57.1839 54.1858H55.9037C55.9037 53.5348 56.0538 52.9634 56.3539 52.4716C56.6541 51.9797 57.0628 51.5963 57.58 51.3215C58.1007 51.0466 58.6848 50.9092 59.3322 50.9092C59.9832 50.9092 60.56 51.0466 61.0627 51.3215C61.5654 51.5963 61.9596 51.967 62.2453 52.4336C62.531 52.9001 62.6739 53.4191 62.6739 53.9905C62.6739 54.3992 62.5997 54.7988 62.4515 55.1894C62.3068 55.5764 62.0536 56.0085 61.692 56.4859C61.3339 56.9597 60.8367 57.5383 60.2001 58.2219L57.7047 60.8909V60.9777H62.8692V62.1711H55.8603ZM65.1313 62.1711V53.8386H66.3682V55.1406H66.4767C66.6503 54.6957 66.9306 54.3503 67.3175 54.1044C67.7045 53.8549 68.1692 53.7301 68.7117 53.7301C69.2614 53.7301 69.7189 53.8549 70.0842 54.1044C70.4531 54.3503 70.7406 54.6957 70.9467 55.1406H71.0335C71.2469 54.7102 71.567 54.3684 71.9937 54.1153C72.4205 53.8585 72.9322 53.7301 73.529 53.7301C74.274 53.7301 74.8833 53.9634 75.3571 54.4299C75.8309 54.8928 76.0678 55.6143 76.0678 56.5944V62.1711H74.7875V56.5944C74.7875 55.9796 74.6193 55.5402 74.283 55.2762C73.9467 55.0122 73.5506 54.8802 73.095 54.8802C72.5091 54.8802 72.0552 55.0574 71.7333 55.4118C71.4115 55.7626 71.2505 56.2074 71.2505 56.7463V62.1711H69.9486V56.4642C69.9486 55.9905 69.7949 55.6089 69.4875 55.3196C69.18 55.0266 68.784 54.8802 68.2994 54.8802C67.9667 54.8802 67.6557 54.9688 67.3663 55.146C67.0806 55.3232 66.8492 55.5691 66.672 55.8838C66.4984 56.1948 66.4116 56.5546 66.4116 56.9633V62.1711H65.1313Z" fill="black" fill-opacity="0.4"/>
<path d="M42.583 110.066V109.089L46.2502 105.075C46.6806 104.605 47.035 104.196 47.3135 103.849C47.5919 103.498 47.7981 103.169 47.9319 102.862C48.0693 102.551 48.138 102.225 48.138 101.885C48.138 101.495 48.044 101.157 47.8559 100.871C47.6715 100.585 47.4183 100.365 47.0965 100.209C46.7746 100.053 46.4129 99.9757 46.0115 99.9757C45.5848 99.9757 45.2122 100.064 44.894 100.242C44.5794 100.415 44.3352 100.659 44.1616 100.974C43.9917 101.289 43.9067 101.657 43.9067 102.081H42.6264C42.6264 101.43 42.7765 100.858 43.0767 100.366C43.3768 99.8745 43.7855 99.4911 44.3027 99.2163C44.8235 98.9414 45.4075 98.804 46.0549 98.804C46.7059 98.804 47.2827 98.9414 47.7854 99.2163C48.2881 99.4911 48.6823 99.8618 48.968 100.328C49.2537 100.795 49.3966 101.314 49.3966 101.885C49.3966 102.294 49.3225 102.694 49.1742 103.084C49.0295 103.471 48.7764 103.903 48.4147 104.381C48.0567 104.854 47.5594 105.433 46.9229 106.117L44.4275 108.786V108.872H49.5919V110.066H42.583ZM52.7871 110.153C52.5195 110.153 52.2898 110.057 52.0982 109.865C51.9065 109.674 51.8106 109.444 51.8106 109.176C51.8106 108.909 51.9065 108.679 52.0982 108.487C52.2898 108.296 52.5195 108.2 52.7871 108.2C53.0547 108.2 53.2844 108.296 53.4761 108.487C53.6677 108.679 53.7636 108.909 53.7636 109.176C53.7636 109.353 53.7184 109.516 53.628 109.664C53.5412 109.813 53.4236 109.932 53.2754 110.023C53.1307 110.109 52.9679 110.153 52.7871 110.153ZM59.2549 110.218C58.5099 110.218 57.8516 110.086 57.2802 109.822C56.7124 109.554 56.2694 109.187 55.9511 108.721C55.6329 108.25 55.4756 107.715 55.4792 107.115C55.4756 106.645 55.5678 106.211 55.7559 105.813C55.9439 105.411 56.2007 105.077 56.5262 104.809C56.8553 104.538 57.2224 104.366 57.6274 104.294V104.229C57.0958 104.091 56.6727 103.793 56.358 103.334C56.0434 102.871 55.8879 102.345 55.8915 101.755C55.8879 101.191 56.0307 100.686 56.32 100.242C56.6094 99.7967 57.0072 99.4459 57.5135 99.1891C58.0234 98.9324 58.6039 98.804 59.2549 98.804C59.8986 98.804 60.4736 98.9324 60.98 99.1891C61.4863 99.4459 61.8841 99.7967 62.1734 100.242C62.4664 100.686 62.6146 101.191 62.6183 101.755C62.6146 102.345 62.4537 102.871 62.1355 103.334C61.8208 103.793 61.4031 104.091 60.8823 104.229V104.294C61.2838 104.366 61.6454 104.538 61.9673 104.809C62.2892 105.077 62.5459 105.411 62.7376 105.813C62.9293 106.211 63.0269 106.645 63.0305 107.115C63.0269 107.715 62.8642 108.25 62.5423 108.721C62.2241 109.187 61.781 109.554 61.2132 109.822C60.649 110.086 59.9963 110.218 59.2549 110.218ZM59.2549 109.024C59.7576 109.024 60.1916 108.943 60.5568 108.78C60.9221 108.617 61.2042 108.388 61.4031 108.091C61.602 107.795 61.7033 107.448 61.7069 107.05C61.7033 106.63 61.5948 106.259 61.3814 105.938C61.168 105.616 60.8769 105.363 60.508 105.178C60.1427 104.994 59.725 104.901 59.2549 104.901C58.7811 104.901 58.358 104.994 57.9855 105.178C57.6166 105.363 57.3254 105.616 57.1121 105.938C56.9023 106.259 56.7992 106.63 56.8028 107.05C56.7992 107.448 56.8951 107.795 57.0904 108.091C57.2893 108.388 57.5732 108.617 57.9421 108.78C58.3109 108.943 58.7486 109.024 59.2549 109.024ZM59.2549 103.751C59.6527 103.751 60.0053 103.672 60.3127 103.513C60.6237 103.354 60.8679 103.131 61.0451 102.845C61.2223 102.56 61.3127 102.225 61.3163 101.842C61.3127 101.466 61.2241 101.138 61.0505 100.86C60.8769 100.578 60.6364 100.361 60.329 100.209C60.0216 100.053 59.6635 99.9757 59.2549 99.9757C58.839 99.9757 58.4755 100.053 58.1645 100.209C57.8535 100.361 57.613 100.578 57.443 100.86C57.273 101.138 57.1898 101.466 57.1934 101.842C57.1898 102.225 57.2748 102.56 57.4484 102.845C57.6256 103.131 57.8697 103.354 58.1808 103.513C58.4918 103.672 58.8498 103.751 59.2549 103.751ZM65.1313 110.066V101.733H66.3682V103.035H66.4767C66.6503 102.591 66.9305 102.245 67.3175 101.999C67.7045 101.75 68.1692 101.625 68.7117 101.625C69.2614 101.625 69.7189 101.75 70.0842 101.999C70.4531 102.245 70.7406 102.591 70.9467 103.035H71.0335C71.2469 102.605 71.567 102.263 71.9937 102.01C72.4205 101.753 72.9322 101.625 73.5289 101.625C74.274 101.625 74.8833 101.858 75.3571 102.325C75.8309 102.788 76.0678 103.509 76.0678 104.489V110.066H74.7875V104.489C74.7875 103.874 74.6193 103.435 74.283 103.171C73.9467 102.907 73.5506 102.775 73.095 102.775C72.5091 102.775 72.0552 102.952 71.7333 103.307C71.4115 103.657 71.2505 104.102 71.2505 104.641V110.066H69.9486V104.359C69.9486 103.885 69.7949 103.504 69.4875 103.214C69.18 102.921 68.784 102.775 68.2994 102.775C67.9667 102.775 67.6557 102.864 67.3663 103.041C67.0806 103.218 66.8492 103.464 66.672 103.779C66.4984 104.09 66.4116 104.449 66.4116 104.858V110.066H65.1313Z" fill="black" fill-opacity="0.4"/>
<path d="M49.1145 146.851V157.961H47.7692V148.261H47.7041L44.9916 150.062V148.695L47.7692 146.851H49.1145ZM52.6081 158.047C52.3405 158.047 52.1108 157.952 51.9191 157.76C51.7275 157.568 51.6316 157.339 51.6316 157.071C51.6316 156.803 51.7275 156.574 51.9191 156.382C52.1108 156.19 52.3405 156.095 52.6081 156.095C52.8757 156.095 53.1054 156.19 53.2971 156.382C53.4887 156.574 53.5846 156.803 53.5846 157.071C53.5846 157.248 53.5394 157.411 53.4489 157.559C53.3622 157.708 53.2446 157.827 53.0963 157.917C52.9517 158.004 52.7889 158.047 52.6081 158.047ZM55.8603 157.961V156.984L59.5275 152.97C59.9578 152.5 60.3123 152.091 60.5907 151.744C60.8692 151.393 61.0754 151.064 61.2092 150.757C61.3466 150.445 61.4153 150.12 61.4153 149.78C61.4153 149.389 61.3213 149.051 61.1332 148.766C60.9488 148.48 60.6956 148.259 60.3737 148.104C60.0519 147.948 59.6902 147.871 59.2888 147.871C58.862 147.871 58.4895 147.959 58.1713 148.136C57.8566 148.31 57.6125 148.554 57.4389 148.869C57.2689 149.183 57.1839 149.552 57.1839 149.975H55.9037C55.9037 149.324 56.0538 148.753 56.3539 148.261C56.6541 147.769 57.0628 147.386 57.58 147.111C58.1007 146.836 58.6848 146.699 59.3322 146.699C59.9832 146.699 60.56 146.836 61.0627 147.111C61.5654 147.386 61.9596 147.757 62.2453 148.223C62.531 148.69 62.6739 149.209 62.6739 149.78C62.6739 150.189 62.5997 150.588 62.4515 150.979C62.3068 151.366 62.0536 151.798 61.692 152.275C61.3339 152.749 60.8367 153.328 60.2001 154.011L57.7047 156.68V156.767H62.8692V157.961H55.8603ZM65.1313 157.961V149.628H66.3682V150.93H66.4767C66.6503 150.485 66.9306 150.14 67.3175 149.894C67.7045 149.644 68.1692 149.52 68.7117 149.52C69.2614 149.52 69.7189 149.644 70.0842 149.894C70.4531 150.14 70.7406 150.485 70.9467 150.93H71.0335C71.2469 150.5 71.567 150.158 71.9937 149.905C72.4205 149.648 72.9322 149.52 73.529 149.52C74.274 149.52 74.8833 149.753 75.3571 150.219C75.8309 150.682 76.0678 151.404 76.0678 152.384V157.961H74.7875V152.384C74.7875 151.769 74.6193 151.33 74.283 151.066C73.9467 150.802 73.5506 150.67 73.095 150.67C72.5091 150.67 72.0552 150.847 71.7333 151.201C71.4115 151.552 71.2505 151.997 71.2505 152.536V157.961H69.9486V152.254C69.9486 151.78 69.7949 151.398 69.4875 151.109C69.18 150.816 68.784 150.67 68.2994 150.67C67.9667 150.67 67.6557 150.758 67.3663 150.936C67.0806 151.113 66.8492 151.359 66.672 151.673C66.4984 151.984 66.4116 152.344 66.4116 152.753V157.961H65.1313Z" fill="black" fill-opacity="0.4"/>
<line x1="98.2417" y1="64.903" x2="602.469" y2="64.903" stroke="black" stroke-opacity="0.05" stroke-width="1.27303" stroke-linecap="round"/>
<line x1="98.2417" y1="126.434" x2="602.469" y2="126.434" stroke="black" stroke-opacity="0.05" stroke-width="1.27303" stroke-linecap="round"/>
<line x1="98.2417" y1="187.965" x2="602.469" y2="187.965" stroke="black" stroke-opacity="0.05" stroke-width="1.27303" stroke-linecap="round"/>
<mask id="mask0_1_205" style="mask-type:alpha" maskUnits="userSpaceOnUse" x="97" y="78" width="552" height="168">
<path d="M132.469 156.207C116.972 143.585 105.094 148.994 97.6479 156.207V245.319H648.868V78.5527C614.048 78.5527 613.518 109.381 568.715 93.1925C468.108 56.84 423.905 201.342 332.196 122.472C284.708 81.6327 267.43 189.88 212.622 156.207C187.561 140.81 174.666 190.579 132.469 156.207Z" fill="url(#paint0_linear_1_205)"/>
</mask>
<g mask="url(#mask0_1_205)">
<path d="M132.469 156.207C116.972 143.585 105.094 148.994 97.6479 156.207V245.319H648.868V78.5527C614.047 78.5527 613.518 109.381 568.715 93.1925C468.108 56.84 423.905 201.342 332.196 122.472C284.708 81.6327 267.43 189.88 212.622 156.207C187.561 140.81 174.666 190.579 132.469 156.207Z" fill="url(#paint1_linear_1_205)"/>
</g>
<path d="M100.194 156.207C107.64 148.994 116.972 143.585 132.469 156.207C174.666 190.579 187.561 140.81 212.622 156.207C267.43 189.88 284.708 81.6327 332.196 122.472C423.905 201.342 468.108 56.84 568.715 93.1925C613.518 109.381 611.502 78.5527 646.322 78.5527" stroke="#34B57F" stroke-width="2" stroke-linecap="round"/>
</g>
</g>
<defs>
<filter id="filter0_dddddd_1_205" x="8" y="23" width="620" height="236" filterUnits="userSpaceOnUse" color-interpolation-filters="sRGB">
<feFlood flood-opacity="0" result="BackgroundImageFix"/>
<feColorMatrix in="SourceAlpha" type="matrix" values="0 0 0 0 0 0 0 0 0 0 0 0 0 0 0 0 0 0 127 0" result="hardAlpha"/>
<feMorphology radius="16" operator="erode" in="SourceAlpha" result="effect1_dropShadow_1_205"/>
<feOffset dy="32"/>
<feGaussianBlur stdDeviation="16"/>
<feComposite in2="hardAlpha" operator="out"/>
<feColorMatrix type="matrix" values="0 0 0 0 0.121569 0 0 0 0 0.0352941 0 0 0 0 0.305882 0 0 0 0.04 0"/>
<feBlend mode="normal" in2="BackgroundImageFix" result="effect1_dropShadow_1_205"/>
<feColorMatrix in="SourceAlpha" type="matrix" values="0 0 0 0 0 0 0 0 0 0 0 0 0 0 0 0 0 0 127 0" result="hardAlpha"/>
<feMorphology radius="12" operator="erode" in="SourceAlpha" result="effect2_dropShadow_1_205"/>
<feOffset dy="24"/>
<feGaussianBlur stdDeviation="12"/>
<feComposite in2="hardAlpha" operator="out"/>
<feColorMatrix type="matrix" values="0 0 0 0 0.121569 0 0 0 0 0.0352941 0 0 0 0 0.305882 0 0 0 0.04 0"/>
<feBlend mode="normal" in2="effect1_dropShadow_1_205" result="effect2_dropShadow_1_205"/>
<feColorMatrix in="SourceAlpha" type="matrix" values="0 0 0 0 0 0 0 0 0 0 0 0 0 0 0 0 0 0 127 0" result="hardAlpha"/>
<feMorphology radius="6" operator="erode" in="SourceAlpha" result="effect3_dropShadow_1_205"/>
<feOffset dy="12"/>
<feGaussianBlur stdDeviation="6"/>
<feComposite in2="hardAlpha" operator="out"/>
<feColorMatrix type="matrix" values="0 0 0 0 0.121569 0 0 0 0 0.0352941 0 0 0 0 0.305882 0 0 0 0.04 0"/>
<feBlend mode="normal" in2="effect2_dropShadow_1_205" result="effect3_dropShadow_1_205"/>
<feColorMatrix in="SourceAlpha" type="matrix" values="0 0 0 0 0 0 0 0 0 0 0 0 0 0 0 0 0 0 127 0" result="hardAlpha"/>
<feMorphology radius="3" operator="erode" in="SourceAlpha" result="effect4_dropShadow_1_205"/>
<feOffset dy="6"/>
<feGaussianBlur stdDeviation="3"/>
<feComposite in2="hardAlpha" operator="out"/>
<feColorMatrix type="matrix" values="0 0 0 0 0.121569 0 0 0 0 0.0352941 0 0 0 0 0.305882 0 0 0 0.04 0"/>
<feBlend mode="normal" in2="effect3_dropShadow_1_205" result="effect4_dropShadow_1_205"/>
<feColorMatrix in="SourceAlpha" type="matrix" values="0 0 0 0 0 0 0 0 0 0 0 0 0 0 0 0 0 0 127 0" result="hardAlpha"/>
<feMorphology radius="1.5" operator="erode" in="SourceAlpha" result="effect5_dropShadow_1_205"/>
<feOffset dy="3"/>
<feGaussianBlur stdDeviation="1.5"/>
<feComposite in2="hardAlpha" operator="out"/>
<feColorMatrix type="matrix" values="0 0 0 0 0.121569 0 0 0 0 0.0352941 0 0 0 0 0.305882 0 0 0 0.04 0"/>
<feBlend mode="normal" in2="effect4_dropShadow_1_205" result="effect5_dropShadow_1_205"/>
<feColorMatrix in="SourceAlpha" type="matrix" values="0 0 0 0 0 0 0 0 0 0 0 0 0 0 0 0 0 0 127 0" result="hardAlpha"/>
<feMorphology radius="1" operator="dilate" in="SourceAlpha" result="effect6_dropShadow_1_205"/>
<feOffset/>
<feComposite in2="hardAlpha" operator="out"/>
<feColorMatrix type="matrix" values="0 0 0 0 0.121569 0 0 0 0 0.0352941 0 0 0 0 0.305882 0 0 0 0.04 0"/>
<feBlend mode="normal" in2="effect5_dropShadow_1_205" result="effect6_dropShadow_1_205"/>
<feBlend mode="normal" in="SourceGraphic" in2="effect6_dropShadow_1_205" result="shape"/>
</filter>
<linearGradient id="paint0_linear_1_205" x1="97.6479" y1="196.944" x2="648.868" y2="121.199" gradientUnits="userSpaceOnUse">
<stop offset="0.00860117" stop-color="#95A4FC" stop-opacity="0"/>
<stop offset="0.178635" stop-color="#95A4FC"/>
<stop offset="0.63031" stop-color="#95A4FC"/>
<stop offset="1" stop-color="#95A4FC" stop-opacity="0"/>
</linearGradient>
<linearGradient id="paint1_linear_1_205" x1="366.893" y1="78.5527" x2="373.895" y2="182.941" gradientUnits="userSpaceOnUse">
<stop stop-color="#34B57F" stop-opacity="0.4"/>
<stop offset="1" stop-color="#34B57F" stop-opacity="0"/>
</linearGradient>
<clipPath id="clip0_1_205">
<path d="M24 40C24 31.1634 31.1634 24 40 24H612V211H40C31.1634 211 24 203.837 24 195V40Z" fill="white"/>
</clipPath>
</defs>
</svg>
