<svg width="466" height="405" viewBox="0 0 466 405" fill="none" xmlns="http://www.w3.org/2000/svg">
<g filter="url(#filter0_ddddd_1_379)">
<rect x="8" y="1" width="450" height="380" rx="16" fill="white"/>
<path d="M50.6705 36.3636V48H49.0568L43.142 39.4659H43.0341V48H41.2784V36.3636H42.9034L48.8239 44.9091H48.9318V36.3636H50.6705ZM56.4513 48.1761C55.6331 48.1761 54.9191 47.9886 54.3093 47.6136C53.6994 47.2386 53.2259 46.714 52.8888 46.0398C52.5517 45.3655 52.3831 44.5777 52.3831 43.6761C52.3831 42.7708 52.5517 41.9792 52.8888 41.3011C53.2259 40.6231 53.6994 40.0966 54.3093 39.7216C54.9191 39.3466 55.6331 39.1591 56.4513 39.1591C57.2695 39.1591 57.9835 39.3466 58.5934 39.7216C59.2032 40.0966 59.6767 40.6231 60.0138 41.3011C60.3509 41.9792 60.5195 42.7708 60.5195 43.6761C60.5195 44.5777 60.3509 45.3655 60.0138 46.0398C59.6767 46.714 59.2032 47.2386 58.5934 47.6136C57.9835 47.9886 57.2695 48.1761 56.4513 48.1761ZM56.457 46.75C56.9873 46.75 57.4267 46.6098 57.7752 46.3295C58.1237 46.0492 58.3812 45.6761 58.5479 45.2102C58.7184 44.7443 58.8036 44.2311 58.8036 43.6705C58.8036 43.1136 58.7184 42.6023 58.5479 42.1364C58.3812 41.6667 58.1237 41.2898 57.7752 41.0057C57.4267 40.7216 56.9873 40.5795 56.457 40.5795C55.9229 40.5795 55.4797 40.7216 55.1274 41.0057C54.779 41.2898 54.5195 41.6667 54.349 42.1364C54.1824 42.6023 54.099 43.1136 54.099 43.6705C54.099 44.2311 54.1824 44.7443 54.349 45.2102C54.5195 45.6761 54.779 46.0492 55.1274 46.3295C55.4797 46.6098 55.9229 46.75 56.457 46.75ZM62.0958 48V39.2727H63.7265V40.6932H63.8344C64.0163 40.2121 64.3136 39.8371 64.7265 39.5682C65.1394 39.2955 65.6337 39.1591 66.2094 39.1591C66.7928 39.1591 67.2814 39.2955 67.6753 39.5682C68.0731 39.8409 68.3666 40.2159 68.556 40.6932H68.6469C68.8553 40.2273 69.1867 39.8561 69.6413 39.5795C70.0958 39.2992 70.6375 39.1591 71.2663 39.1591C72.0579 39.1591 72.7038 39.4072 73.2038 39.9034C73.7075 40.3996 73.9594 41.1477 73.9594 42.1477V48H72.2606V42.3068C72.2606 41.7159 72.0996 41.2879 71.7776 41.0227C71.4556 40.7576 71.0712 40.625 70.6242 40.625C70.0712 40.625 69.6413 40.7955 69.3344 41.1364C69.0276 41.4735 68.8742 41.9072 68.8742 42.4375V48H67.181V42.1989C67.181 41.7254 67.0333 41.3447 66.7378 41.0568C66.4424 40.7689 66.0579 40.625 65.5844 40.625C65.2625 40.625 64.9651 40.7102 64.6924 40.8807C64.4234 41.0473 64.2056 41.2803 64.039 41.5795C63.8761 41.8788 63.7947 42.2254 63.7947 42.6193V48H62.0958ZM83.0978 48.1705C82.3933 48.1705 81.7645 47.9905 81.2115 47.6307C80.6622 47.267 80.2304 46.75 79.916 46.0795C79.6054 45.4053 79.4501 44.5966 79.4501 43.6534C79.4501 42.7102 79.6073 41.9034 79.9217 41.233C80.2399 40.5625 80.6755 40.0492 81.2285 39.6932C81.7816 39.3371 82.4084 39.1591 83.1092 39.1591C83.6509 39.1591 84.0865 39.25 84.416 39.4318C84.7494 39.6098 85.0069 39.8182 85.1888 40.0568C85.3744 40.2955 85.5183 40.5057 85.6206 40.6875H85.7228V36.3636H87.4217V48H85.7626V46.642H85.6206C85.5183 46.8277 85.3706 47.0398 85.1774 47.2784C84.988 47.517 84.7266 47.7254 84.3933 47.9034C84.06 48.0814 83.6281 48.1705 83.0978 48.1705ZM83.4728 46.7216C83.9615 46.7216 84.3744 46.5928 84.7115 46.3352C85.0524 46.0739 85.31 45.7121 85.4842 45.25C85.6622 44.7879 85.7513 44.25 85.7513 43.6364C85.7513 43.0303 85.6641 42.5 85.4899 42.0455C85.3156 41.5909 85.06 41.2367 84.7228 40.983C84.3857 40.7292 83.9691 40.6023 83.4728 40.6023C82.9615 40.6023 82.5353 40.7348 82.1944 41C81.8535 41.2652 81.5959 41.6269 81.4217 42.0852C81.2513 42.5436 81.166 43.0606 81.166 43.6364C81.166 44.2197 81.2531 44.7443 81.4274 45.2102C81.6016 45.6761 81.8592 46.0455 82.2001 46.3182C82.5448 46.5871 82.9691 46.7216 83.4728 46.7216ZM90.9866 36.3636V37.4545C90.9866 37.7765 90.926 38.1155 90.8048 38.4716C90.6874 38.8239 90.5207 39.1629 90.3048 39.4886C90.0889 39.8144 89.8351 40.0947 89.5435 40.3295L88.7026 39.7273C88.926 39.4015 89.1192 39.0549 89.2821 38.6875C89.4488 38.3201 89.5321 37.9148 89.5321 37.4716V36.3636H90.9866ZM97.2817 44.3807V39.2727H98.9863V48H97.3158V46.4886H97.2249C97.0241 46.9545 96.7022 47.3428 96.259 47.6534C95.8196 47.9602 95.2722 48.1136 94.6169 48.1136C94.0563 48.1136 93.5601 47.9905 93.1283 47.7443C92.7003 47.4943 92.3631 47.125 92.1169 46.6364C91.8745 46.1477 91.7533 45.5436 91.7533 44.8239V39.2727H93.4522V44.6193C93.4522 45.214 93.6169 45.6875 93.9465 46.0398C94.276 46.392 94.7041 46.5682 95.2306 46.5682C95.5488 46.5682 95.865 46.4886 96.1794 46.3295C96.4976 46.1705 96.7609 45.9299 96.9692 45.608C97.1813 45.286 97.2855 44.8769 97.2817 44.3807ZM105.023 39.2727V40.6364H100.256V39.2727H105.023ZM101.534 37.1818H103.233V45.4375C103.233 45.767 103.282 46.0152 103.381 46.1818C103.479 46.3447 103.606 46.4564 103.761 46.517C103.921 46.5739 104.093 46.6023 104.278 46.6023C104.415 46.6023 104.534 46.5928 104.636 46.5739C104.739 46.5549 104.818 46.5398 104.875 46.5284L105.182 47.9318C105.083 47.9697 104.943 48.0076 104.761 48.0455C104.58 48.0871 104.352 48.1098 104.08 48.1136C103.633 48.1212 103.216 48.0417 102.83 47.875C102.443 47.7083 102.131 47.4508 101.892 47.1023C101.653 46.7538 101.534 46.3163 101.534 45.7898V37.1818ZM106.582 48V39.2727H108.281V48H106.582ZM107.44 37.9261C107.145 37.9261 106.891 37.8277 106.679 37.6307C106.47 37.4299 106.366 37.1913 106.366 36.9148C106.366 36.6345 106.47 36.3958 106.679 36.1989C106.891 35.9981 107.145 35.8977 107.44 35.8977C107.735 35.8977 107.987 35.9981 108.196 36.1989C108.408 36.3958 108.514 36.6345 108.514 36.9148C108.514 37.1913 108.408 37.4299 108.196 37.6307C107.987 37.8277 107.735 37.9261 107.44 37.9261ZM111.945 36.3636V48H110.246V36.3636H111.945ZM113.911 48V39.2727H115.61V48H113.911ZM114.769 37.9261C114.473 37.9261 114.22 37.8277 114.007 37.6307C113.799 37.4299 113.695 37.1913 113.695 36.9148C113.695 36.6345 113.799 36.3958 114.007 36.1989C114.22 35.9981 114.473 35.8977 114.769 35.8977C115.064 35.8977 115.316 35.9981 115.524 36.1989C115.737 36.3958 115.843 36.6345 115.843 36.9148C115.843 37.1913 115.737 37.4299 115.524 37.6307C115.316 37.8277 115.064 37.9261 114.769 37.9261ZM124.115 41.4034L122.575 41.6761C122.511 41.4792 122.409 41.2917 122.268 41.1136C122.132 40.9356 121.946 40.7898 121.712 40.6761C121.477 40.5625 121.183 40.5057 120.831 40.5057C120.35 40.5057 119.948 40.6136 119.626 40.8295C119.304 41.0417 119.143 41.3163 119.143 41.6534C119.143 41.9451 119.251 42.1799 119.467 42.358C119.683 42.536 120.032 42.6818 120.513 42.7955L121.899 43.1136C122.702 43.2992 123.301 43.5852 123.694 43.9716C124.088 44.358 124.285 44.8598 124.285 45.4773C124.285 46 124.134 46.4659 123.831 46.875C123.532 47.2803 123.113 47.5985 122.575 47.8295C122.041 48.0606 121.422 48.1761 120.717 48.1761C119.74 48.1761 118.943 47.9678 118.325 47.5511C117.708 47.1307 117.329 46.5341 117.189 45.7614L118.831 45.5114C118.933 45.9394 119.143 46.2633 119.462 46.483C119.78 46.6989 120.194 46.8068 120.706 46.8068C121.263 46.8068 121.708 46.6913 122.041 46.4602C122.374 46.2254 122.541 45.9394 122.541 45.6023C122.541 45.3295 122.439 45.1004 122.234 44.9148C122.034 44.7292 121.725 44.589 121.308 44.4943L119.831 44.1705C119.016 43.9848 118.414 43.6894 118.024 43.2841C117.638 42.8788 117.444 42.3655 117.444 41.7443C117.444 41.2292 117.588 40.7784 117.876 40.392C118.164 40.0057 118.562 39.7045 119.069 39.4886C119.577 39.2689 120.159 39.1591 120.814 39.1591C121.757 39.1591 122.499 39.3636 123.041 39.7727C123.583 40.178 123.941 40.7216 124.115 41.4034ZM128.373 48.1932C127.82 48.1932 127.32 48.0909 126.873 47.8864C126.426 47.678 126.072 47.3769 125.811 46.983C125.553 46.589 125.424 46.1061 125.424 45.5341C125.424 45.0417 125.519 44.6364 125.708 44.3182C125.898 44 126.153 43.7481 126.475 43.5625C126.797 43.3769 127.157 43.2367 127.555 43.142C127.953 43.0473 128.358 42.9754 128.771 42.9261C129.294 42.8655 129.718 42.8163 130.044 42.7784C130.369 42.7367 130.606 42.6705 130.754 42.5795C130.901 42.4886 130.975 42.3409 130.975 42.1364V42.0966C130.975 41.6004 130.835 41.2159 130.555 40.9432C130.278 40.6705 129.865 40.5341 129.316 40.5341C128.744 40.5341 128.294 40.661 127.964 40.9148C127.638 41.1648 127.413 41.4432 127.288 41.75L125.691 41.3864C125.881 40.8561 126.157 40.428 126.521 40.1023C126.888 39.7727 127.311 39.5341 127.788 39.3864C128.265 39.2348 128.767 39.1591 129.294 39.1591C129.642 39.1591 130.011 39.2008 130.401 39.2841C130.795 39.3636 131.163 39.5114 131.504 39.7273C131.848 39.9432 132.131 40.2519 132.35 40.6534C132.57 41.0511 132.68 41.5682 132.68 42.2045V48H131.021V46.8068H130.953C130.843 47.0265 130.678 47.2424 130.458 47.4545C130.239 47.6667 129.956 47.8428 129.612 47.983C129.267 48.1231 128.854 48.1932 128.373 48.1932ZM128.742 46.8295C129.212 46.8295 129.614 46.7367 129.947 46.5511C130.284 46.3655 130.54 46.1231 130.714 45.8239C130.892 45.5208 130.981 45.197 130.981 44.8523V43.7273C130.92 43.7879 130.803 43.8447 130.629 43.8977C130.458 43.947 130.263 43.9905 130.044 44.0284C129.824 44.0625 129.61 44.0947 129.401 44.125C129.193 44.1515 129.019 44.1742 128.879 44.1932C128.549 44.2348 128.248 44.3049 127.975 44.4034C127.706 44.5019 127.49 44.6439 127.328 44.8295C127.169 45.0114 127.089 45.2538 127.089 45.5568C127.089 45.9773 127.244 46.2955 127.555 46.5114C127.865 46.7235 128.261 46.8295 128.742 46.8295ZM138.697 39.2727V40.6364H133.929V39.2727H138.697ZM135.208 37.1818H136.907V45.4375C136.907 45.767 136.956 46.0152 137.054 46.1818C137.153 46.3447 137.28 46.4564 137.435 46.517C137.594 46.5739 137.767 46.6023 137.952 46.6023C138.089 46.6023 138.208 46.5928 138.31 46.5739C138.412 46.5549 138.492 46.5398 138.549 46.5284L138.856 47.9318C138.757 47.9697 138.617 48.0076 138.435 48.0455C138.253 48.0871 138.026 48.1098 137.753 48.1136C137.306 48.1212 136.89 48.0417 136.503 47.875C136.117 47.7083 135.804 47.4508 135.566 47.1023C135.327 46.7538 135.208 46.3163 135.208 45.7898V37.1818ZM143.923 48.1761C143.064 48.1761 142.323 47.9924 141.702 47.625C141.084 47.2538 140.607 46.733 140.27 46.0625C139.937 45.3883 139.77 44.5985 139.77 43.6932C139.77 42.7992 139.937 42.0114 140.27 41.3295C140.607 40.6477 141.077 40.1155 141.679 39.733C142.285 39.3504 142.993 39.1591 143.804 39.1591C144.297 39.1591 144.774 39.2405 145.236 39.4034C145.698 39.5663 146.113 39.822 146.48 40.1705C146.848 40.5189 147.137 40.9716 147.35 41.5284C147.562 42.0814 147.668 42.7538 147.668 43.5455V44.1477H140.73V42.875H146.003C146.003 42.428 145.912 42.0322 145.73 41.6875C145.548 41.339 145.293 41.0644 144.963 40.8636C144.637 40.6629 144.255 40.5625 143.815 40.5625C143.338 40.5625 142.922 40.6799 142.565 40.9148C142.213 41.1458 141.94 41.4489 141.747 41.8239C141.558 42.1951 141.463 42.5985 141.463 43.0341V44.0284C141.463 44.6117 141.565 45.108 141.77 45.517C141.978 45.9261 142.268 46.2386 142.639 46.4545C143.011 46.6667 143.444 46.7727 143.94 46.7727C144.262 46.7727 144.556 46.7273 144.821 46.6364C145.086 46.5417 145.315 46.4015 145.509 46.2159C145.702 46.0303 145.85 45.8011 145.952 45.5284L147.56 45.8182C147.431 46.2917 147.2 46.7064 146.867 47.0625C146.537 47.4148 146.122 47.6894 145.622 47.8864C145.126 48.0795 144.56 48.1761 143.923 48.1761ZM154.761 44.3807V39.2727H156.466V48H154.795V46.4886H154.704C154.504 46.9545 154.182 47.3428 153.738 47.6534C153.299 47.9602 152.752 48.1136 152.096 48.1136C151.536 48.1136 151.039 47.9905 150.608 47.7443C150.18 47.4943 149.843 47.125 149.596 46.6364C149.354 46.1477 149.233 45.5436 149.233 44.8239V39.2727H150.932V44.6193C150.932 45.214 151.096 45.6875 151.426 46.0398C151.755 46.392 152.183 46.5682 152.71 46.5682C153.028 46.5682 153.344 46.4886 153.659 46.3295C153.977 46.1705 154.24 45.9299 154.449 45.608C154.661 45.286 154.765 44.8769 154.761 44.3807ZM158.428 48V39.2727H160.07V40.6591H160.161C160.32 40.1894 160.601 39.8201 161.002 39.5511C161.407 39.2784 161.866 39.142 162.377 39.142C162.483 39.142 162.608 39.1458 162.752 39.1534C162.9 39.161 163.015 39.1705 163.099 39.1818V40.8068C163.031 40.7879 162.909 40.767 162.735 40.7443C162.561 40.7178 162.387 40.7045 162.212 40.7045C161.811 40.7045 161.453 40.7898 161.139 40.9602C160.828 41.1269 160.582 41.3598 160.4 41.6591C160.218 41.9545 160.127 42.2917 160.127 42.6705V48H158.428Z" fill="#999999"/>
<g filter="url(#filter1_ddddd_1_379)">
<rect x="40" y="62" width="386" height="43" rx="21.5" fill="white"/>
<mask id="path-4-inside-1_1_379" fill="white">
<path d="M40 62H83V105H40V62Z"/>
</mask>
<path d="M40 62H83V105H40V62Z" fill="#FBFBFB"/>
<path d="M82 62V105H84V62H82Z" fill="#F5F5F5" mask="url(#path-4-inside-1_1_379)"/>
<path d="M63.4999 75.3333C61.282 75.3333 61.0039 75.3427 60.1328 75.3824C59.2636 75.422 58.6699 75.5601 58.1504 75.762C57.6134 75.9707 57.158 76.2499 56.704 76.7039C56.2499 77.1579 55.9707 77.6134 55.762 78.1504C55.5601 78.6699 55.4221 79.2636 55.3824 80.1328C55.3426 81.0039 55.3333 81.282 55.3333 83.4999C55.3333 85.7178 55.3426 85.996 55.3824 86.867C55.4221 87.7363 55.5601 88.3299 55.762 88.8494C55.9707 89.3864 56.25 89.8419 56.704 90.2959C57.158 90.7499 57.6134 91.0292 58.1504 91.2379C58.6699 91.4397 59.2636 91.5778 60.1328 91.6174C61.0039 91.6572 61.282 91.6666 63.4999 91.6666C65.7178 91.6666 65.996 91.6572 66.867 91.6174C67.7363 91.5778 68.3299 91.4397 68.8494 91.2379C69.3864 91.0292 69.8419 90.7499 70.2959 90.2959C70.7499 89.8419 71.0292 89.3864 71.2379 88.8494C71.4397 88.3299 71.5778 87.7363 71.6174 86.867C71.6572 85.996 71.6666 85.7178 71.6666 83.4999C71.6666 81.282 71.6572 81.0039 71.6174 80.1328C71.5778 79.2636 71.4397 78.6699 71.2379 78.1504C71.0292 77.6134 70.7499 77.1579 70.2959 76.7039C69.8419 76.2499 69.3864 75.9707 68.8494 75.762C68.3299 75.5601 67.7363 75.422 66.867 75.3824C65.996 75.3427 65.7178 75.3333 63.4999 75.3333ZM63.4999 76.8047C65.6805 76.8047 65.9388 76.8131 66.8 76.8523C67.5962 76.8886 68.0286 77.0217 68.3164 77.1335C68.6976 77.2817 68.9696 77.4586 69.2554 77.7444C69.5412 78.0302 69.7181 78.3023 69.8663 78.6834C69.9782 78.9712 70.1112 79.4037 70.1475 80.1999C70.1868 81.061 70.1951 81.3193 70.1951 83.4999C70.1951 85.6805 70.1868 85.9388 70.1475 86.8C70.1112 87.5962 69.9782 88.0286 69.8663 88.3164C69.7181 88.6976 69.5412 88.9696 69.2554 89.2554C68.9696 89.5412 68.6976 89.7181 68.3164 89.8663C68.0286 89.9782 67.5962 90.1112 66.8 90.1475C65.9389 90.1868 65.6807 90.1951 63.4999 90.1951C61.3192 90.1951 61.0609 90.1868 60.1999 90.1475C59.4036 90.1112 58.9712 89.9782 58.6835 89.8663C58.3022 89.7181 58.0302 89.5412 57.7444 89.2554C57.4587 88.9696 57.2817 88.6976 57.1335 88.3164C57.0217 88.0286 56.8887 87.5962 56.8523 86.8C56.8131 85.9388 56.8047 85.6805 56.8047 83.4999C56.8047 81.3193 56.8131 81.061 56.8523 80.1999C56.8887 79.4036 57.0217 78.9712 57.1335 78.6835C57.2817 78.3022 57.4587 78.0302 57.7444 77.7444C58.0302 77.4586 58.3023 77.2817 58.6834 77.1335C58.9712 77.0217 59.4037 76.8886 60.1999 76.8523C61.061 76.8131 61.3193 76.8047 63.4999 76.8047" fill="black"/>
<path d="M63.4999 86.222C61.9964 86.222 60.7776 85.0033 60.7776 83.4998C60.7776 81.9963 61.9964 80.7776 63.4999 80.7776C65.0033 80.7776 66.2221 81.9963 66.2221 83.4998C66.2221 85.0033 65.0033 86.222 63.4999 86.222ZM63.4999 79.3061C61.1837 79.3061 59.3062 81.1837 59.3062 83.4998C59.3062 85.8159 61.1837 87.6935 63.4999 87.6935C65.816 87.6935 67.6935 85.8159 67.6935 83.4998C67.6935 81.1837 65.816 79.3061 63.4999 79.3061ZM68.8392 79.1404C68.8392 79.6817 68.4005 80.1204 67.8592 80.1204C67.318 80.1204 66.8792 79.6817 66.8792 79.1404C66.8792 78.5992 67.318 78.1604 67.8592 78.1604C68.4005 78.1604 68.8392 78.5992 68.8392 79.1404Z" fill="black"/>
<path d="M101.148 92.1648C99.9735 92.1648 98.9318 92.0038 98.0227 91.6818C97.1174 91.3636 96.3542 90.8939 95.733 90.2727C95.1117 89.6553 94.6402 88.8977 94.3182 88C93.9962 87.1023 93.8352 86.0777 93.8352 84.9261C93.8352 83.8049 93.9981 82.7973 94.3239 81.9034C94.6496 81.0095 95.1231 80.2481 95.7443 79.6193C96.3693 78.9867 97.1288 78.5038 98.0227 78.1705C98.9167 77.8371 99.9318 77.6705 101.068 77.6705C102.155 77.6705 103.114 77.8409 103.943 78.1818C104.773 78.5227 105.47 78.9905 106.034 79.5852C106.602 80.1799 107.03 80.8617 107.318 81.6307C107.606 82.3996 107.75 83.2121 107.75 84.0682C107.75 84.6667 107.712 85.2519 107.636 85.8239C107.561 86.392 107.42 86.9072 107.216 87.3693C107.015 87.8277 106.723 88.1951 106.341 88.4716C105.962 88.7443 105.47 88.8864 104.864 88.8977C104.542 88.9091 104.229 88.8712 103.926 88.7841C103.623 88.697 103.366 88.5568 103.153 88.3636C102.941 88.1667 102.813 87.9167 102.767 87.6136H102.699C102.608 87.8371 102.456 88.0455 102.244 88.2386C102.032 88.428 101.761 88.5795 101.432 88.6932C101.106 88.803 100.727 88.8485 100.295 88.8295C99.8182 88.8106 99.3883 88.7027 99.0057 88.5057C98.6231 88.3087 98.2955 88.036 98.0227 87.6875C97.7538 87.339 97.5473 86.9261 97.4034 86.4489C97.2595 85.9716 97.1875 85.4413 97.1875 84.858C97.1875 84.2973 97.2689 83.7955 97.4318 83.3523C97.5947 82.9053 97.8163 82.5208 98.0966 82.1989C98.3807 81.8731 98.7064 81.6155 99.0739 81.4261C99.4413 81.2367 99.8295 81.1174 100.239 81.0682C100.636 81.0227 101.002 81.0341 101.335 81.1023C101.669 81.1705 101.945 81.2746 102.165 81.4148C102.388 81.5549 102.528 81.7083 102.585 81.875H102.659V81.2386H104.057V86.5114C104.057 86.8106 104.134 87.0644 104.29 87.2727C104.449 87.4811 104.674 87.5852 104.966 87.5852C105.311 87.5852 105.58 87.4583 105.773 87.2045C105.97 86.9508 106.108 86.5606 106.188 86.0341C106.271 85.5076 106.312 84.8333 106.312 84.0114C106.312 83.4356 106.235 82.8939 106.08 82.3864C105.928 81.875 105.703 81.4129 105.403 81C105.108 80.5833 104.744 80.2254 104.312 79.9261C103.881 79.6269 103.388 79.3958 102.835 79.233C102.286 79.0701 101.678 78.9886 101.011 78.9886C100.106 78.9886 99.3011 79.1288 98.5966 79.4091C97.892 79.6856 97.2973 80.0852 96.8125 80.608C96.3314 81.1307 95.9659 81.7576 95.7159 82.4886C95.4697 83.2159 95.3466 84.0322 95.3466 84.9375C95.3466 85.8807 95.4735 86.7178 95.7273 87.4489C95.9811 88.1761 96.3561 88.7898 96.8523 89.2898C97.3485 89.7898 97.9621 90.1686 98.6932 90.4261C99.4242 90.6875 100.267 90.8182 101.222 90.8182C101.646 90.8182 102.063 90.7803 102.472 90.7045C102.881 90.6326 103.244 90.5492 103.562 90.4545C103.884 90.3636 104.125 90.2898 104.284 90.233L104.682 91.4773C104.447 91.5871 104.134 91.6951 103.744 91.8011C103.358 91.9072 102.938 91.9943 102.483 92.0625C102.032 92.1307 101.587 92.1648 101.148 92.1648ZM100.625 87.4375C101.117 87.4375 101.513 87.339 101.812 87.142C102.116 86.9451 102.333 86.6515 102.466 86.2614C102.602 85.8674 102.67 85.375 102.67 84.7841C102.667 84.2083 102.593 83.75 102.449 83.4091C102.309 83.0644 102.089 82.8182 101.79 82.6705C101.494 82.5189 101.114 82.4432 100.648 82.4432C100.22 82.4432 99.8542 82.5473 99.5511 82.7557C99.2519 82.964 99.0227 83.2462 98.8636 83.6023C98.7083 83.9583 98.6288 84.3542 98.625 84.7898C98.6288 85.2481 98.6932 85.6799 98.8182 86.0852C98.947 86.4867 99.1553 86.8125 99.4432 87.0625C99.7348 87.3125 100.129 87.4375 100.625 87.4375ZM113.303 89.1761C112.458 89.1761 111.731 88.9848 111.121 88.6023C110.515 88.2159 110.049 87.6837 109.723 87.0057C109.397 86.3277 109.234 85.5511 109.234 84.6761C109.234 83.7898 109.401 83.0076 109.734 82.3295C110.068 81.6477 110.537 81.1155 111.143 80.733C111.75 80.3504 112.464 80.1591 113.286 80.1591C113.948 80.1591 114.539 80.2822 115.058 80.5284C115.577 80.7708 115.996 81.1117 116.314 81.5511C116.636 81.9905 116.827 82.5038 116.888 83.0909H115.234C115.143 82.6818 114.935 82.3295 114.609 82.0341C114.287 81.7386 113.856 81.5909 113.314 81.5909C112.84 81.5909 112.426 81.7159 112.07 81.9659C111.717 82.2121 111.443 82.5644 111.246 83.0227C111.049 83.4773 110.95 84.0152 110.95 84.6364C110.95 85.2727 111.047 85.822 111.24 86.2841C111.433 86.7462 111.706 87.1042 112.058 87.358C112.414 87.6117 112.833 87.7386 113.314 87.7386C113.636 87.7386 113.928 87.6799 114.189 87.5625C114.454 87.4413 114.676 87.2689 114.854 87.0455C115.036 86.822 115.162 86.553 115.234 86.2386H116.888C116.827 86.803 116.643 87.3068 116.337 87.75C116.03 88.1932 115.619 88.5417 115.104 88.7955C114.592 89.0492 113.992 89.1761 113.303 89.1761ZM118.705 89V80.2727H120.347V81.6591H120.438C120.597 81.1894 120.877 80.8201 121.278 80.5511C121.684 80.2784 122.142 80.142 122.653 80.142C122.759 80.142 122.884 80.1458 123.028 80.1534C123.176 80.161 123.292 80.1705 123.375 80.1818V81.8068C123.307 81.7879 123.186 81.767 123.011 81.7443C122.837 81.7178 122.663 81.7045 122.489 81.7045C122.087 81.7045 121.729 81.7898 121.415 81.9602C121.104 82.1269 120.858 82.3598 120.676 82.6591C120.494 82.9545 120.403 83.2917 120.403 83.6705V89H118.705ZM124.845 89V80.2727H126.544V89H124.845ZM125.703 78.9261C125.408 78.9261 125.154 78.8277 124.942 78.6307C124.733 78.4299 124.629 78.1913 124.629 77.9148C124.629 77.6345 124.733 77.3958 124.942 77.1989C125.154 76.9981 125.408 76.8977 125.703 76.8977C125.999 76.8977 126.25 76.9981 126.459 77.1989C126.671 77.3958 126.777 77.6345 126.777 77.9148C126.777 78.1913 126.671 78.4299 126.459 78.6307C126.25 78.8277 125.999 78.9261 125.703 78.9261ZM135.369 82.4034L133.83 82.6761C133.765 82.4792 133.663 82.2917 133.523 82.1136C133.386 81.9356 133.201 81.7898 132.966 81.6761C132.731 81.5625 132.438 81.5057 132.085 81.5057C131.604 81.5057 131.203 81.6136 130.881 81.8295C130.559 82.0417 130.398 82.3163 130.398 82.6534C130.398 82.9451 130.506 83.1799 130.722 83.358C130.938 83.536 131.286 83.6818 131.767 83.7955L133.153 84.1136C133.956 84.2992 134.555 84.5852 134.949 84.9716C135.343 85.358 135.54 85.8598 135.54 86.4773C135.54 87 135.388 87.4659 135.085 87.875C134.786 88.2803 134.367 88.5985 133.83 88.8295C133.295 89.0606 132.676 89.1761 131.972 89.1761C130.994 89.1761 130.197 88.9678 129.58 88.5511C128.962 88.1307 128.583 87.5341 128.443 86.7614L130.085 86.5114C130.188 86.9394 130.398 87.2633 130.716 87.483C131.034 87.6989 131.449 87.8068 131.96 87.8068C132.517 87.8068 132.962 87.6913 133.295 87.4602C133.629 87.2254 133.795 86.9394 133.795 86.6023C133.795 86.3295 133.693 86.1004 133.489 85.9148C133.288 85.7292 132.979 85.589 132.562 85.4943L131.085 85.1705C130.271 84.9848 129.669 84.6894 129.278 84.2841C128.892 83.8788 128.699 83.3655 128.699 82.7443C128.699 82.2292 128.843 81.7784 129.131 81.392C129.419 81.0057 129.816 80.7045 130.324 80.4886C130.831 80.2689 131.413 80.1591 132.068 80.1591C133.011 80.1591 133.754 80.3636 134.295 80.7727C134.837 81.178 135.195 81.7216 135.369 82.4034ZM141.482 80.2727V81.6364H136.714V80.2727H141.482ZM137.993 78.1818H139.692V86.4375C139.692 86.767 139.741 87.0152 139.839 87.1818C139.938 87.3447 140.065 87.4564 140.22 87.517C140.379 87.5739 140.552 87.6023 140.737 87.6023C140.874 87.6023 140.993 87.5928 141.095 87.5739C141.197 87.5549 141.277 87.5398 141.334 87.5284L141.641 88.9318C141.542 88.9697 141.402 89.0076 141.22 89.0455C141.038 89.0871 140.811 89.1098 140.538 89.1136C140.091 89.1212 139.675 89.0417 139.288 88.875C138.902 88.7083 138.589 88.4508 138.351 88.1023C138.112 87.7538 137.993 87.3163 137.993 86.7898V78.1818ZM143.361 89V80.2727H145.06V89H143.361ZM144.219 78.9261C143.923 78.9261 143.67 78.8277 143.457 78.6307C143.249 78.4299 143.145 78.1913 143.145 77.9148C143.145 77.6345 143.249 77.3958 143.457 77.1989C143.67 76.9981 143.923 76.8977 144.219 76.8977C144.514 76.8977 144.766 76.9981 144.974 77.1989C145.187 77.3958 145.293 77.6345 145.293 77.9148C145.293 78.1913 145.187 78.4299 144.974 78.6307C144.766 78.8277 144.514 78.9261 144.219 78.9261ZM149.885 89.1932C149.332 89.1932 148.832 89.0909 148.385 88.8864C147.938 88.678 147.584 88.3769 147.322 87.983C147.065 87.589 146.936 87.1061 146.936 86.5341C146.936 86.0417 147.031 85.6364 147.22 85.3182C147.41 85 147.665 84.7481 147.987 84.5625C148.309 84.3769 148.669 84.2367 149.067 84.142C149.464 84.0473 149.87 83.9754 150.283 83.9261C150.805 83.8655 151.23 83.8163 151.555 83.7784C151.881 83.7367 152.118 83.6705 152.266 83.5795C152.413 83.4886 152.487 83.3409 152.487 83.1364V83.0966C152.487 82.6004 152.347 82.2159 152.067 81.9432C151.79 81.6705 151.377 81.5341 150.828 81.5341C150.256 81.5341 149.805 81.661 149.476 81.9148C149.15 82.1648 148.925 82.4432 148.8 82.75L147.203 82.3864C147.393 81.8561 147.669 81.428 148.033 81.1023C148.4 80.7727 148.822 80.5341 149.3 80.3864C149.777 80.2348 150.279 80.1591 150.805 80.1591C151.154 80.1591 151.523 80.2008 151.913 80.2841C152.307 80.3636 152.675 80.5114 153.016 80.7273C153.36 80.9432 153.643 81.2519 153.862 81.6534C154.082 82.0511 154.192 82.5682 154.192 83.2045V89H152.533V87.8068H152.464C152.355 88.0265 152.19 88.2424 151.97 88.4545C151.75 88.6667 151.468 88.8428 151.124 88.983C150.779 89.1231 150.366 89.1932 149.885 89.1932ZM150.254 87.8295C150.724 87.8295 151.125 87.7367 151.459 87.5511C151.796 87.3655 152.052 87.1231 152.226 86.8239C152.404 86.5208 152.493 86.197 152.493 85.8523V84.7273C152.432 84.7879 152.315 84.8447 152.141 84.8977C151.97 84.947 151.775 84.9905 151.555 85.0284C151.336 85.0625 151.122 85.0947 150.913 85.125C150.705 85.1515 150.531 85.1742 150.391 85.1932C150.061 85.2348 149.76 85.3049 149.487 85.4034C149.218 85.5019 149.002 85.6439 148.839 85.8295C148.68 86.0114 148.601 86.2538 148.601 86.5568C148.601 86.9773 148.756 87.2955 149.067 87.5114C149.377 87.7235 149.773 87.8295 150.254 87.8295ZM158.153 83.8182V89H156.455V80.2727H158.085V81.6932H158.193C158.394 81.2311 158.708 80.8598 159.136 80.5795C159.568 80.2992 160.112 80.1591 160.767 80.1591C161.362 80.1591 161.883 80.2841 162.33 80.5341C162.777 80.7803 163.123 81.1477 163.369 81.6364C163.616 82.125 163.739 82.7292 163.739 83.4489V89H162.04V83.6534C162.04 83.0208 161.875 82.5265 161.545 82.1705C161.216 81.8106 160.763 81.6307 160.188 81.6307C159.794 81.6307 159.443 81.7159 159.136 81.8864C158.833 82.0568 158.593 82.3068 158.415 82.6364C158.241 82.9621 158.153 83.3561 158.153 83.8182ZM169.693 89.1761C168.875 89.1761 168.161 88.9886 167.551 88.6136C166.941 88.2386 166.468 87.714 166.131 87.0398C165.794 86.3655 165.625 85.5777 165.625 84.6761C165.625 83.7708 165.794 82.9792 166.131 82.3011C166.468 81.6231 166.941 81.0966 167.551 80.7216C168.161 80.3466 168.875 80.1591 169.693 80.1591C170.511 80.1591 171.225 80.3466 171.835 80.7216C172.445 81.0966 172.919 81.6231 173.256 82.3011C173.593 82.9792 173.761 83.7708 173.761 84.6761C173.761 85.5777 173.593 86.3655 173.256 87.0398C172.919 87.714 172.445 88.2386 171.835 88.6136C171.225 88.9886 170.511 89.1761 169.693 89.1761ZM169.699 87.75C170.229 87.75 170.669 87.6098 171.017 87.3295C171.366 87.0492 171.623 86.6761 171.79 86.2102C171.96 85.7443 172.045 85.2311 172.045 84.6705C172.045 84.1136 171.96 83.6023 171.79 83.1364C171.623 82.6667 171.366 82.2898 171.017 82.0057C170.669 81.7216 170.229 81.5795 169.699 81.5795C169.165 81.5795 168.722 81.7216 168.369 82.0057C168.021 82.2898 167.761 82.6667 167.591 83.1364C167.424 83.6023 167.341 84.1136 167.341 84.6705C167.341 85.2311 167.424 85.7443 167.591 86.2102C167.761 86.6761 168.021 87.0492 168.369 87.3295C168.722 87.6098 169.165 87.75 169.699 87.75Z" fill="black"/>
</g>
<path d="M41.2784 124.364H43.4091L47.1136 133.409H47.25L50.9545 124.364H53.0852V136H51.4148V127.58H51.3068L47.875 135.983H46.4886L43.0568 127.574H42.9489V136H41.2784V124.364ZM58.8576 136.176C58.0394 136.176 57.3254 135.989 56.7155 135.614C56.1057 135.239 55.6322 134.714 55.2951 134.04C54.9579 133.366 54.7894 132.578 54.7894 131.676C54.7894 130.771 54.9579 129.979 55.2951 129.301C55.6322 128.623 56.1057 128.097 56.7155 127.722C57.3254 127.347 58.0394 127.159 58.8576 127.159C59.6757 127.159 60.3898 127.347 60.9996 127.722C61.6095 128.097 62.0829 128.623 62.4201 129.301C62.7572 129.979 62.9257 130.771 62.9257 131.676C62.9257 132.578 62.7572 133.366 62.4201 134.04C62.0829 134.714 61.6095 135.239 60.9996 135.614C60.3898 135.989 59.6757 136.176 58.8576 136.176ZM58.8632 134.75C59.3935 134.75 59.8329 134.61 60.1814 134.33C60.5299 134.049 60.7875 133.676 60.9541 133.21C61.1246 132.744 61.2098 132.231 61.2098 131.67C61.2098 131.114 61.1246 130.602 60.9541 130.136C60.7875 129.667 60.5299 129.29 60.1814 129.006C59.8329 128.722 59.3935 128.58 58.8632 128.58C58.3291 128.58 57.886 128.722 57.5337 129.006C57.1852 129.29 56.9257 129.667 56.7553 130.136C56.5886 130.602 56.5053 131.114 56.5053 131.67C56.5053 132.231 56.5886 132.744 56.7553 133.21C56.9257 133.676 57.1852 134.049 57.5337 134.33C57.886 134.61 58.3291 134.75 58.8632 134.75ZM68.5759 127.273V128.636H63.8089V127.273H68.5759ZM65.0873 125.182H66.7861V133.438C66.7861 133.767 66.8354 134.015 66.9339 134.182C67.0323 134.345 67.1592 134.456 67.3145 134.517C67.4736 134.574 67.646 134.602 67.8316 134.602C67.968 134.602 68.0873 134.593 68.1895 134.574C68.2918 134.555 68.3714 134.54 68.4282 134.528L68.735 135.932C68.6365 135.97 68.4964 136.008 68.3145 136.045C68.1327 136.087 67.9055 136.11 67.6327 136.114C67.1858 136.121 66.7691 136.042 66.3827 135.875C65.9964 135.708 65.6839 135.451 65.4452 135.102C65.2066 134.754 65.0873 134.316 65.0873 133.79V125.182ZM77.3166 136.17C76.612 136.17 75.9833 135.991 75.4302 135.631C74.881 135.267 74.4492 134.75 74.1348 134.08C73.8242 133.405 73.6689 132.597 73.6689 131.653C73.6689 130.71 73.8261 129.903 74.1405 129.233C74.4586 128.562 74.8942 128.049 75.4473 127.693C76.0003 127.337 76.6272 127.159 77.328 127.159C77.8696 127.159 78.3052 127.25 78.6348 127.432C78.9681 127.61 79.2257 127.818 79.4075 128.057C79.5931 128.295 79.737 128.506 79.8393 128.688H79.9416V124.364H81.6405V136H79.9814V134.642H79.8393C79.737 134.828 79.5893 135.04 79.3961 135.278C79.2067 135.517 78.9454 135.725 78.612 135.903C78.2787 136.081 77.8469 136.17 77.3166 136.17ZM77.6916 134.722C78.1802 134.722 78.5931 134.593 78.9302 134.335C79.2711 134.074 79.5287 133.712 79.703 133.25C79.881 132.788 79.97 132.25 79.97 131.636C79.97 131.03 79.8829 130.5 79.7086 130.045C79.5344 129.591 79.2787 129.237 78.9416 128.983C78.6045 128.729 78.1878 128.602 77.6916 128.602C77.1802 128.602 76.7541 128.735 76.4132 129C76.0723 129.265 75.8147 129.627 75.6405 130.085C75.47 130.544 75.3848 131.061 75.3848 131.636C75.3848 132.22 75.4719 132.744 75.6461 133.21C75.8204 133.676 76.078 134.045 76.4189 134.318C76.7636 134.587 77.1878 134.722 77.6916 134.722ZM87.5065 136.176C86.6467 136.176 85.9062 135.992 85.2849 135.625C84.6675 135.254 84.1902 134.733 83.8531 134.062C83.5198 133.388 83.3531 132.598 83.3531 131.693C83.3531 130.799 83.5198 130.011 83.8531 129.33C84.1902 128.648 84.6599 128.116 85.2622 127.733C85.8683 127.35 86.5766 127.159 87.3872 127.159C87.8796 127.159 88.3569 127.241 88.819 127.403C89.2812 127.566 89.6959 127.822 90.0634 128.17C90.4308 128.519 90.7206 128.972 90.9327 129.528C91.1448 130.081 91.2509 130.754 91.2509 131.545V132.148H84.3134V130.875H89.5861C89.5861 130.428 89.4952 130.032 89.3134 129.688C89.1315 129.339 88.8759 129.064 88.5463 128.864C88.2206 128.663 87.838 128.562 87.3986 128.562C86.9213 128.562 86.5046 128.68 86.1486 128.915C85.7963 129.146 85.5236 129.449 85.3304 129.824C85.141 130.195 85.0463 130.598 85.0463 131.034V132.028C85.0463 132.612 85.1486 133.108 85.3531 133.517C85.5615 133.926 85.8512 134.239 86.2224 134.455C86.5937 134.667 87.0274 134.773 87.5236 134.773C87.8456 134.773 88.1391 134.727 88.4043 134.636C88.6694 134.542 88.8986 134.402 89.0918 134.216C89.2849 134.03 89.4327 133.801 89.5349 133.528L91.1429 133.818C91.0141 134.292 90.7831 134.706 90.4497 135.062C90.1202 135.415 89.7054 135.689 89.2054 135.886C88.7092 136.08 88.1429 136.176 87.5065 136.176ZM96.8665 136V124.364H101.014C101.92 124.364 102.67 124.528 103.264 124.858C103.859 125.187 104.304 125.638 104.599 126.21C104.895 126.778 105.043 127.419 105.043 128.131C105.043 128.847 104.893 129.491 104.594 130.062C104.298 130.631 103.851 131.081 103.253 131.415C102.658 131.744 101.91 131.909 101.009 131.909H98.1563V130.42H100.849C101.421 130.42 101.885 130.322 102.242 130.125C102.598 129.924 102.859 129.652 103.026 129.307C103.192 128.962 103.276 128.57 103.276 128.131C103.276 127.691 103.192 127.301 103.026 126.96C102.859 126.619 102.596 126.352 102.236 126.159C101.88 125.966 101.41 125.869 100.827 125.869H98.6222V136H96.8665ZM109.106 136.193C108.553 136.193 108.053 136.091 107.606 135.886C107.159 135.678 106.805 135.377 106.544 134.983C106.286 134.589 106.157 134.106 106.157 133.534C106.157 133.042 106.252 132.636 106.441 132.318C106.631 132 106.886 131.748 107.208 131.562C107.53 131.377 107.89 131.237 108.288 131.142C108.686 131.047 109.091 130.975 109.504 130.926C110.027 130.866 110.451 130.816 110.777 130.778C111.102 130.737 111.339 130.67 111.487 130.58C111.635 130.489 111.708 130.341 111.708 130.136V130.097C111.708 129.6 111.568 129.216 111.288 128.943C111.011 128.67 110.599 128.534 110.049 128.534C109.477 128.534 109.027 128.661 108.697 128.915C108.371 129.165 108.146 129.443 108.021 129.75L106.424 129.386C106.614 128.856 106.89 128.428 107.254 128.102C107.621 127.773 108.044 127.534 108.521 127.386C108.998 127.235 109.5 127.159 110.027 127.159C110.375 127.159 110.744 127.201 111.135 127.284C111.529 127.364 111.896 127.511 112.237 127.727C112.582 127.943 112.864 128.252 113.083 128.653C113.303 129.051 113.413 129.568 113.413 130.205V136H111.754V134.807H111.686C111.576 135.027 111.411 135.242 111.191 135.455C110.972 135.667 110.69 135.843 110.345 135.983C110 136.123 109.587 136.193 109.106 136.193ZM109.476 134.83C109.945 134.83 110.347 134.737 110.68 134.551C111.017 134.366 111.273 134.123 111.447 133.824C111.625 133.521 111.714 133.197 111.714 132.852V131.727C111.654 131.788 111.536 131.845 111.362 131.898C111.191 131.947 110.996 131.991 110.777 132.028C110.557 132.062 110.343 132.095 110.135 132.125C109.926 132.152 109.752 132.174 109.612 132.193C109.282 132.235 108.981 132.305 108.708 132.403C108.44 132.502 108.224 132.644 108.061 132.83C107.902 133.011 107.822 133.254 107.822 133.557C107.822 133.977 107.977 134.295 108.288 134.511C108.599 134.723 108.994 134.83 109.476 134.83ZM121.896 129.403L120.356 129.676C120.291 129.479 120.189 129.292 120.049 129.114C119.913 128.936 119.727 128.79 119.492 128.676C119.257 128.562 118.964 128.506 118.611 128.506C118.13 128.506 117.729 128.614 117.407 128.83C117.085 129.042 116.924 129.316 116.924 129.653C116.924 129.945 117.032 130.18 117.248 130.358C117.464 130.536 117.812 130.682 118.293 130.795L119.68 131.114C120.483 131.299 121.081 131.585 121.475 131.972C121.869 132.358 122.066 132.86 122.066 133.477C122.066 134 121.915 134.466 121.611 134.875C121.312 135.28 120.894 135.598 120.356 135.83C119.822 136.061 119.202 136.176 118.498 136.176C117.521 136.176 116.723 135.968 116.106 135.551C115.488 135.131 115.11 134.534 114.969 133.761L116.611 133.511C116.714 133.939 116.924 134.263 117.242 134.483C117.56 134.699 117.975 134.807 118.486 134.807C119.043 134.807 119.488 134.691 119.822 134.46C120.155 134.225 120.322 133.939 120.322 133.602C120.322 133.33 120.219 133.1 120.015 132.915C119.814 132.729 119.505 132.589 119.089 132.494L117.611 132.17C116.797 131.985 116.195 131.689 115.805 131.284C115.418 130.879 115.225 130.366 115.225 129.744C115.225 129.229 115.369 128.778 115.657 128.392C115.945 128.006 116.343 127.705 116.85 127.489C117.358 127.269 117.939 127.159 118.594 127.159C119.538 127.159 120.28 127.364 120.822 127.773C121.363 128.178 121.721 128.722 121.896 129.403ZM130.154 129.403L128.614 129.676C128.55 129.479 128.447 129.292 128.307 129.114C128.171 128.936 127.985 128.79 127.75 128.676C127.515 128.562 127.222 128.506 126.87 128.506C126.389 128.506 125.987 128.614 125.665 128.83C125.343 129.042 125.182 129.316 125.182 129.653C125.182 129.945 125.29 130.18 125.506 130.358C125.722 130.536 126.07 130.682 126.551 130.795L127.938 131.114C128.741 131.299 129.339 131.585 129.733 131.972C130.127 132.358 130.324 132.86 130.324 133.477C130.324 134 130.173 134.466 129.87 134.875C129.57 135.28 129.152 135.598 128.614 135.83C128.08 136.061 127.461 136.176 126.756 136.176C125.779 136.176 124.981 135.968 124.364 135.551C123.746 135.131 123.368 134.534 123.228 133.761L124.87 133.511C124.972 133.939 125.182 134.263 125.5 134.483C125.818 134.699 126.233 134.807 126.745 134.807C127.301 134.807 127.746 134.691 128.08 134.46C128.413 134.225 128.58 133.939 128.58 133.602C128.58 133.33 128.478 133.1 128.273 132.915C128.072 132.729 127.764 132.589 127.347 132.494L125.87 132.17C125.055 131.985 124.453 131.689 124.063 131.284C123.676 130.879 123.483 130.366 123.483 129.744C123.483 129.229 123.627 128.778 123.915 128.392C124.203 128.006 124.601 127.705 125.108 127.489C125.616 127.269 126.197 127.159 126.853 127.159C127.796 127.159 128.538 127.364 129.08 127.773C129.621 128.178 129.979 128.722 130.154 129.403ZM135.633 136.176C134.774 136.176 134.033 135.992 133.412 135.625C132.794 135.254 132.317 134.733 131.98 134.062C131.647 133.388 131.48 132.598 131.48 131.693C131.48 130.799 131.647 130.011 131.98 129.33C132.317 128.648 132.787 128.116 133.389 127.733C133.995 127.35 134.703 127.159 135.514 127.159C136.007 127.159 136.484 127.241 136.946 127.403C137.408 127.566 137.823 127.822 138.19 128.17C138.558 128.519 138.847 128.972 139.06 129.528C139.272 130.081 139.378 130.754 139.378 131.545V132.148H132.44V130.875H137.713C137.713 130.428 137.622 130.032 137.44 129.688C137.258 129.339 137.003 129.064 136.673 128.864C136.347 128.663 135.965 128.562 135.525 128.562C135.048 128.562 134.632 128.68 134.275 128.915C133.923 129.146 133.65 129.449 133.457 129.824C133.268 130.195 133.173 130.598 133.173 131.034V132.028C133.173 132.612 133.275 133.108 133.48 133.517C133.688 133.926 133.978 134.239 134.349 134.455C134.721 134.667 135.154 134.773 135.65 134.773C135.972 134.773 136.266 134.727 136.531 134.636C136.796 134.542 137.025 134.402 137.219 134.216C137.412 134.03 137.56 133.801 137.662 133.528L139.27 133.818C139.141 134.292 138.91 134.706 138.577 135.062C138.247 135.415 137.832 135.689 137.332 135.886C136.836 136.08 136.27 136.176 135.633 136.176Z" fill="#999999"/>
<g filter="url(#filter2_ddddd_1_379)">
<rect x="40" y="150" width="386" height="43" rx="21.5" fill="white"/>
<mask id="path-11-inside-2_1_379" fill="white">
<path d="M40 150H83V193H40V150Z"/>
</mask>
<path d="M40 150H83V193H40V150Z" fill="#FBFBFB"/>
<path d="M82 150V193H84V150H82Z" fill="#F5F5F5" mask="url(#path-11-inside-2_1_379)"/>
<path d="M58.2134 168.75H58.125V167C58.125 164.584 60.0838 162.625 62.5 162.625C64.9162 162.625 66.875 164.584 66.875 167V168.75H66.7866M62.5 172.25V174M68.625 173.125C68.625 176.508 65.8827 179.25 62.5 179.25C59.1173 179.25 56.375 176.508 56.375 173.125C56.375 169.742 59.1173 167 62.5 167C65.8827 167 68.625 169.742 68.625 173.125Z" stroke="black" stroke-width="1.5" stroke-linecap="round" stroke-linejoin="round"/>
<circle cx="95" cy="171.5" r="2" fill="#CDCDCD"/>
<circle cx="105" cy="171.5" r="2" fill="#CDCDCD"/>
<circle cx="115" cy="171.5" r="2" fill="#CDCDCD"/>
<circle cx="125" cy="171.5" r="2" fill="#CDCDCD"/>
<circle cx="135" cy="171.5" r="2" fill="#CDCDCD"/>
<circle cx="145" cy="171.5" r="2" fill="#CDCDCD"/>
<circle cx="155" cy="171.5" r="2" fill="#CDCDCD"/>
</g>
<path d="M42.2955 212.364L45.5341 221.841H45.6648L48.9034 212.364H50.8011L46.6136 224H44.5852L40.3977 212.364H42.2955ZM54.9115 224.176C54.0517 224.176 53.3112 223.992 52.6899 223.625C52.0725 223.254 51.5952 222.733 51.2581 222.062C50.9248 221.388 50.7581 220.598 50.7581 219.693C50.7581 218.799 50.9248 218.011 51.2581 217.33C51.5952 216.648 52.0649 216.116 52.6672 215.733C53.2733 215.35 53.9816 215.159 54.7922 215.159C55.2846 215.159 55.7619 215.241 56.224 215.403C56.6862 215.566 57.1009 215.822 57.4684 216.17C57.8358 216.519 58.1255 216.972 58.3377 217.528C58.5498 218.081 58.6559 218.754 58.6559 219.545V220.148H51.7184V218.875H56.9911C56.9911 218.428 56.9002 218.032 56.7184 217.688C56.5365 217.339 56.2809 217.064 55.9513 216.864C55.6255 216.663 55.243 216.562 54.8036 216.562C54.3263 216.562 53.9096 216.68 53.5536 216.915C53.2013 217.146 52.9286 217.449 52.7354 217.824C52.546 218.195 52.4513 218.598 52.4513 219.034V220.028C52.4513 220.612 52.5536 221.108 52.7581 221.517C52.9665 221.926 53.2562 222.239 53.6274 222.455C53.9987 222.667 54.4324 222.773 54.9286 222.773C55.2505 222.773 55.5441 222.727 55.8093 222.636C56.0744 222.542 56.3036 222.402 56.4968 222.216C56.6899 222.03 56.8377 221.801 56.9399 221.528L58.5479 221.818C58.4191 222.292 58.188 222.706 57.8547 223.062C57.5252 223.415 57.1104 223.689 56.6104 223.886C56.1142 224.08 55.5479 224.176 54.9115 224.176ZM54.0252 214.108L55.3547 211.489H57.1445L55.3831 214.108H54.0252ZM60.2208 224V215.273H61.8628V216.659H61.9538C62.1128 216.189 62.3931 215.82 62.7947 215.551C63.2 215.278 63.6583 215.142 64.1697 215.142C64.2757 215.142 64.4007 215.146 64.5447 215.153C64.6924 215.161 64.8079 215.17 64.8913 215.182V216.807C64.8231 216.788 64.7019 216.767 64.5276 216.744C64.3534 216.718 64.1791 216.705 64.0049 216.705C63.6034 216.705 63.2454 216.79 62.931 216.96C62.6204 217.127 62.3742 217.36 62.1924 217.659C62.0106 217.955 61.9197 218.292 61.9197 218.67V224H60.2208ZM66.0414 224V215.273H67.7403V224H66.0414ZM66.8994 213.926C66.6039 213.926 66.3501 213.828 66.138 213.631C65.9297 213.43 65.8255 213.191 65.8255 212.915C65.8255 212.634 65.9297 212.396 66.138 212.199C66.3501 211.998 66.6039 211.898 66.8994 211.898C67.1948 211.898 67.4467 211.998 67.6551 212.199C67.8672 212.396 67.9732 212.634 67.9732 212.915C67.9732 213.191 67.8672 213.43 67.6551 213.631C67.4467 213.828 67.1948 213.926 66.8994 213.926ZM73.8592 215.273V216.636H68.9274V215.273H73.8592ZM70.2797 224V214.261C70.2797 213.716 70.399 213.263 70.6376 212.903C70.8762 212.54 71.1925 212.269 71.5865 212.091C71.9804 211.909 72.4084 211.818 72.8706 211.818C73.2115 211.818 73.5031 211.847 73.7456 211.903C73.988 211.956 74.1679 212.006 74.2853 212.051L73.8876 213.426C73.8081 213.403 73.7058 213.377 73.5808 213.347C73.4558 213.312 73.3043 213.295 73.1262 213.295C72.7134 213.295 72.4179 213.398 72.2399 213.602C72.0656 213.807 71.9785 214.102 71.9785 214.489V224H70.2797ZM75.292 224V215.273H76.9909V224H75.292ZM76.15 213.926C75.8545 213.926 75.6008 213.828 75.3886 213.631C75.1803 213.43 75.0761 213.191 75.0761 212.915C75.0761 212.634 75.1803 212.396 75.3886 212.199C75.6008 211.998 75.8545 211.898 76.15 211.898C76.4455 211.898 76.6974 211.998 76.9057 212.199C77.1178 212.396 77.2239 212.634 77.2239 212.915C77.2239 213.191 77.1178 213.43 76.9057 213.631C76.6974 213.828 76.4455 213.926 76.15 213.926ZM82.6326 224.176C81.7879 224.176 81.0606 223.985 80.4507 223.602C79.8447 223.216 79.3788 222.684 79.053 222.006C78.7273 221.328 78.5644 220.551 78.5644 219.676C78.5644 218.79 78.731 218.008 79.0644 217.33C79.3977 216.648 79.8674 216.116 80.4735 215.733C81.0795 215.35 81.7935 215.159 82.6155 215.159C83.2784 215.159 83.8693 215.282 84.3882 215.528C84.9072 215.771 85.3257 216.112 85.6439 216.551C85.9659 216.991 86.1572 217.504 86.2178 218.091H84.5644C84.4735 217.682 84.2651 217.33 83.9394 217.034C83.6174 216.739 83.1856 216.591 82.6439 216.591C82.1704 216.591 81.7557 216.716 81.3996 216.966C81.0473 217.212 80.7727 217.564 80.5757 218.023C80.3788 218.477 80.2803 219.015 80.2803 219.636C80.2803 220.273 80.3769 220.822 80.5701 221.284C80.7632 221.746 81.036 222.104 81.3882 222.358C81.7443 222.612 82.1629 222.739 82.6439 222.739C82.9659 222.739 83.2576 222.68 83.5189 222.562C83.7841 222.441 84.0057 222.269 84.1837 222.045C84.3655 221.822 84.4924 221.553 84.5644 221.239H86.2178C86.1572 221.803 85.9735 222.307 85.6666 222.75C85.3598 223.193 84.9488 223.542 84.4337 223.795C83.9223 224.049 83.322 224.176 82.6326 224.176ZM90.2543 224.193C89.7013 224.193 89.2013 224.091 88.7543 223.886C88.3073 223.678 87.9532 223.377 87.6918 222.983C87.4342 222.589 87.3055 222.106 87.3055 221.534C87.3055 221.042 87.4001 220.636 87.5895 220.318C87.7789 220 88.0346 219.748 88.3566 219.562C88.6786 219.377 89.0384 219.237 89.4361 219.142C89.8339 219.047 90.2392 218.975 90.652 218.926C91.1748 218.866 91.599 218.816 91.9248 218.778C92.2505 218.737 92.4873 218.67 92.635 218.58C92.7827 218.489 92.8566 218.341 92.8566 218.136V218.097C92.8566 217.6 92.7164 217.216 92.4361 216.943C92.1596 216.67 91.7467 216.534 91.1975 216.534C90.6255 216.534 90.1748 216.661 89.8452 216.915C89.5195 217.165 89.2941 217.443 89.1691 217.75L87.5725 217.386C87.7619 216.856 88.0384 216.428 88.402 216.102C88.7695 215.773 89.1918 215.534 89.6691 215.386C90.1464 215.235 90.6483 215.159 91.1748 215.159C91.5233 215.159 91.8926 215.201 92.2827 215.284C92.6767 215.364 93.0441 215.511 93.385 215.727C93.7297 215.943 94.0119 216.252 94.2316 216.653C94.4513 217.051 94.5611 217.568 94.5611 218.205V224H92.902V222.807H92.8339C92.724 223.027 92.5592 223.242 92.3395 223.455C92.1198 223.667 91.8376 223.843 91.493 223.983C91.1483 224.123 90.7354 224.193 90.2543 224.193ZM90.6236 222.83C91.0933 222.83 91.4948 222.737 91.8282 222.551C92.1653 222.366 92.421 222.123 92.5952 221.824C92.7733 221.521 92.8623 221.197 92.8623 220.852V219.727C92.8017 219.788 92.6842 219.845 92.51 219.898C92.3395 219.947 92.1445 219.991 91.9248 220.028C91.7051 220.062 91.4911 220.095 91.2827 220.125C91.0744 220.152 90.9001 220.174 90.76 220.193C90.4305 220.235 90.1293 220.305 89.8566 220.403C89.5876 220.502 89.3717 220.644 89.2089 220.83C89.0498 221.011 88.9702 221.254 88.9702 221.557C88.9702 221.977 89.1255 222.295 89.4361 222.511C89.7467 222.723 90.1426 222.83 90.6236 222.83ZM100.578 215.273V216.636H95.8107V215.273H100.578ZM97.0891 213.182H98.788V221.438C98.788 221.767 98.8373 222.015 98.9357 222.182C99.0342 222.345 99.1611 222.456 99.3164 222.517C99.4755 222.574 99.6479 222.602 99.8335 222.602C99.9698 222.602 100.089 222.593 100.191 222.574C100.294 222.555 100.373 222.54 100.43 222.528L100.737 223.932C100.638 223.97 100.498 224.008 100.316 224.045C100.135 224.087 99.9073 224.11 99.6346 224.114C99.1876 224.121 98.771 224.042 98.3846 223.875C97.9982 223.708 97.6857 223.451 97.4471 223.102C97.2085 222.754 97.0891 222.316 97.0891 221.79V213.182ZM102.137 224V215.273H103.836V224H102.137ZM102.995 213.926C102.7 213.926 102.446 213.828 102.234 213.631C102.025 213.43 101.921 213.191 101.921 212.915C101.921 212.634 102.025 212.396 102.234 212.199C102.446 211.998 102.7 211.898 102.995 211.898C103.29 211.898 103.542 211.998 103.751 212.199C103.963 212.396 104.069 212.634 104.069 212.915C104.069 213.191 103.963 213.43 103.751 213.631C103.542 213.828 103.29 213.926 102.995 213.926ZM109.478 224.176C108.659 224.176 107.945 223.989 107.336 223.614C106.726 223.239 106.252 222.714 105.915 222.04C105.578 221.366 105.409 220.578 105.409 219.676C105.409 218.771 105.578 217.979 105.915 217.301C106.252 216.623 106.726 216.097 107.336 215.722C107.945 215.347 108.659 215.159 109.478 215.159C110.296 215.159 111.01 215.347 111.62 215.722C112.229 216.097 112.703 216.623 113.04 217.301C113.377 217.979 113.546 218.771 113.546 219.676C113.546 220.578 113.377 221.366 113.04 222.04C112.703 222.714 112.229 223.239 111.62 223.614C111.01 223.989 110.296 224.176 109.478 224.176ZM109.483 222.75C110.014 222.75 110.453 222.61 110.801 222.33C111.15 222.049 111.407 221.676 111.574 221.21C111.745 220.744 111.83 220.231 111.83 219.67C111.83 219.114 111.745 218.602 111.574 218.136C111.407 217.667 111.15 217.29 110.801 217.006C110.453 216.722 110.014 216.58 109.483 216.58C108.949 216.58 108.506 216.722 108.154 217.006C107.805 217.29 107.546 217.667 107.375 218.136C107.209 218.602 107.125 219.114 107.125 219.67C107.125 220.231 107.209 220.744 107.375 221.21C107.546 221.676 107.805 222.049 108.154 222.33C108.506 222.61 108.949 222.75 109.483 222.75ZM116.821 218.818V224H115.122V215.273H116.753V216.693H116.861C117.061 216.231 117.376 215.86 117.804 215.58C118.236 215.299 118.779 215.159 119.435 215.159C120.029 215.159 120.55 215.284 120.997 215.534C121.444 215.78 121.791 216.148 122.037 216.636C122.283 217.125 122.406 217.729 122.406 218.449V224H120.707V218.653C120.707 218.021 120.543 217.527 120.213 217.17C119.883 216.811 119.431 216.631 118.855 216.631C118.461 216.631 118.111 216.716 117.804 216.886C117.501 217.057 117.26 217.307 117.082 217.636C116.908 217.962 116.821 218.356 116.821 218.818Z" fill="#999999"/>
<g filter="url(#filter3_ddddd_1_379)">
<rect x="40" y="238" width="386" height="43" rx="21.5" fill="white"/>
<mask id="path-23-inside-3_1_379" fill="white">
<path d="M40 238H83V281H40V238Z"/>
</mask>
<path d="M40 238H83V281H40V238Z" fill="#FBFBFB"/>
<path d="M82 238V281H84V238H82Z" fill="#F5F5F5" mask="url(#path-23-inside-3_1_379)"/>
<path d="M58.2134 256.75H58.125V255C58.125 252.584 60.0838 250.625 62.5 250.625C64.9162 250.625 66.875 252.584 66.875 255V256.75H66.7866M62.5 260.25V262M68.625 261.125C68.625 264.508 65.8827 267.25 62.5 267.25C59.1173 267.25 56.375 264.508 56.375 261.125C56.375 257.742 59.1173 255 62.5 255C65.8827 255 68.625 257.742 68.625 261.125Z" stroke="black" stroke-width="1.5" stroke-linecap="round" stroke-linejoin="round"/>
<circle cx="95" cy="259.5" r="2" fill="#CDCDCD"/>
<circle cx="105" cy="259.5" r="2" fill="#CDCDCD"/>
<circle cx="115" cy="259.5" r="2" fill="#CDCDCD"/>
<circle cx="125" cy="259.5" r="2" fill="#CDCDCD"/>
<circle cx="135" cy="259.5" r="2" fill="#CDCDCD"/>
<circle cx="145" cy="259.5" r="2" fill="#CDCDCD"/>
<circle cx="155" cy="259.5" r="2" fill="#CDCDCD"/>
</g>
<g filter="url(#filter4_d_1_379)">
<path d="M40 327C40 314.85 49.8497 305 62 305H404C416.15 305 426 314.85 426 327C426 339.15 416.15 349 404 349H62C49.8497 349 40 339.15 40 327Z" fill="black"/>
<path d="M131.592 327.416C131.592 326.328 131.843 325.352 132.344 324.488C132.856 323.624 133.544 322.952 134.408 322.472C135.283 321.981 136.237 321.736 137.272 321.736C138.456 321.736 139.507 322.029 140.424 322.616C141.352 323.192 142.024 324.013 142.44 325.08H140.248C139.96 324.493 139.56 324.056 139.048 323.768C138.536 323.48 137.944 323.336 137.272 323.336C136.536 323.336 135.88 323.501 135.304 323.832C134.728 324.163 134.275 324.637 133.944 325.256C133.624 325.875 133.464 326.595 133.464 327.416C133.464 328.237 133.624 328.957 133.944 329.576C134.275 330.195 134.728 330.675 135.304 331.016C135.88 331.347 136.536 331.512 137.272 331.512C137.944 331.512 138.536 331.368 139.048 331.08C139.56 330.792 139.96 330.355 140.248 329.768H142.44C142.024 330.835 141.352 331.656 140.424 332.232C139.507 332.808 138.456 333.096 137.272 333.096C136.227 333.096 135.272 332.856 134.408 332.376C133.544 331.885 132.856 331.208 132.344 330.344C131.843 329.48 131.592 328.504 131.592 327.416ZM148.079 333.144C147.247 333.144 146.495 332.957 145.823 332.584C145.151 332.2 144.623 331.667 144.239 330.984C143.855 330.291 143.663 329.491 143.663 328.584C143.663 327.688 143.86 326.893 144.255 326.2C144.65 325.507 145.188 324.973 145.871 324.6C146.554 324.227 147.316 324.04 148.159 324.04C149.002 324.04 149.764 324.227 150.447 324.6C151.13 324.973 151.668 325.507 152.063 326.2C152.458 326.893 152.655 327.688 152.655 328.584C152.655 329.48 152.452 330.275 152.047 330.968C151.642 331.661 151.087 332.2 150.383 332.584C149.69 332.957 148.922 333.144 148.079 333.144ZM148.079 331.56C148.548 331.56 148.986 331.448 149.391 331.224C149.807 331 150.143 330.664 150.399 330.216C150.655 329.768 150.783 329.224 150.783 328.584C150.783 327.944 150.66 327.405 150.415 326.968C150.17 326.52 149.844 326.184 149.439 325.96C149.034 325.736 148.596 325.624 148.127 325.624C147.658 325.624 147.22 325.736 146.815 325.96C146.42 326.184 146.106 326.52 145.871 326.968C145.636 327.405 145.519 327.944 145.519 328.584C145.519 329.533 145.759 330.269 146.239 330.792C146.73 331.304 147.343 331.56 148.079 331.56ZM158.586 324.04C159.279 324.04 159.898 324.184 160.442 324.472C160.997 324.76 161.429 325.187 161.738 325.752C162.047 326.317 162.202 327 162.202 327.8V333H160.394V328.072C160.394 327.283 160.197 326.68 159.802 326.264C159.407 325.837 158.869 325.624 158.186 325.624C157.503 325.624 156.959 325.837 156.554 326.264C156.159 326.68 155.962 327.283 155.962 328.072V333H154.138V324.184H155.962V325.192C156.261 324.829 156.639 324.547 157.098 324.344C157.567 324.141 158.063 324.04 158.586 324.04ZM168.657 324.04C169.35 324.04 169.969 324.184 170.513 324.472C171.067 324.76 171.499 325.187 171.809 325.752C172.118 326.317 172.273 327 172.273 327.8V333H170.465V328.072C170.465 327.283 170.267 326.68 169.873 326.264C169.478 325.837 168.939 325.624 168.257 325.624C167.574 325.624 167.03 325.837 166.625 326.264C166.23 326.68 166.033 327.283 166.033 328.072V333H164.209V324.184H166.033V325.192C166.331 324.829 166.71 324.547 167.169 324.344C167.638 324.141 168.134 324.04 168.657 324.04ZM182.359 328.376C182.359 328.707 182.338 329.005 182.295 329.272H175.559C175.613 329.976 175.874 330.541 176.343 330.968C176.813 331.395 177.389 331.608 178.071 331.608C179.053 331.608 179.746 331.197 180.151 330.376H182.119C181.853 331.187 181.367 331.853 180.663 332.376C179.97 332.888 179.106 333.144 178.071 333.144C177.229 333.144 176.471 332.957 175.799 332.584C175.138 332.2 174.615 331.667 174.231 330.984C173.858 330.291 173.671 329.491 173.671 328.584C173.671 327.677 173.853 326.883 174.215 326.2C174.589 325.507 175.106 324.973 175.767 324.6C176.439 324.227 177.207 324.04 178.071 324.04C178.903 324.04 179.645 324.221 180.295 324.584C180.946 324.947 181.453 325.459 181.815 326.12C182.178 326.771 182.359 327.523 182.359 328.376ZM180.455 327.8C180.445 327.128 180.205 326.589 179.735 326.184C179.266 325.779 178.685 325.576 177.991 325.576C177.362 325.576 176.823 325.779 176.375 326.184C175.927 326.579 175.661 327.117 175.575 327.8H180.455ZM183.226 328.584C183.226 327.677 183.408 326.883 183.77 326.2C184.144 325.507 184.656 324.973 185.306 324.6C185.957 324.227 186.704 324.04 187.546 324.04C188.613 324.04 189.493 324.296 190.186 324.808C190.89 325.309 191.365 326.029 191.61 326.968H189.642C189.482 326.531 189.226 326.189 188.874 325.944C188.522 325.699 188.08 325.576 187.546 325.576C186.8 325.576 186.202 325.843 185.754 326.376C185.317 326.899 185.098 327.635 185.098 328.584C185.098 329.533 185.317 330.275 185.754 330.808C186.202 331.341 186.8 331.608 187.546 331.608C188.602 331.608 189.301 331.144 189.642 330.216H191.61C191.354 331.112 190.874 331.827 190.17 332.36C189.466 332.883 188.592 333.144 187.546 333.144C186.704 333.144 185.957 332.957 185.306 332.584C184.656 332.2 184.144 331.667 183.77 330.984C183.408 330.291 183.226 329.491 183.226 328.584ZM195.236 325.672V330.552C195.236 330.883 195.311 331.123 195.46 331.272C195.62 331.411 195.887 331.48 196.26 331.48H197.38V333H195.94C195.119 333 194.489 332.808 194.052 332.424C193.615 332.04 193.396 331.416 193.396 330.552V325.672H192.356V324.184H193.396V321.992H195.236V324.184H197.38V325.672H195.236ZM206.821 328.376C206.821 328.707 206.8 329.005 206.757 329.272H200.021C200.075 329.976 200.336 330.541 200.805 330.968C201.275 331.395 201.851 331.608 202.533 331.608C203.515 331.608 204.208 331.197 204.613 330.376H206.581C206.315 331.187 205.829 331.853 205.125 332.376C204.432 332.888 203.568 333.144 202.533 333.144C201.691 333.144 200.933 332.957 200.261 332.584C199.6 332.2 199.077 331.667 198.693 330.984C198.32 330.291 198.133 329.491 198.133 328.584C198.133 327.677 198.315 326.883 198.677 326.2C199.051 325.507 199.568 324.973 200.229 324.6C200.901 324.227 201.669 324.04 202.533 324.04C203.365 324.04 204.107 324.221 204.757 324.584C205.408 324.947 205.915 325.459 206.277 326.12C206.64 326.771 206.821 327.523 206.821 328.376ZM204.917 327.8C204.907 327.128 204.667 326.589 204.197 326.184C203.728 325.779 203.147 325.576 202.453 325.576C201.824 325.576 201.285 325.779 200.837 326.184C200.389 326.579 200.123 327.117 200.037 327.8H204.917ZM210.12 325.464C210.387 325.016 210.739 324.669 211.176 324.424C211.624 324.168 212.152 324.04 212.76 324.04V325.928H212.296C211.582 325.928 211.038 326.109 210.664 326.472C210.302 326.835 210.12 327.464 210.12 328.36V333H208.296V324.184H210.12V325.464ZM228.625 324.04C229.318 324.04 229.937 324.184 230.481 324.472C231.036 324.76 231.468 325.187 231.777 325.752C232.097 326.317 232.257 327 232.257 327.8V333H230.449V328.072C230.449 327.283 230.252 326.68 229.857 326.264C229.462 325.837 228.924 325.624 228.241 325.624C227.558 325.624 227.014 325.837 226.609 326.264C226.214 326.68 226.017 327.283 226.017 328.072V333H224.209V328.072C224.209 327.283 224.012 326.68 223.617 326.264C223.222 325.837 222.684 325.624 222.001 325.624C221.318 325.624 220.774 325.837 220.369 326.264C219.974 326.68 219.777 327.283 219.777 328.072V333H217.953V324.184H219.777V325.192C220.076 324.829 220.454 324.547 220.913 324.344C221.372 324.141 221.862 324.04 222.385 324.04C223.089 324.04 223.718 324.189 224.273 324.488C224.828 324.787 225.254 325.219 225.553 325.784C225.82 325.251 226.236 324.829 226.801 324.52C227.366 324.2 227.974 324.04 228.625 324.04ZM238.082 333.144C237.25 333.144 236.498 332.957 235.826 332.584C235.154 332.2 234.626 331.667 234.242 330.984C233.858 330.291 233.666 329.491 233.666 328.584C233.666 327.688 233.863 326.893 234.258 326.2C234.653 325.507 235.191 324.973 235.874 324.6C236.557 324.227 237.319 324.04 238.162 324.04C239.005 324.04 239.767 324.227 240.45 324.6C241.133 324.973 241.671 325.507 242.066 326.2C242.461 326.893 242.658 327.688 242.658 328.584C242.658 329.48 242.455 330.275 242.05 330.968C241.645 331.661 241.09 332.2 240.386 332.584C239.693 332.957 238.925 333.144 238.082 333.144ZM238.082 331.56C238.551 331.56 238.989 331.448 239.394 331.224C239.81 331 240.146 330.664 240.402 330.216C240.658 329.768 240.786 329.224 240.786 328.584C240.786 327.944 240.663 327.405 240.418 326.968C240.173 326.52 239.847 326.184 239.442 325.96C239.037 325.736 238.599 325.624 238.13 325.624C237.661 325.624 237.223 325.736 236.818 325.96C236.423 326.184 236.109 326.52 235.874 326.968C235.639 327.405 235.522 327.944 235.522 328.584C235.522 329.533 235.762 330.269 236.242 330.792C236.733 331.304 237.346 331.56 238.082 331.56ZM248.589 324.04C249.283 324.04 249.901 324.184 250.445 324.472C251 324.76 251.432 325.187 251.741 325.752C252.051 326.317 252.205 327 252.205 327.8V333H250.397V328.072C250.397 327.283 250.2 326.68 249.805 326.264C249.411 325.837 248.872 325.624 248.189 325.624C247.507 325.624 246.963 325.837 246.557 326.264C246.163 326.68 245.965 327.283 245.965 328.072V333H244.141V324.184H245.965V325.192C246.264 324.829 246.643 324.547 247.101 324.344C247.571 324.141 248.067 324.04 248.589 324.04ZM257.44 328.584C257.44 327.677 257.621 326.883 257.984 326.2C258.357 325.507 258.869 324.973 259.52 324.6C260.171 324.227 260.917 324.04 261.76 324.04C262.827 324.04 263.707 324.296 264.4 324.808C265.104 325.309 265.579 326.029 265.824 326.968H263.856C263.696 326.531 263.44 326.189 263.088 325.944C262.736 325.699 262.293 325.576 261.76 325.576C261.013 325.576 260.416 325.843 259.968 326.376C259.531 326.899 259.312 327.635 259.312 328.584C259.312 329.533 259.531 330.275 259.968 330.808C260.416 331.341 261.013 331.608 261.76 331.608C262.816 331.608 263.515 331.144 263.856 330.216H265.824C265.568 331.112 265.088 331.827 264.384 332.36C263.68 332.883 262.805 333.144 261.76 333.144C260.917 333.144 260.171 332.957 259.52 332.584C258.869 332.2 258.357 331.667 257.984 330.984C257.621 330.291 257.44 329.491 257.44 328.584ZM271.146 333.144C270.314 333.144 269.562 332.957 268.89 332.584C268.218 332.2 267.69 331.667 267.306 330.984C266.922 330.291 266.73 329.491 266.73 328.584C266.73 327.688 266.927 326.893 267.322 326.2C267.717 325.507 268.255 324.973 268.938 324.6C269.621 324.227 270.383 324.04 271.226 324.04C272.069 324.04 272.831 324.227 273.514 324.6C274.197 324.973 274.735 325.507 275.13 326.2C275.525 326.893 275.722 327.688 275.722 328.584C275.722 329.48 275.519 330.275 275.114 330.968C274.709 331.661 274.154 332.2 273.45 332.584C272.757 332.957 271.989 333.144 271.146 333.144ZM271.146 331.56C271.615 331.56 272.053 331.448 272.458 331.224C272.874 331 273.21 330.664 273.466 330.216C273.722 329.768 273.85 329.224 273.85 328.584C273.85 327.944 273.727 327.405 273.482 326.968C273.237 326.52 272.911 326.184 272.506 325.96C272.101 325.736 271.663 325.624 271.194 325.624C270.725 325.624 270.287 325.736 269.882 325.96C269.487 326.184 269.173 326.52 268.938 326.968C268.703 327.405 268.586 327.944 268.586 328.584C268.586 329.533 268.826 330.269 269.306 330.792C269.797 331.304 270.41 331.56 271.146 331.56ZM287.877 324.04C288.57 324.04 289.189 324.184 289.733 324.472C290.288 324.76 290.72 325.187 291.029 325.752C291.349 326.317 291.509 327 291.509 327.8V333H289.701V328.072C289.701 327.283 289.504 326.68 289.109 326.264C288.714 325.837 288.176 325.624 287.493 325.624C286.81 325.624 286.266 325.837 285.861 326.264C285.466 326.68 285.269 327.283 285.269 328.072V333H283.461V328.072C283.461 327.283 283.264 326.68 282.869 326.264C282.474 325.837 281.936 325.624 281.253 325.624C280.57 325.624 280.026 325.837 279.621 326.264C279.226 326.68 279.029 327.283 279.029 328.072V333H277.205V324.184H279.029V325.192C279.328 324.829 279.706 324.547 280.165 324.344C280.624 324.141 281.114 324.04 281.637 324.04C282.341 324.04 282.97 324.189 283.525 324.488C284.08 324.787 284.506 325.219 284.805 325.784C285.072 325.251 285.488 324.829 286.053 324.52C286.618 324.2 287.226 324.04 287.877 324.04ZM295.334 325.48C295.643 325.075 296.065 324.733 296.598 324.456C297.131 324.179 297.734 324.04 298.406 324.04C299.174 324.04 299.873 324.232 300.502 324.616C301.142 324.989 301.643 325.517 302.006 326.2C302.369 326.883 302.55 327.667 302.55 328.552C302.55 329.437 302.369 330.232 302.006 330.936C301.643 331.629 301.142 332.173 300.502 332.568C299.873 332.952 299.174 333.144 298.406 333.144C297.734 333.144 297.137 333.011 296.614 332.744C296.091 332.467 295.665 332.125 295.334 331.72V337.192H293.51V324.184H295.334V325.48ZM300.694 328.552C300.694 327.944 300.566 327.421 300.31 326.984C300.065 326.536 299.734 326.2 299.318 325.976C298.913 325.741 298.475 325.624 298.006 325.624C297.547 325.624 297.11 325.741 296.694 325.976C296.289 326.211 295.958 326.552 295.702 327C295.457 327.448 295.334 327.976 295.334 328.584C295.334 329.192 295.457 329.725 295.702 330.184C295.958 330.632 296.289 330.973 296.694 331.208C297.11 331.443 297.547 331.56 298.006 331.56C298.475 331.56 298.913 331.443 299.318 331.208C299.734 330.963 300.065 330.611 300.31 330.152C300.566 329.693 300.694 329.16 300.694 328.552ZM306.162 325.672V330.552C306.162 330.883 306.236 331.123 306.386 331.272C306.546 331.411 306.812 331.48 307.186 331.48H308.306V333H306.866C306.044 333 305.415 332.808 304.978 332.424C304.54 332.04 304.322 331.416 304.322 330.552V325.672H303.282V324.184H304.322V321.992H306.162V324.184H308.306V325.672H306.162ZM317.747 328.376C317.747 328.707 317.726 329.005 317.683 329.272H310.947C311 329.976 311.262 330.541 311.731 330.968C312.2 331.395 312.776 331.608 313.459 331.608C314.44 331.608 315.134 331.197 315.539 330.376H317.507C317.24 331.187 316.755 331.853 316.051 332.376C315.358 332.888 314.494 333.144 313.459 333.144C312.616 333.144 311.859 332.957 311.187 332.584C310.526 332.2 310.003 331.667 309.619 330.984C309.246 330.291 309.059 329.491 309.059 328.584C309.059 327.677 309.24 326.883 309.603 326.2C309.976 325.507 310.494 324.973 311.155 324.6C311.827 324.227 312.595 324.04 313.459 324.04C314.291 324.04 315.032 324.221 315.683 324.584C316.334 324.947 316.84 325.459 317.203 326.12C317.566 326.771 317.747 327.523 317.747 328.376ZM315.843 327.8C315.832 327.128 315.592 326.589 315.123 326.184C314.654 325.779 314.072 325.576 313.379 325.576C312.75 325.576 312.211 325.779 311.763 326.184C311.315 326.579 311.048 327.117 310.963 327.8H315.843Z" fill="white"/>
<mask id="mask0_1_379" style="mask-type:alpha" maskUnits="userSpaceOnUse" x="325" y="317" width="20" height="20">
<rect x="325" y="317" width="20" height="20" fill="url(#paint0_linear_1_379)"/>
</mask>
<g mask="url(#mask0_1_379)">
<path d="M330.238 331.246L334.206 327.278L330.238 323.309M335.794 331.246L339.762 327.278L335.794 323.309" stroke="white" stroke-width="1.42857" stroke-linecap="round" stroke-linejoin="round"/>
</g>
</g>
</g>
<defs>
<filter id="filter0_ddddd_1_379" x="0" y="0" width="466" height="405" filterUnits="userSpaceOnUse" color-interpolation-filters="sRGB">
<feFlood flood-opacity="0" result="BackgroundImageFix"/>
<feColorMatrix in="SourceAlpha" type="matrix" values="0 0 0 0 0 0 0 0 0 0 0 0 0 0 0 0 0 0 127 0" result="hardAlpha"/>
<feMorphology radius="8" operator="erode" in="SourceAlpha" result="effect1_dropShadow_1_379"/>
<feOffset dy="16"/>
<feGaussianBlur stdDeviation="8"/>
<feComposite in2="hardAlpha" operator="out"/>
<feColorMatrix type="matrix" values="0 0 0 0 0.164706 0 0 0 0 0.2 0 0 0 0 0.27451 0 0 0 0.04 0"/>
<feBlend mode="normal" in2="BackgroundImageFix" result="effect1_dropShadow_1_379"/>
<feColorMatrix in="SourceAlpha" type="matrix" values="0 0 0 0 0 0 0 0 0 0 0 0 0 0 0 0 0 0 127 0" result="hardAlpha"/>
<feMorphology radius="2.5" operator="erode" in="SourceAlpha" result="effect2_dropShadow_1_379"/>
<feOffset dy="5"/>
<feGaussianBlur stdDeviation="2.5"/>
<feComposite in2="hardAlpha" operator="out"/>
<feColorMatrix type="matrix" values="0 0 0 0 0.164706 0 0 0 0 0.2 0 0 0 0 0.27451 0 0 0 0.03 0"/>
<feBlend mode="normal" in2="effect1_dropShadow_1_379" result="effect2_dropShadow_1_379"/>
<feColorMatrix in="SourceAlpha" type="matrix" values="0 0 0 0 0 0 0 0 0 0 0 0 0 0 0 0 0 0 127 0" result="hardAlpha"/>
<feMorphology radius="1.5" operator="erode" in="SourceAlpha" result="effect3_dropShadow_1_379"/>
<feOffset dy="3"/>
<feGaussianBlur stdDeviation="1.5"/>
<feComposite in2="hardAlpha" operator="out"/>
<feColorMatrix type="matrix" values="0 0 0 0 0.164706 0 0 0 0 0.2 0 0 0 0 0.27451 0 0 0 0.05 0"/>
<feBlend mode="normal" in2="effect2_dropShadow_1_379" result="effect3_dropShadow_1_379"/>
<feColorMatrix in="SourceAlpha" type="matrix" values="0 0 0 0 0 0 0 0 0 0 0 0 0 0 0 0 0 0 127 0" result="hardAlpha"/>
<feMorphology radius="0.5" operator="erode" in="SourceAlpha" result="effect4_dropShadow_1_379"/>
<feOffset dy="1"/>
<feGaussianBlur stdDeviation="0.5"/>
<feComposite in2="hardAlpha" operator="out"/>
<feColorMatrix type="matrix" values="0 0 0 0 0.164706 0 0 0 0 0.2 0 0 0 0 0.27451 0 0 0 0.03 0"/>
<feBlend mode="normal" in2="effect3_dropShadow_1_379" result="effect4_dropShadow_1_379"/>
<feColorMatrix in="SourceAlpha" type="matrix" values="0 0 0 0 0 0 0 0 0 0 0 0 0 0 0 0 0 0 127 0" result="hardAlpha"/>
<feMorphology radius="1" operator="dilate" in="SourceAlpha" result="effect5_dropShadow_1_379"/>
<feOffset/>
<feComposite in2="hardAlpha" operator="out"/>
<feColorMatrix type="matrix" values="0 0 0 0 0.054902 0 0 0 0 0.247059 0 0 0 0 0.494118 0 0 0 0.06 0"/>
<feBlend mode="normal" in2="effect4_dropShadow_1_379" result="effect5_dropShadow_1_379"/>
<feBlend mode="normal" in="SourceGraphic" in2="effect5_dropShadow_1_379" result="shape"/>
</filter>
<filter id="filter1_ddddd_1_379" x="32" y="61" width="402" height="68" filterUnits="userSpaceOnUse" color-interpolation-filters="sRGB">
<feFlood flood-opacity="0" result="BackgroundImageFix"/>
<feColorMatrix in="SourceAlpha" type="matrix" values="0 0 0 0 0 0 0 0 0 0 0 0 0 0 0 0 0 0 127 0" result="hardAlpha"/>
<feMorphology radius="8" operator="erode" in="SourceAlpha" result="effect1_dropShadow_1_379"/>
<feOffset dy="16"/>
<feGaussianBlur stdDeviation="8"/>
<feComposite in2="hardAlpha" operator="out"/>
<feColorMatrix type="matrix" values="0 0 0 0 0.164706 0 0 0 0 0.2 0 0 0 0 0.27451 0 0 0 0.04 0"/>
<feBlend mode="normal" in2="BackgroundImageFix" result="effect1_dropShadow_1_379"/>
<feColorMatrix in="SourceAlpha" type="matrix" values="0 0 0 0 0 0 0 0 0 0 0 0 0 0 0 0 0 0 127 0" result="hardAlpha"/>
<feMorphology radius="2.5" operator="erode" in="SourceAlpha" result="effect2_dropShadow_1_379"/>
<feOffset dy="5"/>
<feGaussianBlur stdDeviation="2.5"/>
<feComposite in2="hardAlpha" operator="out"/>
<feColorMatrix type="matrix" values="0 0 0 0 0.164706 0 0 0 0 0.2 0 0 0 0 0.27451 0 0 0 0.03 0"/>
<feBlend mode="normal" in2="effect1_dropShadow_1_379" result="effect2_dropShadow_1_379"/>
<feColorMatrix in="SourceAlpha" type="matrix" values="0 0 0 0 0 0 0 0 0 0 0 0 0 0 0 0 0 0 127 0" result="hardAlpha"/>
<feMorphology radius="1.5" operator="erode" in="SourceAlpha" result="effect3_dropShadow_1_379"/>
<feOffset dy="3"/>
<feGaussianBlur stdDeviation="1.5"/>
<feComposite in2="hardAlpha" operator="out"/>
<feColorMatrix type="matrix" values="0 0 0 0 0.164706 0 0 0 0 0.2 0 0 0 0 0.27451 0 0 0 0.05 0"/>
<feBlend mode="normal" in2="effect2_dropShadow_1_379" result="effect3_dropShadow_1_379"/>
<feColorMatrix in="SourceAlpha" type="matrix" values="0 0 0 0 0 0 0 0 0 0 0 0 0 0 0 0 0 0 127 0" result="hardAlpha"/>
<feMorphology radius="0.5" operator="erode" in="SourceAlpha" result="effect4_dropShadow_1_379"/>
<feOffset dy="1"/>
<feGaussianBlur stdDeviation="0.5"/>
<feComposite in2="hardAlpha" operator="out"/>
<feColorMatrix type="matrix" values="0 0 0 0 0.164706 0 0 0 0 0.2 0 0 0 0 0.27451 0 0 0 0.03 0"/>
<feBlend mode="normal" in2="effect3_dropShadow_1_379" result="effect4_dropShadow_1_379"/>
<feColorMatrix in="SourceAlpha" type="matrix" values="0 0 0 0 0 0 0 0 0 0 0 0 0 0 0 0 0 0 127 0" result="hardAlpha"/>
<feMorphology radius="1" operator="dilate" in="SourceAlpha" result="effect5_dropShadow_1_379"/>
<feOffset/>
<feComposite in2="hardAlpha" operator="out"/>
<feColorMatrix type="matrix" values="0 0 0 0 0.054902 0 0 0 0 0.247059 0 0 0 0 0.494118 0 0 0 0.06 0"/>
<feBlend mode="normal" in2="effect4_dropShadow_1_379" result="effect5_dropShadow_1_379"/>
<feBlend mode="normal" in="SourceGraphic" in2="effect5_dropShadow_1_379" result="shape"/>
</filter>
<filter id="filter2_ddddd_1_379" x="32" y="149" width="402" height="68" filterUnits="userSpaceOnUse" color-interpolation-filters="sRGB">
<feFlood flood-opacity="0" result="BackgroundImageFix"/>
<feColorMatrix in="SourceAlpha" type="matrix" values="0 0 0 0 0 0 0 0 0 0 0 0 0 0 0 0 0 0 127 0" result="hardAlpha"/>
<feMorphology radius="8" operator="erode" in="SourceAlpha" result="effect1_dropShadow_1_379"/>
<feOffset dy="16"/>
<feGaussianBlur stdDeviation="8"/>
<feComposite in2="hardAlpha" operator="out"/>
<feColorMatrix type="matrix" values="0 0 0 0 0.164706 0 0 0 0 0.2 0 0 0 0 0.27451 0 0 0 0.04 0"/>
<feBlend mode="normal" in2="BackgroundImageFix" result="effect1_dropShadow_1_379"/>
<feColorMatrix in="SourceAlpha" type="matrix" values="0 0 0 0 0 0 0 0 0 0 0 0 0 0 0 0 0 0 127 0" result="hardAlpha"/>
<feMorphology radius="2.5" operator="erode" in="SourceAlpha" result="effect2_dropShadow_1_379"/>
<feOffset dy="5"/>
<feGaussianBlur stdDeviation="2.5"/>
<feComposite in2="hardAlpha" operator="out"/>
<feColorMatrix type="matrix" values="0 0 0 0 0.164706 0 0 0 0 0.2 0 0 0 0 0.27451 0 0 0 0.03 0"/>
<feBlend mode="normal" in2="effect1_dropShadow_1_379" result="effect2_dropShadow_1_379"/>
<feColorMatrix in="SourceAlpha" type="matrix" values="0 0 0 0 0 0 0 0 0 0 0 0 0 0 0 0 0 0 127 0" result="hardAlpha"/>
<feMorphology radius="1.5" operator="erode" in="SourceAlpha" result="effect3_dropShadow_1_379"/>
<feOffset dy="3"/>
<feGaussianBlur stdDeviation="1.5"/>
<feComposite in2="hardAlpha" operator="out"/>
<feColorMatrix type="matrix" values="0 0 0 0 0.164706 0 0 0 0 0.2 0 0 0 0 0.27451 0 0 0 0.05 0"/>
<feBlend mode="normal" in2="effect2_dropShadow_1_379" result="effect3_dropShadow_1_379"/>
<feColorMatrix in="SourceAlpha" type="matrix" values="0 0 0 0 0 0 0 0 0 0 0 0 0 0 0 0 0 0 127 0" result="hardAlpha"/>
<feMorphology radius="0.5" operator="erode" in="SourceAlpha" result="effect4_dropShadow_1_379"/>
<feOffset dy="1"/>
<feGaussianBlur stdDeviation="0.5"/>
<feComposite in2="hardAlpha" operator="out"/>
<feColorMatrix type="matrix" values="0 0 0 0 0.164706 0 0 0 0 0.2 0 0 0 0 0.27451 0 0 0 0.03 0"/>
<feBlend mode="normal" in2="effect3_dropShadow_1_379" result="effect4_dropShadow_1_379"/>
<feColorMatrix in="SourceAlpha" type="matrix" values="0 0 0 0 0 0 0 0 0 0 0 0 0 0 0 0 0 0 127 0" result="hardAlpha"/>
<feMorphology radius="1" operator="dilate" in="SourceAlpha" result="effect5_dropShadow_1_379"/>
<feOffset/>
<feComposite in2="hardAlpha" operator="out"/>
<feColorMatrix type="matrix" values="0 0 0 0 0.054902 0 0 0 0 0.247059 0 0 0 0 0.494118 0 0 0 0.06 0"/>
<feBlend mode="normal" in2="effect4_dropShadow_1_379" result="effect5_dropShadow_1_379"/>
<feBlend mode="normal" in="SourceGraphic" in2="effect5_dropShadow_1_379" result="shape"/>
</filter>
<filter id="filter3_ddddd_1_379" x="32" y="237" width="402" height="68" filterUnits="userSpaceOnUse" color-interpolation-filters="sRGB">
<feFlood flood-opacity="0" result="BackgroundImageFix"/>
<feColorMatrix in="SourceAlpha" type="matrix" values="0 0 0 0 0 0 0 0 0 0 0 0 0 0 0 0 0 0 127 0" result="hardAlpha"/>
<feMorphology radius="8" operator="erode" in="SourceAlpha" result="effect1_dropShadow_1_379"/>
<feOffset dy="16"/>
<feGaussianBlur stdDeviation="8"/>
<feComposite in2="hardAlpha" operator="out"/>
<feColorMatrix type="matrix" values="0 0 0 0 0.164706 0 0 0 0 0.2 0 0 0 0 0.27451 0 0 0 0.04 0"/>
<feBlend mode="normal" in2="BackgroundImageFix" result="effect1_dropShadow_1_379"/>
<feColorMatrix in="SourceAlpha" type="matrix" values="0 0 0 0 0 0 0 0 0 0 0 0 0 0 0 0 0 0 127 0" result="hardAlpha"/>
<feMorphology radius="2.5" operator="erode" in="SourceAlpha" result="effect2_dropShadow_1_379"/>
<feOffset dy="5"/>
<feGaussianBlur stdDeviation="2.5"/>
<feComposite in2="hardAlpha" operator="out"/>
<feColorMatrix type="matrix" values="0 0 0 0 0.164706 0 0 0 0 0.2 0 0 0 0 0.27451 0 0 0 0.03 0"/>
<feBlend mode="normal" in2="effect1_dropShadow_1_379" result="effect2_dropShadow_1_379"/>
<feColorMatrix in="SourceAlpha" type="matrix" values="0 0 0 0 0 0 0 0 0 0 0 0 0 0 0 0 0 0 127 0" result="hardAlpha"/>
<feMorphology radius="1.5" operator="erode" in="SourceAlpha" result="effect3_dropShadow_1_379"/>
<feOffset dy="3"/>
<feGaussianBlur stdDeviation="1.5"/>
<feComposite in2="hardAlpha" operator="out"/>
<feColorMatrix type="matrix" values="0 0 0 0 0.164706 0 0 0 0 0.2 0 0 0 0 0.27451 0 0 0 0.05 0"/>
<feBlend mode="normal" in2="effect2_dropShadow_1_379" result="effect3_dropShadow_1_379"/>
<feColorMatrix in="SourceAlpha" type="matrix" values="0 0 0 0 0 0 0 0 0 0 0 0 0 0 0 0 0 0 127 0" result="hardAlpha"/>
<feMorphology radius="0.5" operator="erode" in="SourceAlpha" result="effect4_dropShadow_1_379"/>
<feOffset dy="1"/>
<feGaussianBlur stdDeviation="0.5"/>
<feComposite in2="hardAlpha" operator="out"/>
<feColorMatrix type="matrix" values="0 0 0 0 0.164706 0 0 0 0 0.2 0 0 0 0 0.27451 0 0 0 0.03 0"/>
<feBlend mode="normal" in2="effect3_dropShadow_1_379" result="effect4_dropShadow_1_379"/>
<feColorMatrix in="SourceAlpha" type="matrix" values="0 0 0 0 0 0 0 0 0 0 0 0 0 0 0 0 0 0 127 0" result="hardAlpha"/>
<feMorphology radius="1" operator="dilate" in="SourceAlpha" result="effect5_dropShadow_1_379"/>
<feOffset/>
<feComposite in2="hardAlpha" operator="out"/>
<feColorMatrix type="matrix" values="0 0 0 0 0.054902 0 0 0 0 0.247059 0 0 0 0 0.494118 0 0 0 0.06 0"/>
<feBlend mode="normal" in2="effect4_dropShadow_1_379" result="effect5_dropShadow_1_379"/>
<feBlend mode="normal" in="SourceGraphic" in2="effect5_dropShadow_1_379" result="shape"/>
</filter>
<filter id="filter4_d_1_379" x="24" y="295" width="418" height="76" filterUnits="userSpaceOnUse" color-interpolation-filters="sRGB">
<feFlood flood-opacity="0" result="BackgroundImageFix"/>
<feColorMatrix in="SourceAlpha" type="matrix" values="0 0 0 0 0 0 0 0 0 0 0 0 0 0 0 0 0 0 127 0" result="hardAlpha"/>
<feOffset dy="6"/>
<feGaussianBlur stdDeviation="8"/>
<feComposite in2="hardAlpha" operator="out"/>
<feColorMatrix type="matrix" values="0 0 0 0 1 0 0 0 0 1 0 0 0 0 1 0 0 0 0.2 0"/>
<feBlend mode="normal" in2="BackgroundImageFix" result="effect1_dropShadow_1_379"/>
<feBlend mode="normal" in="SourceGraphic" in2="effect1_dropShadow_1_379" result="shape"/>
</filter>
<linearGradient id="paint0_linear_1_379" x1="325" y1="327" x2="345" y2="327" gradientUnits="userSpaceOnUse">
<stop stop-opacity="0"/>
<stop offset="0.1" stop-color="white"/>
<stop offset="0.9" stop-color="white"/>
<stop offset="1" stop-opacity="0"/>
</linearGradient>
</defs>
</svg>
